<svg width="129" height="198" viewBox="0 0 129 198" fill="none" xmlns="http://www.w3.org/2000/svg">
<g clip-path="url(#clip0_341_126)">
<path d="M64.495 0C28.9343 0 0 28.7165 0 64.0095V133.99C0 169.284 28.9343 198 64.495 198C100.056 198 128.99 169.284 128.99 133.99V64.0095C129 28.7165 100.066 0 64.495 0ZM127.201 100.225C123.003 100.245 119.865 101.435 117.886 103.786C117.716 103.994 117.556 104.203 117.406 104.411V98.3602C117.936 98.9157 118.576 99.3621 119.295 99.6596C119.955 99.9275 120.655 100.056 121.364 100.056C122.404 100.056 123.463 99.7687 124.482 99.2033C125.542 98.6181 126.471 97.7651 127.201 96.7235V100.225ZM124.472 109.053C122.933 110.72 120.555 111.523 117.406 111.454C117.406 110.115 117.366 107.149 119.265 104.917C120.794 103.102 123.253 102.13 126.581 102.001C126.651 103.498 126.551 106.802 124.472 109.053ZM126.581 94.1742C125.952 95.7018 124.892 96.9318 123.603 97.6559C122.374 98.3404 121.094 98.4594 119.975 98.013C118.865 97.5567 118.036 96.5747 117.636 95.2356C117.496 94.7496 117.416 94.2437 117.406 93.718V93.3311C117.426 92.4582 117.616 91.5555 117.976 90.6826C119.005 88.183 121.154 86.576 123.193 86.576C123.663 86.576 124.133 86.6653 124.582 86.8438C125.692 87.3001 126.521 88.2821 126.921 89.6213C127.321 91.0298 127.201 92.6467 126.581 94.1742ZM114.578 90.395C112.289 91.5357 109.201 90.0379 107.702 87.0621C106.202 84.0863 106.852 80.7435 109.141 79.6027C109.65 79.3448 110.21 79.2258 110.8 79.2258C111.45 79.2258 112.119 79.3845 112.789 79.692C114.128 80.307 115.277 81.4676 116.027 82.9356C117.516 85.9114 116.867 89.2642 114.578 90.395ZM112.939 92.5574C113.778 92.5574 114.608 92.3788 115.377 91.992C115.517 91.9226 115.647 91.8432 115.777 91.7638C115.677 92.2697 115.617 92.7855 115.607 93.2914V93.3906C115.607 93.5096 115.607 93.6287 115.607 93.7477V96.6342C115.457 96.416 115.297 96.2077 115.118 95.9994C113.129 93.6485 109.98 92.4483 105.773 92.4384V87.1712C105.873 87.4092 105.972 87.6473 106.092 87.8755C107.562 90.7818 110.31 92.5574 112.939 92.5574ZM115.607 103.667C112.459 103.746 110.07 102.923 108.531 101.267C106.452 99.0149 106.352 95.7018 106.432 94.2238C109.75 94.3429 112.209 95.315 113.738 97.1302C115.627 99.3521 115.607 102.348 115.607 103.667ZM105.773 100.364C106.132 101.098 106.592 101.812 107.192 102.467C109.021 104.461 111.719 105.462 115.207 105.462C115.337 105.462 115.477 105.453 115.607 105.453V110.303C115.597 110.581 115.597 110.849 115.607 111.087V112.188C115.457 111.97 115.297 111.761 115.118 111.553C113.129 109.202 109.99 108.012 105.773 107.992V100.364ZM106.432 109.777C109.75 109.896 112.209 110.868 113.738 112.684C115.627 114.906 115.607 117.901 115.607 119.231C112.459 119.31 110.07 118.487 108.531 116.83C106.452 114.568 106.352 111.255 106.432 109.777ZM117.886 119.925C117.716 120.133 117.556 120.341 117.406 120.56V113.239C117.536 113.239 117.666 113.249 117.796 113.249C121.284 113.249 123.973 112.247 125.812 110.253C126.401 109.619 126.851 108.924 127.201 108.21V116.364C123.003 116.384 119.865 117.574 117.886 119.925ZM124.482 125.202C122.943 126.868 120.565 127.662 117.406 127.602C117.406 126.273 117.376 123.297 119.265 121.066C120.794 119.25 123.253 118.278 126.581 118.149C126.651 119.637 126.551 122.95 124.482 125.202ZM64.495 1.78548C99.0662 1.78548 127.201 29.6985 127.201 64.0194V86.5562C126.651 85.9709 126.002 85.5047 125.252 85.1972C123.043 84.3045 120.515 84.9889 118.586 86.7347C118.686 85.2568 118.386 83.6597 117.616 82.152C116.697 80.3169 115.237 78.8786 113.528 78.0851C111.749 77.2618 109.9 77.2419 108.331 78.0256C107.172 78.6009 106.312 79.5531 105.773 80.7137V63.1763C105.773 40.5899 87.2526 22.2094 64.495 22.2094C41.7373 22.2094 23.2174 40.5899 23.2174 63.1763V80.6939C22.6777 79.5333 21.8082 78.581 20.6588 78.0057C19.0796 77.2221 17.2406 77.2419 15.4616 78.0652C13.7525 78.8588 12.3033 80.2971 11.3738 82.1322C10.6142 83.6399 10.3144 85.2369 10.4044 86.7149C8.4754 84.9691 5.94677 84.2847 3.73797 85.1774C2.99837 85.4948 2.33873 85.961 1.79902 86.5463V64.0095C1.79902 29.6985 29.9238 1.78548 64.495 1.78548ZM41.7973 166.853L41.7673 166.744C41.7473 166.665 39.6585 159.057 42.7468 152.569C42.9767 152.083 43.2565 151.637 43.5664 151.191C46.155 147.491 48.6436 144.624 49.0834 144.148C52.9613 139.902 55.7397 135.677 66.9936 130.142C72.6506 127.364 82.4752 124.974 92.6397 122.682C93.1894 122.563 93.6392 122.196 93.8791 121.691L97.637 113.576C97.9768 112.842 97.7769 111.97 97.1473 111.454L96.8474 111.216C96.4277 110.868 95.868 110.74 95.3283 110.849C89.3415 112.138 80.7662 114.4 74.2297 116.384L73.78 116.523C72.8605 116.81 65.2146 119.191 59.5277 123.129C50.7724 129.19 47.5642 135.161 44.176 142.035C43.6063 143.196 42.5669 145.695 41.6374 148.433C41.4675 148.939 41.3076 149.435 41.1477 149.941C41.6774 143.88 42.5369 139.456 43.3265 136.421C44.8357 130.677 46.4448 128.495 46.4648 128.475L46.4448 128.465C51.9318 120.103 59.9575 113.309 70.9615 107.724C72.9404 106.722 75.1592 105.849 77.9177 104.986C79.8667 104.381 81.2459 104.014 82.6052 103.736C82.895 103.697 83.1949 103.657 83.4847 103.627C84.4742 105.393 85.1438 107.496 85.4836 108.557C85.7535 109.391 85.9434 109.996 86.7229 109.896C86.7229 109.896 87.0727 109.906 87.2626 109.678C87.4026 109.51 87.4825 109.172 87.4825 109.172C87.5025 109.063 87.5525 108.865 87.6424 108.577C87.7424 108.22 87.9023 107.526 88.1222 106.454C88.3221 105.492 88.2921 104.361 88.0322 103.012C88.6719 102.963 89.5214 102.933 90.6008 102.913C91.5103 102.893 92.3799 102.943 93.1395 102.983C93.6292 103.012 94.0889 103.032 94.4987 103.042L94.9285 103.052L95.1983 102.725C96.1278 101.634 97.0673 99.7688 97.8369 98.2809L98.1467 97.6758C98.5565 96.9021 98.6765 96.0986 98.5265 95.2852L98.5165 95.2455C98.4066 94.7595 98.0268 93.9263 96.1078 91.7936C93.0295 88.3218 89.8113 86.2586 86.533 85.6535C85.6335 85.4849 84.5041 85.5643 83.0949 85.8817L82.965 85.9214C80.5863 86.8339 79.0871 88.9071 78.5274 92.0713C78.4574 92.4284 78.4075 92.8748 78.3675 93.4204C74.5795 94.452 69.2924 96.3069 64.3551 99.4513C60.1474 102.139 55.5099 106.444 51.2922 111.553C51.0923 111.801 50.8924 112.049 50.7025 112.297C47.944 115.838 46.4748 119.498 46.4148 119.637C45.1455 122.643 43.5664 128.604 42.8767 131.778C41.7973 134.685 40.548 139.208 39.7284 145.923C40.1982 131.094 43.7962 111.841 57.7187 100.949C61.7365 97.8047 67.8032 93.0633 74.0298 91.129C75.7989 90.5834 76.8783 89.3336 76.5485 88.1631C76.2086 86.9629 74.5495 86.4471 72.6806 86.953C70.8216 87.4688 69.6622 88.7682 70.002 89.9684C70.072 90.2164 70.2019 90.4247 70.3718 90.6132C65.0047 92.9839 60.0174 96.783 56.5693 99.5803C43.1566 110.442 40.3481 122.196 38.5991 140.855C38.4391 142.501 38.3392 144.128 38.2592 145.695C37.1898 121.115 44.0361 109.797 45.7552 107.357C45.995 107.04 46.145 106.841 46.145 106.841C48.3338 103.707 50.7824 100.731 51.2822 100.146C52.7514 98.4594 57.9486 92.2003 69.1925 86.6653C74.8494 83.8879 82.4653 82.0925 92.6297 79.8011C93.1794 79.6821 93.6292 79.3151 93.8691 78.8092L97.627 70.6852C97.9668 69.9512 97.7669 69.0783 97.1373 68.5625L96.8374 68.3244C96.4177 67.9773 95.858 67.8483 95.3183 67.9574C89.3315 69.2469 82.965 70.9134 76.4285 72.8972L75.9788 73.0361C75.1992 73.2742 74.4596 73.5023 73.8099 73.5023C73.69 73.5023 73.5801 73.4924 73.4601 73.4825C72.8105 73.3436 70.3718 71.7069 68.0731 69.4751C64.405 65.7752 63.8454 63.7814 64.1252 61.9165C64.2751 60.9345 67.8432 58.8415 73.0903 58.8415C74.0398 58.8415 75.0393 58.911 76.0787 59.0598C79.5268 59.5657 82.4153 60.6369 85.1538 62.4224C85.8534 62.8787 86.7829 62.7894 87.3926 62.2141L88.6419 61.004C89.2116 60.4485 89.3515 59.5855 88.9717 58.8812C85.3437 52.1559 80.8561 48.6147 74.8494 47.722C74.1498 47.6228 73.4501 47.5633 72.7505 47.5633C68.0531 47.5633 63.4656 49.8844 59.9075 54.1398C57.4488 57.1652 55.6098 61.123 55.1001 64.4757C54.1706 70.6753 56.6692 74.5141 61.7265 79.6325C52.7814 87.0819 49.763 91.6646 46.3748 98.5388C45.7852 99.7291 44.5058 103.072 43.3265 106.385C42.5869 108.448 41.7773 110.482 40.9378 112.505C38.4491 118.526 35.7806 128.832 36.3903 144.733C34.1914 117.901 42.9667 91.6845 55.6298 79.811C55.6898 79.7515 55.7497 79.692 55.8097 79.6325C55.8297 79.6126 55.8497 79.5928 55.8697 79.573C56.8991 78.5314 57.2389 77.2717 56.6293 76.4385C55.8897 75.4267 54.1506 75.516 52.5815 76.6368C51.0123 77.7577 50.3827 79.3746 51.1223 80.3864C51.3321 80.6839 51.642 80.8724 51.9918 80.9815C37.4397 97.2988 28.9043 132.403 38.0494 163.838C30.0437 156.666 25.0064 146.29 25.0064 134.764V63.1763C25.0064 58.4547 25.856 53.9216 27.4051 49.7257C28.7344 50.4101 30.1636 50.8565 31.6428 51.0449L31.5929 59.3772C31.5929 59.8732 31.9926 60.2699 32.4824 60.2699C32.9821 60.2699 33.3819 59.8732 33.3819 59.3871L33.4319 51.164C35.031 51.1541 36.5602 50.8466 37.9794 50.3109L44.306 62.6307C44.5258 63.0672 45.0755 63.2457 45.5153 63.0176C45.9551 62.7894 46.135 62.2538 45.9051 61.8173L39.6085 49.567C41.1876 48.704 42.5569 47.5137 43.6563 46.0952L50.7025 51.0945C51.1023 51.3822 51.662 51.283 51.9518 50.8862C52.2416 50.4895 52.1417 49.934 51.7419 49.6463L44.6458 44.6172C45.3454 43.3971 45.8451 42.058 46.105 40.6395L59.2578 42.0084C59.7476 42.058 60.1973 41.7009 60.2473 41.2149C60.2973 40.7288 59.9375 40.2825 59.4477 40.2329L46.3049 38.864C46.3149 38.6656 46.3349 38.4771 46.3349 38.2787C46.3349 37.0983 46.1749 35.9378 45.8551 34.8268L54.2306 32.1982C54.7003 32.0494 54.9702 31.5534 54.8202 31.0773C54.6703 30.6111 54.1706 30.3433 53.6909 30.4921L45.2454 33.1405C44.7657 32.0494 44.1261 31.0178 43.3465 30.0854C49.4632 26.2267 56.6992 23.985 64.465 23.985C86.2332 23.985 103.944 41.562 103.944 63.1664V134.814C103.944 156.418 86.2332 173.995 64.465 173.995C56.0496 174.005 48.2238 171.357 41.7973 166.853ZM84.8939 92.0713C84.8839 91.8531 85.0039 91.5952 85.1538 91.4365C85.3137 91.2778 85.6835 91.1885 85.9134 91.1588C86.5131 91.0992 87.3626 91.258 87.8823 91.4762C88.3421 91.6746 89.4714 92.3392 89.7513 93.0534C89.7513 93.0534 87.8323 92.845 85.0838 92.9542C85.0838 92.9641 84.9139 92.5574 84.8939 92.0713ZM71.781 89.4923C71.921 89.2939 72.3707 88.9071 73.1703 88.6889C73.9699 88.4706 74.5495 88.5599 74.7794 88.669C74.6395 88.8674 74.1897 89.2542 73.3902 89.4725C72.5906 89.6907 72.0009 89.5915 71.781 89.4923ZM52.6214 79.3647C52.6814 79.1266 52.9713 78.6108 53.6409 78.1347C54.3105 77.6486 54.9002 77.5395 55.1401 77.5593C55.1001 77.7181 54.9502 78.0057 54.6603 78.3231C54.5604 78.4223 54.4505 78.5215 54.3505 78.6207C54.2805 78.6802 54.2106 78.7298 54.1306 78.7893C53.441 79.2754 52.8513 79.3845 52.6214 79.3647ZM41.8973 31.0872C43.6263 33.0909 44.5658 35.6204 44.5658 38.2887C44.5658 44.4089 39.5485 49.3983 33.3719 49.3983C31.5229 49.3983 29.7139 48.952 28.0948 48.089L28.0648 48.0691C30.9832 41.1851 35.8206 35.3129 41.8973 31.0872ZM23.2174 107.982C18.9997 107.992 15.8614 109.192 13.8725 111.543C13.6926 111.751 13.5327 111.97 13.3827 112.178V105.443C13.5127 105.443 13.6526 105.453 13.7825 105.453C17.2706 105.453 19.9592 104.451 21.7982 102.457C22.3978 101.802 22.8576 101.088 23.2174 100.364V107.982ZM20.4689 116.82C18.9297 118.487 16.541 119.3 13.3927 119.221C13.3927 117.891 13.3727 114.896 15.2617 112.674C16.7909 110.868 19.2496 109.896 22.5678 109.767C22.6477 111.255 22.5478 114.568 20.4689 116.82ZM23.2174 92.4284C19.0097 92.4384 15.8614 93.6386 13.8725 95.9895C13.6926 96.1978 13.5327 96.416 13.3827 96.6243V93.6882C13.3827 93.6287 13.3827 93.5692 13.3827 93.4997V93.0534H13.3727C13.3528 92.6169 13.2928 92.1904 13.2028 91.7539C13.3328 91.8333 13.4627 91.9126 13.6026 91.9821C14.3722 92.3689 15.2018 92.5475 16.0413 92.5475C18.6699 92.5475 21.4184 90.7818 22.8876 87.8556C23.0075 87.6176 23.1075 87.3894 23.2074 87.1513V92.4284H23.2174ZM13.3927 103.241C13.4027 101.763 13.5526 99.1339 15.2617 97.1302C16.7909 95.3249 19.2496 94.3528 22.5678 94.2238C22.6477 95.7117 22.5478 99.0149 20.4689 101.267C18.9297 102.933 16.531 103.746 13.3927 103.667V103.241ZM21.2984 87.072C19.7993 90.0478 16.7109 91.5357 14.4222 90.4049C12.1334 89.2642 11.4838 85.9213 12.983 82.9455C13.7226 81.4676 14.8719 80.3169 16.2212 79.7019C16.8908 79.3944 17.5605 79.2357 18.2101 79.2357C18.7898 79.2357 19.3495 79.3647 19.8592 79.6126C22.148 80.7534 22.7976 84.0962 21.2984 87.072ZM11.5937 93.4204V93.6485C11.5837 94.1941 11.5038 94.7198 11.3538 95.2257C10.9641 96.5648 10.1345 97.5468 9.01511 98.0031C7.90571 98.4594 6.61641 98.3304 5.38708 97.646C4.09778 96.9318 3.03835 95.6919 2.40869 94.1643C1.77903 92.6367 1.6591 91.0199 2.07887 89.6113C2.46866 88.2722 3.29821 87.2902 4.4176 86.8339C4.86736 86.6554 5.32711 86.5661 5.80685 86.5661C7.84574 86.5661 9.99458 88.173 11.024 90.6727C11.3938 91.5853 11.5837 92.5177 11.5937 93.4204ZM4.51755 99.2033C5.537 99.7687 6.59642 100.056 7.63586 100.056C8.34547 100.056 9.0351 99.9275 9.70473 99.6596C10.4243 99.3621 11.064 98.9157 11.5937 98.3602V104.421C11.4438 104.203 11.2839 103.994 11.104 103.786C9.12505 101.445 5.98675 100.245 1.79902 100.225V96.7334C2.52863 97.765 3.45812 98.6181 4.51755 99.2033ZM11.5937 111.464C8.44542 111.533 6.05671 110.72 4.51755 109.063C2.43868 106.811 2.33873 103.508 2.41869 102.02C5.74688 102.139 8.20555 103.121 9.73472 104.937C11.6237 107.159 11.5937 110.144 11.5937 111.464ZM1.79902 108.22C2.14883 108.924 2.59859 109.619 3.18827 110.253C5.01728 112.247 7.71581 113.249 11.2039 113.249C11.3338 113.249 11.4738 113.239 11.6037 113.239V120.57C11.4538 120.351 11.2939 120.133 11.114 119.925C9.13504 117.584 5.99675 116.384 1.80902 116.364V108.22H1.79902ZM2.40869 118.159C5.73689 118.278 8.19555 119.26 9.72472 121.076C11.6137 123.307 11.5937 126.283 11.5937 127.612C8.44542 127.672 6.04672 126.868 4.50755 125.212C2.43868 122.95 2.33873 119.637 2.40869 118.159ZM64.495 196.224C29.9238 196.224 1.78903 168.311 1.78903 133.99V124.369C2.13884 125.073 2.5886 125.767 3.16828 126.392C4.99729 128.386 7.69582 129.388 11.1839 129.388C11.3139 129.388 11.4538 129.378 11.5837 129.378V134.219C11.5837 153.313 21.9081 170.057 37.2998 179.243C37.7195 179.491 38.2692 179.362 38.5391 178.945C38.8089 178.518 38.669 177.963 38.2293 177.705C23.3673 168.827 13.3927 152.659 13.3927 134.219V120.996C13.5227 120.996 13.6626 121.006 13.7925 121.006C17.2806 121.006 19.9692 120.004 21.8082 118.01C22.4078 117.356 22.8676 116.642 23.2274 115.917V134.824C23.2274 157.41 41.7473 175.791 64.505 175.791C87.2626 175.791 105.783 157.41 105.783 134.824V115.908C106.142 116.642 106.602 117.356 107.202 118.01C109.031 120.004 111.729 121.006 115.217 121.006C115.347 121.006 115.487 120.996 115.617 120.996V126.551C115.617 126.71 115.617 126.868 115.617 127.017V134.219C115.617 152.877 105.413 169.214 90.251 178.022C89.8013 178.28 89.6613 178.856 89.9512 179.282C90.211 179.679 90.7508 179.808 91.1605 179.57C106.852 170.454 117.426 153.542 117.426 134.219V129.378C117.556 129.378 117.686 129.388 117.816 129.388C121.304 129.388 123.993 128.386 125.832 126.392C126.411 125.757 126.861 125.063 127.221 124.359V133.99C127.201 168.301 99.0762 196.224 64.495 196.224Z" fill="white"/>
<path d="M16.8304 62.4026H15.3612V65.428H6.45605V66.9853H16.8304V62.4026Z" fill="white"/>
<path d="M11.9631 60.875C13.6222 60.875 14.9714 60.2898 16.0009 59.1292C16.9304 58.0679 17.3901 56.8775 17.3901 55.5483C17.3901 54.0406 16.8704 52.761 15.821 51.6996C14.7815 50.6383 13.5122 50.1125 12.023 50.1125C10.5438 50.1125 9.26454 50.6383 8.21511 51.6897C7.15569 52.7412 6.62598 54.0009 6.62598 55.469C6.62598 56.9569 7.14569 58.2266 8.19512 59.2879C9.24455 60.3493 10.4939 60.875 11.9631 60.875ZM9.22457 52.7809C9.97416 52.0468 10.9037 51.6798 12.0131 51.6798C13.1025 51.6798 14.032 52.0468 14.8015 52.7908C15.5511 53.5347 15.9309 54.4473 15.9309 55.5285C15.9309 56.5204 15.5611 57.4033 14.8215 58.1671C14.0819 58.9308 13.1424 59.3177 11.9931 59.3177C10.9037 59.3177 9.98415 58.9507 9.23456 58.2067C8.48497 57.4727 8.10517 56.5601 8.10517 55.4888C8.09518 54.4076 8.46498 53.505 9.22457 52.7809Z" fill="white"/>
<path d="M18.2502 48.8528L18.8798 47.4343L12.2235 44.5379L22.4879 40.7983L12.3934 36.4238L11.7737 37.8423L18.3801 40.709L8.0957 44.4486L18.2502 48.8528Z" fill="white"/>
<path d="M18.9594 35.4913C20.1188 36.394 21.4281 36.7709 22.8973 36.6122C24.3665 36.4535 25.5459 35.7988 26.4454 34.668C27.3649 33.5074 27.7047 32.2179 27.4448 30.7994C27.3249 30.1745 27.105 29.619 26.7852 29.133C26.4254 28.6172 25.9457 28.1212 25.326 27.6451L25.0561 27.4368L22.3976 30.7796L23.5569 31.6823L25.1561 29.6686C25.6858 30.1745 25.9656 30.8292 25.9956 31.6327C26.0256 32.4262 25.7957 33.1305 25.326 33.7356C24.7663 34.4398 23.9767 34.8862 22.9473 35.0648C21.8479 35.2532 20.8384 34.9854 19.9289 34.2811C19.0494 33.5967 18.5497 32.7337 18.4197 31.6922C18.2898 30.6507 18.5597 29.6984 19.2393 28.8453C19.9989 27.8931 21.0883 27.4269 22.4975 27.4665L22.3476 25.939C21.3581 25.9886 20.5286 26.177 19.849 26.4944C19.1493 26.8416 18.5497 27.3277 18.0499 27.9625C17.1104 29.1429 16.7307 30.4622 16.9106 31.9302C17.1005 33.3686 17.7801 34.5589 18.9594 35.4913Z" fill="white"/>
<path d="M40.4882 23.4593C41.1079 23.1221 41.5876 22.7749 41.9374 22.4377C42.2473 22.1103 42.4671 21.7235 42.6071 21.2572C42.8369 20.4935 42.757 19.7594 42.3572 19.0552C42.0574 18.5195 41.6576 18.1227 41.1478 17.8748C40.6381 17.6169 40.0984 17.5474 39.5287 17.6466C39.7786 16.9225 39.7186 16.2381 39.3588 15.5933C39.1589 15.2362 38.8891 14.9287 38.5393 14.6708C38.1995 14.4129 37.8396 14.2344 37.4599 14.1451C37.0801 14.0657 36.6903 14.0756 36.2705 14.1848C35.8607 14.2939 35.351 14.5121 34.7413 14.8394L33.3721 15.5933L38.4093 24.6001L40.4882 23.4593ZM36.9102 18.708L35.4509 16.0893L35.9307 15.8214C36.3904 15.5635 36.8102 15.4842 37.17 15.5735C37.5398 15.6627 37.8396 15.9107 38.0695 16.3373C38.3094 16.7737 38.3794 17.1705 38.2694 17.5177C38.1595 17.8748 37.8496 18.1922 37.3399 18.4699L36.9102 18.708ZM38.2394 19.4618C38.979 19.0552 39.5587 18.9064 39.9885 19.0056C40.4282 19.1048 40.7581 19.3527 40.9779 19.7396C41.1978 20.1364 41.2378 20.553 41.0779 20.9795C40.928 21.3763 40.5382 21.7532 39.9185 22.0905L39.069 22.5567L37.5498 19.8289L38.2394 19.4618Z" fill="white"/>
<path d="M51.2118 19.1046L50.752 17.7159L47.8536 18.6583L45.0751 10.2566L43.5859 10.7426L46.8242 20.533L51.2118 19.1046Z" fill="white"/>
<path d="M61.0066 17.448L60.8266 15.9998L56.6989 16.4859L56.2791 13.0736L60.2869 12.5876L60.117 11.1393L56.0992 11.6254L55.8094 9.16538L59.9371 8.66942L59.7572 7.22119L54.0703 7.89571L55.3196 18.1225L61.0066 17.448Z" fill="white"/>
<path d="M69.542 15.9205C69.1922 16.2181 68.7724 16.347 68.2927 16.3073C67.673 16.2577 67.2233 15.9998 66.9434 15.5237C66.7835 15.2757 66.6936 14.8492 66.6736 14.2441L65.0645 14.4623C65.1244 15.4344 65.4243 16.2082 65.954 16.7835C66.4937 17.3588 67.2133 17.6861 68.1128 17.7556C69.0623 17.8349 69.8818 17.5869 70.5715 17.0215C71.2611 16.4561 71.6409 15.7023 71.7208 14.7599C71.7808 14.0557 71.6409 13.4407 71.2911 12.9248C70.9413 12.409 70.3616 11.9428 69.552 11.5361L68.5526 11.0303C67.823 10.6632 67.4831 10.2268 67.5331 9.73082C67.5631 9.3638 67.733 9.07614 68.0428 8.85792C68.3527 8.63969 68.7225 8.55042 69.1522 8.58017C69.502 8.60993 69.7919 8.69921 70.0018 8.86784C70.2017 9.00671 70.4116 9.29437 70.6114 9.7209L71.9407 9.07614C71.371 7.86598 70.4815 7.21131 69.2922 7.11211C68.4126 7.04268 67.6431 7.24106 67.0034 7.71719C66.3638 8.1834 66.0139 8.80832 65.954 9.58203C65.854 10.7228 66.4937 11.6552 67.8629 12.3694L68.8224 12.8653C69.0723 12.9943 69.2822 13.1332 69.4621 13.272C69.642 13.4109 69.7819 13.5498 69.8918 13.6986C70.0018 13.8473 70.0717 14.0061 70.1117 14.1747C70.1517 14.3433 70.1617 14.5318 70.1517 14.7302C70.0917 15.2261 69.8918 15.6229 69.542 15.9205Z" fill="white"/>
<path d="M77.2881 19.6204C78.1876 19.9081 79.0472 19.8486 79.8467 19.4518C80.6463 19.055 81.186 18.4103 81.4758 17.5076C81.6957 16.8331 81.6957 16.2082 81.4659 15.6229C81.246 15.0377 80.7862 14.4624 80.0866 13.8871L79.2271 13.1729C78.6074 12.6471 78.3675 12.1512 78.5274 11.675C78.6374 11.3279 78.8673 11.0799 79.2171 10.941C79.5669 10.7922 79.9467 10.7922 80.3565 10.9212C80.6963 11.0303 80.9461 11.1791 81.116 11.3874C81.286 11.5659 81.4159 11.8933 81.5158 12.3595L82.955 12.0321C82.6752 10.7228 81.9556 9.88957 80.8162 9.53247C79.9667 9.26465 79.1871 9.28449 78.4575 9.61183C77.7279 9.92924 77.2481 10.455 77.0083 11.189C76.6585 12.2801 77.0582 13.3316 78.2276 14.3235L79.0572 15.0179C79.267 15.2063 79.4469 15.3849 79.5869 15.5535C79.7268 15.7221 79.8367 15.9007 79.9067 16.0693C79.9767 16.2379 80.0166 16.4066 80.0166 16.5851C80.0166 16.7637 79.9867 16.9422 79.9267 17.1307C79.7768 17.6068 79.4969 17.9441 79.0871 18.1623C78.6774 18.3706 78.2476 18.4004 77.7779 18.2615C77.1882 18.073 76.8084 17.7159 76.6385 17.2001C76.5385 16.9224 76.5485 16.4859 76.6685 15.8908L75.0493 15.742C74.8894 16.7042 74.9994 17.5175 75.3891 18.202C75.7989 18.8765 76.4286 19.3526 77.2881 19.6204Z" fill="white"/>
<path d="M89.2315 23.2213L85.5435 21.3068L87.1526 18.2616L90.7307 20.1165L91.4103 18.827L87.8322 16.9621L88.9916 14.77L92.6796 16.6844L93.3593 15.3949L88.282 12.7563L83.4746 21.8821L88.5519 24.5207L89.2315 23.2213Z" fill="white"/>
<path d="M93.4298 27.9131C94.2693 28.5479 94.9789 28.9546 95.5486 29.153C96.1583 29.3712 96.8279 29.4506 97.5775 29.401C99.0667 29.2919 100.286 28.6074 101.256 27.3477C102.215 26.0879 102.565 24.7488 102.305 23.3403C102.175 22.636 101.915 22.0111 101.515 21.4655C101.156 20.9398 100.566 20.3644 99.7364 19.7395L97.9973 18.4302L91.7207 26.6335L93.4298 27.9131ZM98.3571 20.5232L98.9168 20.9497C99.9762 21.7532 100.596 22.6062 100.756 23.5188C100.936 24.5306 100.676 25.4927 99.9862 26.3954C99.3066 27.2881 98.4371 27.7841 97.3976 27.8734C96.8879 27.9131 96.4082 27.8635 95.9384 27.7048C95.4787 27.5461 94.9689 27.2485 94.4092 26.8319L93.8496 26.4053L98.3571 20.5232Z" fill="white"/>
<path d="M108.071 43.0201L106.592 40.3716L114.378 36.0865L113.618 34.7275L104.543 39.7269L106.782 43.7343L108.071 43.0201Z" fill="white"/>
<path d="M118.049 44.0027L108.189 47.2368L108.682 48.7155L118.542 45.4814L118.049 44.0027Z" fill="white"/>
<path d="M109.95 54.715L114.847 54.0703L115.307 57.5024L116.766 57.3139L116.307 53.8818L118.785 53.5545L119.255 57.1056L120.714 56.9171L120.035 51.8186L109.74 53.1776L109.95 54.715Z" fill="white"/>
<path d="M110.16 66.9853H111.639V62.8489H115.107V66.8663H116.577V62.8489H119.075V66.9853H120.545V61.3015H110.16V66.9853Z" fill="white"/>
<path d="M47.7146 177.745C46.3453 177.13 44.9661 177.08 43.5568 177.596C42.1476 178.112 41.1481 179.024 40.5385 180.343C39.8588 181.851 39.8388 183.299 40.4885 184.708C41.0782 185.988 41.9877 186.89 43.207 187.446C44.5863 188.061 45.9855 188.12 47.3847 187.614C48.784 187.108 49.7934 186.186 50.4031 184.827C51.0128 183.488 51.0528 182.119 50.523 180.73C49.9933 179.352 49.0638 178.35 47.7146 177.745ZM48.9739 184.182C48.5241 185.174 47.8045 185.859 46.8051 186.246C45.8156 186.622 44.8161 186.583 43.8267 186.146C42.9072 185.74 42.2575 185.035 41.8577 184.063C41.458 183.081 41.4979 182.069 41.9677 181.028C42.4174 180.036 43.137 179.361 44.1165 178.994C45.106 178.618 46.0954 178.647 47.0749 179.094C48.0644 179.54 48.734 180.254 49.0938 181.226C49.4736 182.188 49.4336 183.18 48.9739 184.182Z" fill="white"/>
<path d="M58.3885 188.239L55.73 179.897L52.3418 190.67L53.9509 190.848L55.7499 184.778L57.9787 191.761L61.7667 185.442L62.0765 191.731L63.6756 191.91L62.946 180.681L58.3885 188.239Z" fill="white"/>
<path d="M75.0791 181.455C73.8297 180.631 72.4805 180.373 71.0312 180.661C69.562 180.959 68.4127 181.722 67.5731 182.952C66.7336 184.182 66.4537 185.512 66.7436 186.93C67.0734 188.547 67.9129 189.737 69.2722 190.511C70.5015 191.205 71.7708 191.414 73.0901 191.156C74.5793 190.858 75.7387 190.094 76.5782 188.864C77.4178 187.644 77.6876 186.305 77.3978 184.857C77.108 183.409 76.3384 182.278 75.0791 181.455ZM75.2989 188.081C74.7092 188.963 73.8897 189.509 72.8203 189.717C71.8308 189.916 70.8913 189.727 69.9918 189.162C69.0923 188.596 68.5226 187.753 68.2927 186.632C68.0729 185.571 68.2627 184.599 68.8424 183.726C69.4221 182.843 70.2417 182.298 71.3011 182.089C72.3605 181.871 73.33 182.06 74.1995 182.655C75.0691 183.24 75.6188 184.063 75.8386 185.145C76.0685 186.216 75.8886 187.188 75.2989 188.081Z" fill="white"/>
<path d="M84.6538 180.77C84.7838 180.116 84.6738 179.461 84.334 178.816C83.8943 177.993 83.2446 177.477 82.3851 177.289C81.6055 177.12 80.606 177.348 79.3967 177.983L77.7676 178.826L82.595 187.952L83.9842 187.228L82.0053 183.498L82.2551 183.369L86.8527 185.73L88.5517 184.847L83.6444 182.447C84.1941 181.98 84.5239 181.425 84.6538 180.77ZM81.8154 182.06L81.3756 182.288L79.8465 179.391L80.3362 179.134C81.6155 178.469 82.495 178.598 82.9947 179.53C83.5145 180.532 83.1247 181.375 81.8154 182.06Z" fill="white"/>
<path d="M120.435 88.0739C119.995 88.4607 119.865 89.0261 120.145 89.3336C120.425 89.6411 121.004 89.5816 121.444 89.1948C121.884 88.8079 122.014 88.2425 121.734 87.935C121.454 87.6275 120.874 87.687 120.435 88.0739Z" fill="white"/>
<path d="M110.56 80.3963C110.25 80.684 110.32 81.2593 110.72 81.6858C111.12 82.1124 111.69 82.2314 112 81.9437C112.309 81.666 112.239 81.0807 111.84 80.6542C111.44 80.2277 110.87 80.1087 110.56 80.3963Z" fill="white"/>
<path d="M5.26673 87.945C4.98688 88.2525 5.11681 88.8179 5.55657 89.2047C5.99633 89.5916 6.57602 89.6511 6.85587 89.3436C7.13571 89.0361 7.00578 88.4707 6.56602 88.0839C6.12626 87.6871 5.54658 87.6276 5.26673 87.945Z" fill="white"/>
<path d="M16.1509 80.6542C15.7511 81.0807 15.6811 81.6561 15.991 81.9437C16.3008 82.2314 16.8705 82.1124 17.2703 81.6858C17.67 81.2593 17.74 80.684 17.4302 80.3963C17.1203 80.1087 16.5507 80.2277 16.1509 80.6542Z" fill="white"/>
</g>
<defs>
<clipPath id="clip0_341_126">
<rect width="129" height="198" fill="white"/>
</clipPath>
</defs>
</svg>
