<svg width="93" height="105" viewBox="0 0 93 105" fill="none" xmlns="http://www.w3.org/2000/svg">
<g clip-path="url(#clip0_341_167)">
<path d="M56.1437 90.5628H54.1295H40.7131V80.673H51.2619C53.9588 80.673 56.1505 82.8915 56.1505 85.6213V90.5628H56.1437ZM85.1067 90.542H79.4261H67.8327V82.2902C67.8327 81.3849 68.5564 80.6523 69.4508 80.6523H77.7943V76.9825H69.4508C66.5559 76.9825 64.2072 79.3668 64.2072 82.2902V90.5697H59.7692V85.6213C59.7692 80.8734 55.9525 77.0032 51.255 77.0032H40.7131V65.5239L38.2005 66.837L37.0876 67.4176V77.0101V90.5697H32.7452V89.1805V82.4146V80.6799V77.0101H29.1197H27.4059H21.8072H21.4931V91.9934C21.4931 95.7253 19.6633 99.2016 16.6045 101.296L18.6323 104.337C22.6948 101.558 25.1186 96.9486 25.1186 91.9934V80.6799H29.1197V89.1805V94.2395H39.9279H54.1295H88.7254V76.9272L85.0999 78.8139V90.542H85.1067Z" fill="white"/>
<path d="M8.93745 92.484C6.00837 92.484 3.6255 90.0721 3.6255 87.1072C3.6255 84.1424 6.00837 81.7304 8.93745 81.7304C11.8665 81.7304 14.2494 84.1424 14.2494 87.1072C14.2494 90.0652 11.8665 92.484 8.93745 92.484ZM8.93745 78.0537C4.00786 78.0537 0 82.1105 0 87.1003C0 92.0901 4.00786 96.1469 8.93745 96.1469C13.867 96.1469 17.8749 92.0901 17.8749 87.1003C17.8749 82.1105 13.867 78.0537 8.93745 78.0537Z" fill="white"/>
<path d="M89.5246 67.3208L86.0766 70.8109L82.6286 67.3208L79.1533 70.8385L82.6286 74.3563L86.0766 70.8593L89.5246 74.3563L92.9999 70.8385L89.5246 67.3208Z" fill="white"/>
<path d="M33.6879 101.455L30.2399 97.9646L26.7646 101.482L30.2399 105L33.6879 101.51L37.1359 105L40.6112 101.482L37.1359 97.9646L33.6879 101.455Z" fill="white"/>
<path d="M8.93793 71.6333L12.3859 75.1234L15.8612 71.6056L12.3859 68.0879L8.93793 71.578L5.48994 68.0879L2.01465 71.6056L5.48994 75.1234L8.93793 71.6333Z" fill="white"/>
<path d="M38.9153 0.00198106L31.3066 7.70361L38.9153 15.4052L46.5241 7.70361L38.9153 0.00198106Z" fill="white"/>
<path d="M69.2195 19.9041H23.7744V29.6556H69.2195V19.9041Z" fill="white"/>
<path d="M54.0657 0.000514858L46.457 7.70215L54.0657 15.4038L61.6744 7.70215L54.0657 0.000514858Z" fill="white"/>
<path d="M51.5704 29.6555V52.6349H41.9365V34.6868L51.5704 29.6555Z" fill="white"/>
</g>
<defs>
<clipPath id="clip0_341_167">
<rect width="93" height="105" fill="white"/>
</clipPath>
</defs>
</svg>
