<svg width="266" height="44" viewBox="0 0 266 44" fill="none" xmlns="http://www.w3.org/2000/svg">
<g clip-path="url(#clip0_360_165)">
<path d="M35.59 30.45C35.59 38.81 30.04 43.07 15.84 43.07H1.05C0.29 43.07 0 42.9 0 42.43C0 41.96 0.53 41.73 1.11 41.44C2.22 40.91 2.28 39.69 2.28 37.35V6.43996C2.28 3.98996 2.22 2.86996 1.11 2.34996C0.53 2.04996 0 1.81996 0 1.40996C0 0.939961 0.24 0.709961 0.99 0.709961H15.83C23.95 0.709961 31.9 2.92996 31.9 10.99C31.9 16.31 28.22 18.76 23.49 19.81C30.5 20.93 35.59 24.02 35.59 30.45ZM15.84 3.09996H11.75V18.82H15.67C20.17 18.82 24.32 16.31 24.32 10.99C24.31 5.72996 21.39 3.09996 15.84 3.09996ZM25.89 30.45C25.89 25.31 23.26 20.75 15.66 20.75H11.74V38.86C11.74 40.26 12.03 40.67 13.14 40.67H15.94C24.02 40.68 25.89 35.77 25.89 30.45Z" fill="black"/>
<path d="M70.7698 23.21C70.6498 23.91 70.2998 24.26 69.5998 24.26H48.6198C48.6798 25.08 48.7898 25.9 48.9098 26.71C50.5498 37.52 60.3598 41.26 68.5998 36.64C69.2398 36.29 69.6498 36.29 69.9398 36.52C70.2298 36.81 70.2298 37.28 69.8198 37.86C68.2998 39.79 64.3898 43.82 57.1398 43.82C47.5598 43.82 40.6598 37.22 39.9598 27.69C39.1998 17.64 45.8598 9.11 56.1498 8.99C68.5498 8.89 71.4098 18.94 70.7698 23.21ZM59.3198 21.86C62.4198 21.86 62.9398 21.34 62.8298 18.65C62.6498 15.14 60.5498 10.53 56.1698 10.53C51.7298 10.53 48.9198 15.85 48.6298 21.87H59.3198V21.86Z" fill="black"/>
<path d="M111.1 41.9599C111.1 42.4299 110.75 42.5999 109.99 42.5999C107.83 42.6599 102.92 42.8899 100.99 43.1299C100.23 43.2499 99.9398 42.8999 99.9398 42.1399V37.6999C98.0098 41.3199 94.6798 43.8399 89.4798 43.8399C80.4798 43.8399 74.7498 36.5899 75.0498 24.9699C75.3998 14.2199 82.5898 8.0799 91.8798 9.1899C95.9098 9.6599 98.4198 11.7599 99.9498 14.5699V8.7699C99.9498 6.7199 99.7698 5.5599 98.7198 5.0899C98.0798 4.8599 97.6698 4.6199 97.6698 4.0999C97.6698 3.6299 98.0198 3.3399 98.6598 3.1099C100.3 2.8199 104.27 1.8799 107.72 0.129899C108.31 -0.160101 108.77 0.0698988 108.77 0.709899V37.4099C108.77 39.5099 108.95 40.6199 110.06 41.0299C110.69 41.3199 111.1 41.4999 111.1 41.9599ZM100.05 27.3599V24.6699C99.8198 15.9599 96.3698 11.7599 91.5198 11.9899C86.6698 12.1599 84.0398 18.7099 84.1598 26.8299C84.2798 35.6499 88.1298 40.3299 92.6298 40.0899C97.0098 39.9199 99.8198 35.5399 100.05 27.3599Z" fill="black"/>
<path d="M150.66 42.43C150.66 42.9 150.37 43.13 149.61 43.07C148.5 43.01 145.87 42.89 143.01 42.89C140.26 42.89 139.33 43.01 138.39 43.07C137.69 43.13 137.34 42.84 137.34 42.43C137.34 42.02 137.69 41.91 138.1 41.38C138.63 40.8 138.16 39.74 137.63 37.81L134.36 27.88C133.43 27.94 132.55 27.94 131.67 27.94H126.88V37.82C126.88 39.87 127 41.09 128.11 41.5C128.75 41.79 129.16 41.97 129.16 42.43C129.16 42.9 128.87 43.13 128.05 43.07C127 43.01 124.95 42.89 122.15 42.89C119.29 42.89 117.3 43.01 116.25 43.07C115.43 43.13 115.14 42.89 115.14 42.43C115.14 42.02 115.49 41.79 116.02 41.55C116.08 41.49 116.2 41.49 116.26 41.43C117.37 40.91 117.43 39.68 117.43 37.34V6.43997C117.43 3.98997 117.37 2.86997 116.26 2.34997C115.67 2.05997 115.15 1.81997 115.15 1.41997C115.15 1.06997 115.27 0.839971 115.79 0.779971L115.73 0.719971H129.58C139.87 0.719971 150.09 3.28997 150.09 14.45C150.09 21.64 146.52 25.09 141.97 26.66L146.47 37.82C147.4 40.22 148.28 41.15 149.68 41.5C150.31 41.73 150.66 41.96 150.66 42.43ZM126.88 25.54H131.67C136.99 25.54 140.38 21.98 140.38 14.44C140.38 6.95997 136.82 3.09997 129.57 3.09997H126.88V25.54Z" fill="black"/>
<path d="M187.66 26.42C187.66 36.06 181 43.83 170.6 43.83C160.2 43.83 153.59 36.06 153.59 26.42C153.65 16.84 160.19 9.01001 170.6 9.01001C181 9.01001 187.66 16.84 187.66 26.42ZM162.76 27.76C164.16 35.94 168.14 42.78 173.63 41.84C179.01 40.79 179.88 33.13 178.48 25.07C177.08 16.89 173.1 10.05 167.67 10.99C162.24 12.04 161.3 19.7 162.76 27.76Z" fill="black"/>
<path d="M201.63 27.7101C203.27 37.5301 213.61 41.0901 220.86 36.4201C221.44 36.1301 221.85 36.0101 222.2 36.3001C222.49 36.5901 222.43 37.0601 222.02 37.6401C220.73 39.6801 216.64 43.8301 209.46 43.8301C199.47 43.8301 192.81 36.6401 192.16 27.0601C191.58 18.1801 197.89 9.18008 208.93 9.00008C223.36 8.71008 224.24 20.6301 219.45 20.9201C212.26 21.2701 217.4 10.1701 208.93 10.5201C203.21 10.7601 199.93 19.1701 201.63 27.7101Z" fill="black"/>
<path d="M265.04 42.4301C265.04 42.9001 264.69 43.1301 263.93 43.0701C262.82 43.0101 260.37 42.8901 257.44 42.8901C254.58 42.8901 252.53 43.0101 251.48 43.0701C250.72 43.1301 250.43 42.8901 250.43 42.4301C250.43 41.9601 250.78 41.9101 251.31 41.4401C251.95 40.8601 251.31 39.3401 250.49 37.8201L241.49 21.8101L237.57 26.7201V37.8201C237.57 39.8701 237.69 41.0901 238.8 41.5001C239.44 41.7901 239.85 41.9701 239.85 42.4301C239.85 42.9001 239.56 43.1301 238.74 43.0701C237.69 43.0101 235.64 42.8901 232.84 42.8901C229.98 42.8901 227.99 43.0101 226.94 43.0701C226.12 43.1301 225.83 42.8901 225.83 42.4301C225.83 41.9601 226.24 41.7901 226.82 41.5001C227.99 41.0901 228.11 39.8601 228.11 37.8201V5.97006C228.11 3.93006 227.99 2.70006 226.82 2.29006C226.24 2.00006 225.83 1.82006 225.83 1.36006C225.83 0.900061 226.12 0.660061 226.94 0.720061C227.99 0.780061 229.98 0.890061 232.84 0.890061C235.64 0.890061 237.69 0.770061 238.74 0.720061C239.56 0.660061 239.85 0.890061 239.85 1.36006C239.85 1.83006 239.44 2.00006 238.8 2.29006C237.69 2.70006 237.57 3.93006 237.57 5.97006V23.2101L251.54 4.74006C253.76 1.64006 257.15 -0.519939 260.13 0.360061C264.69 2.00006 263.52 7.61006 258.9 8.01006C255.8 8.42006 253.93 5.15006 250.13 10.8701L247.03 14.7301L260.35 37.8101C261.64 40.0301 262.63 41.0801 263.97 41.4901C264.63 41.7301 265.04 41.9601 265.04 42.4301Z" fill="black"/>
</g>
<defs>
<clipPath id="clip0_360_165">
<rect width="265.04" height="43.83" fill="white"/>
</clipPath>
</defs>
</svg>
