<svg width="161" height="154" viewBox="0 0 161 154" fill="none" xmlns="http://www.w3.org/2000/svg">
<g id="card9">
<g id="Clip path group">
<mask id="mask0_191_153" style="mask-type:luminance" maskUnits="userSpaceOnUse" x="0" y="0" width="161" height="154">
<g id="SVGID_2_">
<path id="Vector" d="M160.031 0H0V153.342H160.031V0Z" fill="white"/>
</g>
</mask>
<g mask="url(#mask0_191_153)">
<path id="Vector_2" d="M97.4326 97.8292C97.4326 96.9447 97.3592 96.0737 97.2209 95.2244L93.4299 66.6998C92.6621 60.2544 86.9488 55.2478 80.0161 55.2478C73.0834 55.2478 67.3729 60.2544 66.6023 66.6998L62.8113 95.2244C62.673 96.0737 62.5996 96.942 62.5996 97.8292C62.5996 105.503 68.008 111.962 75.367 113.912L79.1806 117.555C79.652 118.004 80.4113 118.004 80.8799 117.552L84.668 113.909C92.027 111.956 97.4326 105.5 97.4326 97.8292Z" fill="white"/>
</g>
</g>
<g id="Clip path group_2">
<mask id="mask1_191_153" style="mask-type:luminance" maskUnits="userSpaceOnUse" x="0" y="0" width="161" height="154">
<g id="SVGID_2__2">
<path id="Vector_3" d="M160.031 0H0V153.342H160.031V0Z" fill="white"/>
</g>
</mask>
<g mask="url(#mask1_191_153)">
<path id="Vector_4" d="M80.0165 49.6841C77.1034 46.8927 72.3809 46.8927 69.4678 49.6841L80.0165 59.7918L90.5623 49.6841C87.6492 46.8927 82.9296 46.8927 80.0165 49.6841Z" fill="white"/>
</g>
</g>
<g id="Clip path group_3">
<mask id="mask2_191_153" style="mask-type:luminance" maskUnits="userSpaceOnUse" x="0" y="0" width="161" height="154">
<g id="SVGID_2__3">
<path id="Vector_5" d="M160.031 0H0V153.342H160.031V0Z" fill="white"/>
</g>
</mask>
<g mask="url(#mask2_191_153)">
<path id="Vector_6" d="M73.7521 143.34H86.2767V144.787H73.7521V143.34ZM35.2834 47.1904L38.9445 47.2201L38.9417 48.6293L35.3173 48.6104C33.999 48.6131 32.8897 49.4191 32.5623 50.5578L32.1586 51.9697L37.4372 53.3573L37.0392 54.753L25.2597 51.656C25.2597 50.6498 25.3416 49.7004 25.7622 48.2371C26.4114 45.9732 28.5257 45.1916 30.2476 45.646C31.5094 45.9786 32.3816 47.0119 32.582 48.2371C33.299 47.5853 34.2559 47.1769 35.2834 47.1904ZM29.8439 47.0416C28.6894 46.7387 27.4643 47.35 27.1369 48.4914C26.849 49.4949 26.753 49.9655 26.6655 50.5281L30.7867 51.6127L31.3936 49.5003C31.6928 48.4616 30.9984 47.3473 29.8439 47.0416ZM23.9472 89.6203H32.7344L23.5802 96.5743H36.4746V95.1272H27.7043L36.8613 88.1732H23.9472V89.6203ZM123.331 75.2092L127.145 73.6918C126.868 73.021 126.721 72.261 126.721 71.4496C126.721 70.6733 126.868 69.9132 127.145 69.2073L123.331 67.6899L123.921 66.3484L136.468 71.4496L123.921 76.5508L123.331 75.2092ZM128.088 71.4496C128.088 72.05 128.195 72.6505 128.401 73.1968L132.765 71.4496L128.401 69.7185C128.195 70.2486 128.088 70.8329 128.088 71.4496ZM33.3244 137.235C29.4007 137.235 29.5108 143.061 26.9506 143.061C25.8836 143.061 25.1666 142.247 25.1666 141.084C25.1666 140.148 25.5336 139.302 26.1405 138.663L25.2005 137.852C24.2802 138.663 23.727 139.813 23.727 141.084C23.727 142.956 25.017 144.508 26.9478 144.508C30.7811 144.508 30.5609 138.682 33.3413 138.682C34.4083 138.682 35.258 139.372 35.258 141.087C35.258 142.128 34.8543 143.064 34.191 143.77L35.1648 144.652C36.1048 143.735 36.6948 142.482 36.6948 141.087C36.6948 138.398 35.0378 137.235 33.3244 137.235ZM36.6948 113.333L32.8812 114.85C33.1579 115.521 33.3046 116.279 33.3046 117.093C33.3046 117.869 33.1579 118.629 32.8812 119.335L36.6948 120.852L36.1048 122.191L23.5576 117.093L36.1048 111.992L36.6948 113.333ZM31.9412 117.093C31.9412 116.492 31.834 115.892 31.6307 115.345L27.2667 117.093L31.6307 118.824C31.834 118.291 31.9412 117.709 31.9412 117.093ZM123.554 144.787H124.974V140.056H129.745V144.295H131.164V140.056H134.665V144.541H136.084V138.612H123.557V144.787H123.554ZM37.7674 27.0019L47.1052 35.0324L48.1157 33.9532L38.778 25.9227L37.7674 27.0019ZM125.812 50.4605L122.784 52.4323L121.948 51.2719L124.943 49.3136C126.027 48.5942 126.462 47.3256 126.052 46.2086L125.547 44.8264L120.381 46.5602L119.882 45.1943L131.413 41.321C132.006 42.1514 132.505 42.9763 133.03 44.4072C133.84 46.6224 132.562 48.4184 130.876 48.9837C129.64 49.4002 128.311 49.0215 127.419 48.1235C127.213 49.0567 126.665 49.9114 125.812 50.4605ZM126.888 44.3747L127.644 46.4412C128.017 47.4582 129.251 47.9991 130.377 47.6205C131.509 47.2418 132.152 46.0706 131.746 44.9535C131.387 43.9717 131.187 43.5335 130.924 43.0223L126.888 44.3747ZM123.554 92.0383V93.4854H132.325L123.167 100.439H136.082V98.9923H127.294L136.449 92.0383H123.554ZM134.665 118.791H123.554V120.238H134.665V123.135H136.084V115.897H134.665V118.791ZM115.535 28.3516C113.35 31.0618 109.271 31.5649 106.443 29.4741C103.617 27.3833 103.089 23.4722 105.274 20.762C107.456 18.0518 111.538 17.5487 114.363 19.6395C117.192 21.733 117.717 25.6414 115.535 28.3516ZM113.5 20.716C111.354 19.131 108.238 19.5665 106.527 21.6897C104.817 23.813 105.17 26.8126 107.309 28.3976C109.454 29.9826 112.571 29.5471 114.281 27.4239C115.992 25.3006 115.642 22.301 113.5 20.716ZM58.2099 15.934C57.8091 14.9819 58.3285 14.0406 59.4548 13.6051C60.3637 13.2562 61.3206 13.267 62.1674 13.57L62.6022 12.4313C61.4702 11.9147 60.152 11.8524 58.9184 12.3285C57.1062 13.029 56.0844 14.7574 56.807 16.4803C58.241 19.8883 63.8047 17.5135 64.8434 19.9911C65.2415 20.9405 64.8914 21.9521 63.2316 22.5931C62.2239 22.9826 61.1654 22.9718 60.231 22.6445L59.7427 23.8454C60.9819 24.3377 62.4187 24.3945 63.768 23.8725C66.3677 22.869 66.8787 20.9567 66.2379 19.4339C64.77 15.9367 59.1668 18.2114 58.2099 15.934ZM82.339 9.90771L85.3452 10.2242L84.1314 20.8134L85.6331 20.9703L86.8497 10.381L89.856 10.6975L90.0112 9.34511L82.497 8.55261L82.339 9.90771Z" fill="white"/>
</g>
</g>
</g>
</svg>
