<svg width="195" height="73" viewBox="0 0 195 73" fill="none" xmlns="http://www.w3.org/2000/svg">
<path d="M54.4476 0.666414C54.7188 0.553235 54.8092 0.477783 54.8866 0.477783C56.1132 0.502934 57.3398 0.515509 58.5664 0.590961C59.0828 0.616112 59.5993 0.716715 60.0899 0.855044C61.4327 1.25746 62.2848 2.06228 62.7109 3.19406C63.0724 4.16236 63.137 5.15582 63.137 6.16185C63.137 11.2297 63.0982 16.3102 63.0982 21.378C63.0982 22.0948 63.1628 22.8242 63.3048 23.5284C63.6276 25.05 64.9058 26.1315 66.6876 26.3453C68.1337 26.5214 69.5926 26.6345 71.0516 26.6597C73.5048 26.71 75.9708 26.6597 78.424 26.71C79.444 26.7226 80.3736 26.4585 81.3291 26.2321C81.8197 26.119 82.1296 25.8171 82.3749 25.465C82.7364 24.9369 82.9301 24.3584 82.9559 23.7548C82.9817 22.9122 82.9946 22.0823 82.9946 21.2397C83.0075 19.1271 83.0075 17.0018 83.0204 14.8892C83.0204 14.776 83.085 14.6628 83.1366 14.4993C83.7435 14.1221 84.4665 14.2227 85.1508 14.2227C85.706 14.2227 86.2741 14.2604 86.8293 14.2855C87.8364 14.3484 88.7918 14.5245 89.644 15.0023C90.4186 15.4425 91.0126 15.9958 91.2191 16.7755C91.4128 17.5174 91.5677 18.2719 91.6194 19.0139C91.6969 19.9696 91.6452 20.9253 91.6581 21.8936C91.6581 22.5727 91.7743 23.2392 92.0326 23.8931C92.4586 25.0123 93.3624 25.7165 94.6277 26.1064C94.9376 26.207 95.2604 26.295 95.5832 26.3202C97.3262 26.4082 99.0434 26.7477 100.799 26.6974C102.826 26.6471 104.866 26.6723 106.894 26.6597C107.229 26.6597 107.552 26.6597 107.888 26.6345C108.43 26.5968 108.624 26.4208 108.649 25.9429C108.714 24.9494 108.791 23.9434 108.804 22.95C108.83 20.6738 108.83 18.3977 108.843 16.1215C108.843 15.7317 108.766 15.3167 109.05 14.8892C109.269 14.8389 109.54 14.7382 109.811 14.7508C111.09 14.776 112.355 14.8389 113.633 14.8892C114.963 14.952 115.841 15.5053 116.254 16.5743C116.306 16.7252 116.396 16.8635 116.461 16.9767C116.887 17.1779 117.158 17.0018 117.339 16.7629C118.307 15.5179 119.56 14.4867 120.851 13.5059C122.762 12.0471 124.918 10.9656 127.41 10.2991C129.656 9.69553 131.89 9.89673 134.149 9.95961C136.874 10.5507 139.224 11.6699 141.031 13.5184C143.833 16.373 145.331 19.6678 145.679 23.3524C145.782 24.4213 145.821 25.5028 145.821 26.5842C145.834 28.1184 145.46 29.6023 144.775 31.0233C144.517 31.5641 144.039 32.042 143.613 32.5198C143.252 32.9222 142.697 33.0731 142.116 33.1234C141.651 33.1612 141.173 33.1612 140.695 33.1612C127.177 33.1612 113.659 33.1612 100.141 33.1612C98.8239 33.1612 97.4941 33.1486 96.1771 33.1486C93.6207 33.1486 91.2191 32.6707 88.9984 31.5641C88.7143 31.4258 88.4174 31.3126 88.1075 31.1868C87.6943 31.3377 87.2941 31.4509 86.9326 31.6395C84.9571 32.6833 82.8009 33.136 80.4898 33.136C76.1 33.136 71.6972 33.1737 67.3073 33.136C65.177 33.1109 63.0853 32.809 61.1874 31.8785C60.6193 31.6018 59.9866 31.4383 59.341 31.1994C58.8375 31.4006 58.2952 31.5641 57.8304 31.8156C56.139 32.7084 54.2669 33.0606 52.3044 33.136C50.8841 33.1863 49.4639 33.1612 48.0565 33.1612C37.1335 33.1612 26.2234 33.1612 15.3005 33.1612C14.3579 33.1612 13.4154 33.1612 12.46 33.1486C10.0972 33.1109 7.86352 32.6078 5.88808 31.5138C5.07467 31.0611 4.32581 30.47 3.71898 29.8161C2.55696 28.546 1.70481 27.0998 1.25291 25.5405C0.981773 24.6225 0.839748 23.6416 0.813926 22.6985C0.76228 20.9882 0.684812 19.2654 1.08506 17.5677C1.3562 16.4108 1.75645 15.3293 2.51822 14.3484C3.70607 12.8016 5.37163 11.9465 7.57947 11.9088C8.80605 11.8836 10.0326 11.8962 11.2721 11.8962C11.4916 11.8962 11.7111 11.9465 11.8919 11.9717C12.0597 12.3364 11.7886 12.4747 11.6078 12.6382C9.63237 14.4867 8.3025 16.612 7.79896 19.0767C7.42453 20.8876 7.68276 22.6859 8.54782 24.3584C9.15465 25.5279 10.2134 26.3956 11.8789 26.4585C12.3954 26.4836 12.9119 26.5214 13.4412 26.5214C25.5004 26.5214 37.5467 26.5214 49.6059 26.5214C50.2256 26.5214 50.8325 26.5214 51.4522 26.4836C53.1823 26.383 54.2023 25.5279 54.3831 24.0566C54.4218 23.7422 54.4089 23.4153 54.4089 23.1009C54.4089 16.109 54.4218 9.11706 54.4218 2.12516C54.4089 1.60957 54.4347 1.1317 54.4476 0.666414ZM118.191 26.5591C118.475 26.6094 118.733 26.6848 119.004 26.6848C124.672 26.6974 130.328 26.6974 135.996 26.6848C136.59 26.6848 137.222 26.7351 137.752 26.5339C137.829 26.4208 137.919 26.3579 137.919 26.2824C138.113 24.6476 138.087 23.0003 137.532 21.4158C137.235 20.5481 136.719 19.6804 135.931 19.0516C134.408 17.8318 132.51 17.203 130.431 17.1024C128.029 16.9892 125.873 17.7563 124.027 18.9887C121.574 20.6109 119.74 22.6733 118.527 25.1129C118.32 25.5656 118.062 25.9932 118.191 26.5591Z" fill="white"/>
<path d="M169.733 26.3704C169.642 25.8799 169.604 25.5153 169.5 25.1757C168.764 22.7613 168.894 20.3719 169.552 17.9449C170.107 15.8825 171.334 14.1723 173.025 12.6884C174.6 11.3051 176.615 10.5254 178.771 9.9721C180.333 9.9218 181.882 9.89665 183.445 9.8212C184.955 9.75832 186.35 10.1985 187.667 10.6763C189.048 11.1793 190.236 11.9967 191.23 12.9902C192.87 14.6501 193.903 16.549 194.471 18.6365C194.858 20.045 194.949 21.4786 194.962 22.9247C194.987 25.8799 195 28.8352 195.013 31.7904C195.013 32.1802 195.013 32.5826 194.819 32.9221C194.355 33.224 193.864 33.1359 193.399 33.1485C187.395 33.1485 181.392 33.1485 175.401 33.1611C170.675 33.1611 165.95 33.1611 161.224 33.1611C159.572 33.1611 159.533 33.1862 159.52 34.5444C159.507 36.3804 159.52 38.2164 159.52 40.0524C159.52 41.4105 159.442 42.7687 159.507 44.1268C159.597 45.9125 157.841 47.6605 155.814 48.2264C154.949 48.4653 154.071 48.5659 153.167 48.5533C152.135 48.5408 151.089 48.5408 150.043 48.5533C149.681 48.5533 149.32 48.6288 149.023 48.6539C148.687 49.1066 148.791 49.5216 148.791 49.9115C148.791 55.8596 148.791 61.8203 148.791 67.7685C148.791 69.1644 148.791 70.5602 148.765 71.9687C148.765 72.283 148.7 72.5849 148.649 72.9747C146.97 72.9998 145.369 73.0627 143.768 72.9244C142.387 72.7986 140.579 71.6543 140.321 70.1201C140.179 69.2901 140.075 68.4476 140.075 67.6176C140.062 61.7449 140.075 55.8722 140.075 49.9995C140.075 49.6097 140.075 49.2072 140.075 48.9054C139.598 48.4779 139.107 48.5659 138.642 48.5659C136.228 48.5659 133.826 48.5785 131.412 48.5659C130.947 48.5659 130.495 48.5282 130.069 48.5156C129.708 47.2832 129.669 45.2083 130.237 44.328C130.908 43.2842 131.799 42.3662 133.31 42.0644C134.614 41.8004 135.944 41.8255 137.261 41.8129C140.282 41.8004 143.303 41.8255 146.337 41.8004C147.035 41.8004 147.745 41.7123 148.442 41.5866C148.894 41.5111 149.32 41.2973 149.733 41.1213C150.366 40.8446 150.727 40.4171 150.766 39.7883C150.869 38.2793 151.089 36.7576 151.102 35.2486C151.166 28.9358 151.179 22.6229 151.218 16.3227C151.218 15.8448 151.218 15.3669 151.27 14.8891C151.308 14.5118 151.566 14.2855 152.005 14.2855C153.606 14.2729 155.207 14.1723 156.808 14.4741C158.151 14.7382 159.404 15.4927 159.636 16.9892C159.726 17.5802 159.765 18.1838 159.778 18.7749C159.817 20.8875 159.83 23.0128 159.856 25.1254C159.868 26.4961 159.868 26.5087 161.534 26.5213C163.897 26.5339 166.26 26.5213 168.622 26.5087C168.919 26.4836 169.242 26.4207 169.733 26.3704ZM186.969 26.471C187.008 26.1817 187.073 25.9554 187.073 25.7165C187.073 24.3206 187.06 22.9247 187.047 21.5289C187.047 20.3971 186.776 19.3156 186.337 18.2467C185.652 16.5993 184.297 15.719 182.218 15.6687C181.74 15.6562 181.275 15.6687 180.798 15.6687C179.674 15.6813 178.835 16.134 178.125 16.8383C177.35 17.6054 177.066 18.5234 176.95 19.4917C176.86 20.3216 176.86 21.1642 176.873 22.0067C176.886 23.6164 177.764 24.811 179.39 25.6536C180.307 26.1189 181.288 26.3201 182.347 26.383C183.096 26.4333 183.845 26.5464 184.581 26.6219C185.343 26.6848 186.091 26.7351 186.969 26.471Z" fill="white"/>
<path d="M99.2624 42.5172C99.5335 42.3915 99.6497 42.316 99.7788 42.2909C102.8 41.6244 105.86 41.1465 108.998 41.1465C110.418 41.1465 111.838 41.0962 113.245 41.1591C114.885 41.2345 116.499 41.4609 118.1 41.8633C120.088 42.3663 121.844 43.1837 123.458 44.2149C124.465 44.8562 125.343 45.661 126.144 46.491C128.223 48.654 129.294 51.1816 129.694 53.9356C130.082 56.589 129.798 59.1921 129.036 61.7701C128.468 63.7067 127.332 65.4044 125.976 66.9889C125.266 67.8188 124.465 68.6362 123.587 69.3279C122.8 69.9441 121.87 70.4471 120.941 70.9124C118.746 72.019 116.331 72.5598 113.801 72.6604C111.167 72.761 108.52 72.7232 105.899 72.3585C103.949 72.0819 102.297 71.3525 101.031 70.1076C99.8692 68.9632 99.2882 67.5548 99.2624 66.0331C99.2365 64.7505 99.2236 63.4803 99.2236 62.1977C99.2236 56.325 99.2236 50.4648 99.2236 44.5921C99.2236 43.9005 99.2495 43.234 99.2624 42.5172ZM108.404 47.5725C108.287 47.9246 108.158 48.2138 108.107 48.5157C108.055 48.8678 108.081 49.2324 108.081 49.5971C108.068 54.3758 108.042 59.167 108.029 63.9456C108.029 64.1468 108.016 64.348 108.029 64.5492C108.081 65.2157 108.481 65.6685 109.23 65.8822C109.591 65.9828 109.966 66.0834 110.327 66.0834C111.27 66.0834 112.212 66.0583 113.155 65.9954C114.666 65.8948 115.983 65.3792 117.119 64.5618C117.79 64.0714 118.474 63.5432 118.952 62.927C120.088 61.4431 120.915 59.8335 120.876 58.0101C120.863 57.4064 120.837 56.8154 120.85 56.2118C120.876 54.3255 120.23 52.5901 119.094 50.993C118.061 49.5343 116.499 48.5785 114.614 48.0504C112.664 47.4845 110.637 47.4971 108.404 47.5725Z" fill="white"/>
<path d="M73.7109 60.5629C73.6076 60.8144 73.5043 61.003 73.4785 61.1791C73.4397 61.6569 73.4139 62.1348 73.4139 62.6127C73.4268 65.5301 73.4397 68.4476 73.4526 71.3651C73.4526 71.5286 73.4656 71.6795 73.4397 71.843C73.401 72.2328 73.1815 72.3837 72.6909 72.3837C71.658 72.3711 70.6122 72.3586 69.5792 72.3334C66.6742 72.2705 65.0732 70.7741 64.7762 68.4602C64.7375 68.1835 64.7633 67.9069 64.7633 67.6177C64.7633 59.582 64.7633 51.5589 64.7633 43.5233C64.7633 43.1334 64.802 42.731 64.8279 42.3034C65.1377 42.2154 65.396 42.1148 65.6542 42.0645C67.2552 41.7376 68.8691 41.4609 70.5089 41.2597C73.1428 40.9453 75.7638 40.7441 78.4106 40.9956C79.3144 40.807 80.1795 41.0459 81.0703 41.1214C82.6455 41.2723 84.1303 41.6873 85.5248 42.2783C87.0096 42.9071 88.249 43.8754 89.1657 45.0575C91.6318 48.239 91.5414 51.5086 89.6177 54.8411C89.0237 55.8723 88.1328 56.6771 87.1258 57.419C86.8546 57.6202 86.4802 57.746 86.1574 57.9095C85.8863 58.0478 85.6151 58.1987 85.3053 58.3622C85.4086 58.5634 85.4473 58.7394 85.5635 58.8275C87.1387 60.0724 87.8875 61.7198 88.7268 63.3295C89.5789 64.9768 90.3407 66.6494 91.1799 68.2967C91.3865 68.6991 91.7093 69.0513 91.9804 69.4159C92.1999 69.7177 92.4581 70.007 92.626 70.3339C93.0004 71.0633 92.7293 71.6544 91.903 72.0442C91.1799 72.3837 90.3794 72.4969 89.5789 72.5472C87.9521 72.6478 86.364 72.5346 84.9696 71.7047C84.2594 71.2897 83.6784 70.7741 83.2653 70.1327C83.0458 69.7806 82.8392 69.4159 82.6584 69.0512C81.8579 67.429 81.0187 65.8194 80.2698 64.1846C79.96 63.5055 79.5081 62.9019 79.0562 62.2983C78.5268 61.5941 77.7521 61.1539 76.7709 61.003C75.8283 60.8773 74.8471 60.7389 73.7109 60.5629ZM73.6334 54.1746C73.9562 54.2626 74.2144 54.3758 74.4856 54.3884C75.7509 54.4261 77.0291 54.4512 78.2944 54.4512C78.6688 54.4512 79.0433 54.3632 79.4048 54.2626C80.7863 53.8728 81.8321 53.156 82.1162 51.8985C82.6197 49.6852 81.4448 47.6354 78.2298 47.5599C76.9516 47.5348 75.6863 47.5599 74.4081 47.5725C74.137 47.5725 73.8787 47.6606 73.6463 47.6983C73.3752 48.8678 73.3623 52.9296 73.6334 54.1746Z" fill="white"/>
<path d="M48.4699 41.2472C50.4583 41.0837 52.24 41.0585 53.9701 41.5238C54.9256 41.7753 55.6744 42.2783 56.1522 43.1083C56.901 44.4036 57.1721 45.7491 57.1721 47.1702C57.1721 49.8487 57.198 52.5147 57.1592 55.1932C57.1334 57.1927 57.1205 59.1922 56.9656 61.1791C56.7719 63.7822 55.7906 66.1967 54.0476 68.3345C52.537 70.1957 50.3937 71.428 47.8631 72.1574C44.6611 73.0754 41.3816 73.2263 38.0763 72.7485C35.8555 72.4341 33.8672 71.6418 32.1112 70.422C29.8259 68.8249 28.3928 66.7752 27.4631 64.4236C26.6885 62.4618 26.5723 60.4372 26.5723 58.4C26.5723 53.1309 26.5852 47.8618 26.5852 42.5927C26.5852 42.2029 26.611 41.8005 26.6239 41.4358C26.8176 41.3478 26.9338 41.2472 27.0629 41.2346C28.5219 41.0837 29.9938 41.1466 31.4269 41.4106C32.4211 41.5993 33.2216 42.0771 33.8155 42.7939C34.5902 43.7245 35.1196 44.7305 35.1841 45.8875C35.2358 46.7678 35.3262 47.6355 35.3262 48.5157C35.3262 51.7853 35.3003 55.0675 35.3003 58.3371C35.3003 59.7833 35.5069 61.2168 36.075 62.575C36.5915 63.8074 37.4694 64.9014 38.9155 65.417C40.878 66.1212 42.9826 66.2721 44.9709 65.505C46.559 64.9014 47.4628 63.7068 47.9018 62.2858C48.2762 61.0408 48.4312 59.7707 48.4183 58.488C48.4053 53.2189 48.4053 47.9498 48.4053 42.6808C48.4441 42.228 48.457 41.8005 48.4699 41.2472Z" fill="white"/>
<path d="M172.573 72.2203C172.328 72.2832 172.16 72.3712 171.979 72.3586C170.701 72.346 169.423 72.3712 168.158 72.2832C166.35 72.1574 165.098 71.34 164.439 69.8939C164.155 69.2525 163.987 68.5986 163.987 67.9069C164 67.1524 163.987 66.3853 163.987 65.6308C163.987 58.1233 163.987 50.6158 163.987 43.1083C163.987 42.5173 164.039 41.9262 164.065 41.2849C164.413 41.222 164.672 41.1466 164.943 41.134C166.169 41.0585 167.396 41.1717 168.61 41.3729C170.792 41.7376 171.954 42.8191 172.444 44.6299C172.638 45.3216 172.651 46.051 172.664 46.7677C172.69 48.1636 172.664 49.5595 172.677 50.9553C172.677 51.3452 172.728 51.7476 172.754 52.0871C173.09 52.2883 173.258 52.2003 173.413 52.0117C175.62 49.4715 177.79 46.9187 180.075 44.4162C180.992 43.4227 181.986 42.4418 183.341 41.8005C183.806 41.5867 184.271 41.4232 184.8 41.3729C187.344 41.0837 189.887 41.1088 192.431 41.1717C192.521 41.1717 192.599 41.2346 192.715 41.2723C193.064 41.9262 192.844 42.4796 192.302 43.0077C190.559 44.6802 188.816 46.3653 187.099 48.063C186.298 48.8553 185.575 49.6852 184.813 50.5026C184.258 51.0937 183.677 51.6721 183.122 52.2758C182.166 53.3069 181.224 54.3633 180.268 55.3945C179.959 55.734 179.972 56.0609 180.23 56.3879C180.798 57.1173 181.366 57.8592 181.96 58.576C183.096 59.9467 184.232 61.3175 185.42 62.663C186.892 64.323 188.441 65.9326 190.494 67.1273C191.308 67.6051 192.173 68.0075 193.128 68.2465C193.257 68.2716 193.361 68.3722 193.516 68.4603C193.567 68.9004 193.374 69.3028 193.18 69.6926C193.038 69.9819 192.805 70.246 192.663 70.5478C192.186 71.5915 191.166 72.082 189.991 72.3209C187.499 72.8239 185.201 72.5095 183.251 71.0131C182.593 70.51 181.96 69.9567 181.392 69.3783C180.436 68.3974 179.533 67.3788 178.616 66.3727C176.834 64.3607 175.052 62.3486 173.464 60.236C173.348 60.0851 173.154 59.9845 172.896 59.7833C172.78 60.0222 172.677 60.1605 172.664 60.2863C172.638 61.0785 172.625 61.8833 172.625 62.6756C172.625 65.744 172.638 68.8249 172.638 71.8933C172.651 71.9562 172.612 72.0317 172.573 72.2203Z" fill="white"/>
<path d="M23.4603 41.2723C23.6927 42.6053 23.6411 43.7873 23.2666 44.9569C22.8018 46.3779 21.2137 47.4468 19.419 47.5474C18.5669 47.5977 17.7147 47.6228 16.8755 47.6228C14.7451 47.6228 12.6277 47.5977 10.4973 47.5851C10.0325 47.5851 9.55477 47.5851 9.05123 47.5851C8.96085 47.8115 8.81883 47.9875 8.80592 48.1762C8.793 49.811 8.793 51.4457 8.793 53.0931C8.793 53.1686 8.85756 53.244 8.89629 53.3195C9.32237 53.6842 9.86465 53.5584 10.3682 53.5584C12.6793 53.5584 15.0034 53.5458 17.3145 53.5458C18.257 53.5458 19.1995 53.5458 20.155 53.5584C21.2137 53.571 21.3557 53.6842 21.3687 54.6147C21.3816 55.1681 21.3557 55.7339 21.3428 56.2873C21.2654 58.249 19.3545 59.7203 17.1079 59.7706C14.9388 59.8209 12.7568 59.7832 10.5877 59.7958C10.1229 59.7958 9.65806 59.8084 9.27072 59.8209C8.793 60.2234 8.89629 60.6383 8.89629 61.0282C8.89629 63.1911 8.92212 65.3415 8.92212 67.5045C8.92212 68.6992 8.92212 69.9064 8.90921 71.101C8.90921 71.4532 8.85756 71.8053 8.81883 72.2077C8.50896 72.2831 8.25073 72.3837 7.9925 72.3837C6.71428 72.3837 5.43606 72.3963 4.17074 72.3209C3.57682 72.2831 2.96999 72.1071 2.40189 71.931C1.25278 71.5538 0.581391 70.7867 0.361898 69.7806C0.168228 68.9255 0.026203 68.0452 0.026203 67.165C0.000380266 60.5755 0.000380266 53.986 0.026203 47.3965C0.026203 46.403 0.129494 45.397 0.374809 44.4161C0.787972 42.6933 1.65303 41.8885 3.98998 41.4986C5.46188 41.2471 6.99833 41.1968 8.49604 41.1842C12.2274 41.1465 15.9588 41.1842 19.6902 41.1842C20.5423 41.1842 21.3945 41.1591 22.2466 41.1717C22.6081 41.1591 22.9826 41.222 23.4603 41.2723Z" fill="white"/>
<path d="M36.5783 13.2544C36.6945 13.3802 36.7462 13.4053 36.7591 13.443C37.0689 15.7192 35.9586 15.8827 34.2672 15.8575C32.1497 15.8324 30.0194 15.8575 27.9019 15.8449C27.5791 15.8449 27.2434 15.8324 26.9206 15.7946C26.133 15.694 25.6682 15.3042 25.5004 14.6503C25.4617 14.4994 25.41 14.3359 25.4229 14.1724C25.4487 13.8958 25.5004 13.6191 25.552 13.3047C26.0556 13.2293 26.5591 13.1538 27.1143 13.0658C27.153 12.8017 27.1918 12.5753 27.2176 12.349C27.2951 11.7957 27.3596 11.2424 27.4371 10.689C27.7341 8.63926 30.3292 7.15536 32.9115 7.60808C33.6474 7.73383 34.3576 7.90988 34.9773 8.33745C36.0231 9.06682 36.3459 10.0728 35.7649 11.104C35.61 11.3933 35.4034 11.6573 35.1968 11.934C35.1193 12.0346 34.9902 12.0975 34.8482 12.1981C34.3576 11.9214 34.1768 11.4436 33.9186 11.0537C33.57 10.5381 33.0664 10.2112 32.4209 10.0225C31.6462 9.78361 30.8328 10.1357 30.7166 10.8399C30.6004 11.5442 30.5487 12.261 30.807 12.9778C31.7624 13.355 32.7695 13.1412 33.7507 13.1915C34.732 13.2418 35.7133 13.0909 36.5783 13.2544Z" fill="white"/>
<path d="M96.6803 7.67086C96.7061 9.43141 94.8081 11.3303 92.1742 11.3177C89.5274 11.3177 87.9006 9.34339 87.8102 7.67086C87.7198 5.87259 90.0438 3.68447 92.0193 3.89825C94.821 3.6719 96.719 6.02349 96.6803 7.67086Z" fill="white"/>
<path d="M82.4265 3.84797C84.4019 3.79767 86.8034 5.40732 86.7388 7.67088C86.6743 10.1357 84.2211 11.3303 82.3877 11.3177C79.8442 11.3052 78.0237 9.43143 77.9591 7.69603C77.9075 6.11154 79.6376 3.77252 82.4265 3.84797Z" fill="white"/>
<path d="M182.193 7.29366C181.883 7.29366 181.689 7.29366 181.508 7.29366C180.204 7.33139 179.288 6.75292 178.577 5.91037C176.951 3.99892 177.854 1.50899 180.14 0.377211C181.082 -0.0880777 182.193 -0.0880778 183.161 0.138279C184.607 0.477814 185.782 1.21976 186.208 2.54017C186.453 3.28212 186.453 4.03664 186.273 4.79116C185.963 6.13673 184.233 7.30624 182.632 7.31881C182.438 7.31881 182.257 7.30624 182.193 7.29366Z" fill="white"/>
<path d="M130.224 0.100531C132.626 0.150832 134.511 1.78563 134.472 3.78511C134.421 5.9355 132.574 7.41939 130.018 7.36909C127.578 7.31879 125.873 5.74687 125.951 3.60906C126.002 1.63473 127.939 0.0502291 130.224 0.100531Z" fill="white"/>
</svg>
