<svg width="223" height="240" viewBox="0 0 223 240" fill="none" xmlns="http://www.w3.org/2000/svg">
<g clip-path="url(#clip0_360_151)">
<path d="M134.625 207.001H129.796H97.6252V184.396H122.92C129.386 184.396 134.642 189.466 134.642 195.706V207.001H134.625ZM204.074 206.953H190.453H162.654V188.092C162.654 186.023 164.389 184.348 166.534 184.348H186.54V175.96H166.534C159.592 175.96 153.96 181.41 153.96 188.092V207.016H143.319V195.706C143.319 184.854 134.167 176.007 122.903 176.007H97.6252V149.769L91.6003 152.77L88.9317 154.097V176.023V207.016H78.5193V203.841V188.376V184.411V176.023H69.8259H65.7166H52.2917H51.5386V210.271C51.5386 218.801 47.151 226.747 39.8164 231.533L44.6788 238.484C54.42 232.133 60.232 221.597 60.232 210.271V184.411H69.8259V203.841V215.405H95.7424H129.796H212.751V175.834L204.058 180.146V206.953H204.074Z" fill="#231F20"/>
<path d="M21.4307 211.392C14.4072 211.392 8.69341 205.879 8.69341 199.102C8.69341 192.325 14.4072 186.812 21.4307 186.812C28.4542 186.812 34.1679 192.325 34.1679 199.102C34.1679 205.863 28.4542 211.392 21.4307 211.392ZM21.4307 178.408C9.61023 178.408 0 187.681 0 199.086C0 210.492 9.61023 219.764 21.4307 219.764C33.2511 219.764 42.8613 210.492 42.8613 199.086C42.8613 187.681 33.2511 178.408 21.4307 178.408Z" fill="#231F20"/>
<path d="M214.667 153.876L206.399 161.854L198.131 153.876L189.798 161.917L198.131 169.957L206.399 161.964L214.667 169.957L223 161.917L214.667 153.876Z" fill="#231F20"/>
<path d="M80.7782 231.896L72.5105 223.919L64.1772 231.959L72.5105 240L80.7782 232.023L89.046 240L97.3792 231.959L89.046 223.919L80.7782 231.896Z" fill="#231F20"/>
<path d="M21.4306 163.733L29.6983 171.711L38.0316 163.67L29.6983 155.63L21.4306 163.607L13.1628 155.63L4.82959 163.67L13.1628 171.711L21.4306 163.733Z" fill="#231F20"/>
<path d="M93.3139 0.0044236L75.0693 17.6082L93.3139 35.2119L111.558 17.6082L93.3139 0.0044236Z" fill="#231F20"/>
<path d="M165.977 45.4949H57.0063V67.7841H165.977V45.4949Z" fill="#231F20"/>
<path d="M129.64 0.00100166L111.396 17.6047L129.64 35.2085L147.885 17.6047L129.64 0.00100166Z" fill="#231F20"/>
<path d="M123.656 67.7837V120.308H100.555V79.2837L123.656 67.7837Z" fill="#231F20"/>
</g>
<defs>
<clipPath id="clip0_360_151">
<rect width="223" height="240" fill="white"/>
</clipPath>
</defs>
</svg>
