<svg width="225" height="44" viewBox="0 0 225 44" fill="none" xmlns="http://www.w3.org/2000/svg">
<g id="Group 309">
<g id="card6">
<path id="Vector" d="M30.1851 30.5437C30.1851 38.6792 25.4857 42.8248 13.4617 42.8248H0.946712C0.303179 42.8248 0.0576172 42.6594 0.0576172 42.202C0.0576172 41.7447 0.506398 41.5208 0.997515 41.2386C1.93741 40.7228 1.98822 39.5356 1.98822 37.2584V7.17825C1.98822 4.79403 1.93741 3.7041 0.997515 3.19806C0.49793 2.91585 0.0576172 2.6823 0.0576172 2.29304C0.0576172 1.83565 0.260843 1.61182 0.895909 1.61182H13.4617C20.3374 1.61182 27.0691 3.77221 27.0691 11.6158C27.0691 16.793 23.953 19.1772 19.9479 20.199C25.8836 21.2695 30.1851 24.2863 30.1851 30.5437ZM13.4617 3.92792H9.99852V19.2259H13.3178C17.1282 19.2259 20.6422 16.7833 20.6422 11.6061C20.6422 6.48733 18.1612 3.92792 13.4617 3.92792ZM21.9716 30.5437C21.9716 25.5417 19.7447 21.1041 13.3093 21.1041H9.99004V38.7279C9.99004 40.0903 10.2356 40.4893 11.1755 40.4893H13.5464C20.3882 40.499 21.9716 35.7208 21.9716 30.5437Z" fill="white"/>
<path id="Vector_2" d="M59.9821 23.4884C59.8805 24.1696 59.5842 24.5102 58.9914 24.5102H41.2265C41.2773 25.3081 41.3705 26.1061 41.4721 26.8944C42.8608 37.4142 51.1674 41.0538 58.1447 36.5578C58.6866 36.2172 59.0338 36.2172 59.2793 36.441C59.5249 36.7232 59.5249 37.1806 59.1777 37.745C57.8906 39.6232 54.5798 43.545 48.4409 43.545C40.329 43.545 34.4864 37.1222 33.8936 27.8481C33.2501 18.0679 38.8895 9.7669 47.6026 9.65012C58.1023 9.56254 60.524 19.3427 59.9821 23.4884ZM50.2783 22.1843C52.9033 22.1843 53.3436 21.6783 53.2504 19.0605C53.098 15.6448 51.3198 11.1585 47.611 11.1585C43.8515 11.1585 41.4721 16.3357 41.2265 22.1941H50.2783V22.1843Z" fill="white"/>
<path id="Vector_3" d="M94.1229 41.7445C94.1229 42.2019 93.8265 42.3673 93.183 42.3673C91.354 42.4257 87.1964 42.6495 85.5622 42.8831C84.9187 42.9998 84.6731 42.6592 84.6731 41.9196V37.5988C83.0389 41.1217 80.2192 43.574 75.8161 43.574C68.1953 43.574 63.3434 36.5186 63.5974 25.2106C63.8938 14.7492 69.9819 8.77405 77.8483 9.85425C81.2607 10.3116 83.3861 12.3553 84.6816 15.0898V9.45526C84.6816 7.46029 84.5292 6.33144 83.6401 5.87406C83.0982 5.65024 82.751 5.41669 82.751 4.91065C82.751 4.45327 83.0474 4.17106 83.5893 3.94724C84.978 3.66502 88.3396 2.75025 91.2609 1.04723C91.7605 0.765018 92.15 0.98883 92.15 1.61165V37.3264C92.15 39.37 92.3024 40.4502 93.2423 40.8492C93.7757 41.1217 94.1229 41.2871 94.1229 41.7445ZM84.7747 27.5267V24.9089C84.58 16.4328 81.6587 12.3455 77.5519 12.5694C73.4452 12.7348 71.2182 19.1089 71.3198 27.0109C71.4214 35.5941 74.6814 40.1485 78.4918 39.915C82.2006 39.7593 84.5715 35.4871 84.7747 27.5267Z" fill="white"/>
<path id="Vector_4" d="M127.628 42.202C127.628 42.6594 127.383 42.8832 126.739 42.8248C125.799 42.7664 123.573 42.6496 121.151 42.6496C118.822 42.6496 118.035 42.7664 117.239 42.8248C116.646 42.8832 116.35 42.601 116.35 42.202C116.35 41.803 116.646 41.6959 116.993 41.1802C117.442 40.6157 117.044 39.5842 116.595 37.706L113.826 28.0426C113.039 28.101 112.294 28.101 111.549 28.101H107.493V37.7157C107.493 39.7107 107.594 40.8979 108.534 41.2969C109.076 41.5791 109.423 41.7543 109.423 42.202C109.423 42.6594 109.178 42.8832 108.483 42.8248C107.594 42.7664 105.858 42.6496 103.488 42.6496C101.066 42.6496 99.3808 42.7664 98.4917 42.8248C97.7973 42.8832 97.5518 42.6496 97.5518 42.202C97.5518 41.803 97.8481 41.5792 98.2969 41.3456C98.3477 41.2872 98.4493 41.2872 98.5001 41.2288C99.44 40.7228 99.4908 39.5258 99.4908 37.2486V7.16849C99.4908 4.78426 99.44 3.69433 98.5001 3.18829C98.0005 2.90608 97.5602 2.6725 97.5602 2.28324C97.5602 1.94264 97.6618 1.71883 98.1021 1.66044L98.0513 1.60205H109.779C118.492 1.60205 127.146 4.10303 127.146 14.9634C127.146 21.9604 124.123 25.3178 120.27 26.8456L124.081 37.706C124.868 40.0416 125.613 40.9466 126.799 41.2872C127.332 41.5208 127.628 41.7446 127.628 42.202ZM107.484 25.7654H111.54C116.045 25.7654 118.915 22.301 118.915 14.9634C118.915 7.68424 115.901 3.92787 109.762 3.92787H107.484V25.7654Z" fill="white"/>
<path id="Vector_5" d="M158.95 26.6218C158.95 36.003 153.311 43.5644 144.505 43.5644C135.699 43.5644 130.102 36.003 130.102 26.6218C130.152 17.299 135.69 9.67921 144.505 9.67921C153.311 9.66948 158.95 17.2893 158.95 26.6218ZM137.875 27.9258C139.06 35.8862 142.43 42.5426 147.079 41.6278C151.635 40.606 152.371 33.1517 151.186 25.308C150 17.3476 146.63 10.6913 142.032 11.6061C137.426 12.6279 136.638 20.0822 137.875 27.9258Z" fill="white"/>
<path id="Vector_6" d="M170.788 27.8675C172.177 37.4239 180.932 40.8883 187.071 36.3437C187.562 36.0615 187.91 35.9447 188.206 36.2269C188.451 36.5091 188.401 36.9665 188.054 37.5309C186.961 39.5162 183.498 43.5547 177.418 43.5547C168.959 43.5547 163.32 36.5578 162.769 27.235C162.278 18.5934 167.621 9.83502 176.97 9.65985C189.188 9.37764 189.933 20.9776 185.877 21.2598C179.789 21.6004 184.142 10.7984 176.97 11.139C172.118 11.3823 169.349 19.5665 170.788 27.8675Z" fill="white"/>
<path id="Vector_7" d="M224.471 42.202C224.471 42.6594 224.174 42.8832 223.531 42.8248C222.591 42.7664 220.516 42.6497 218.035 42.6497C215.614 42.6497 213.878 42.7664 212.989 42.8248C212.345 42.8832 212.1 42.6497 212.1 42.202C212.1 41.7446 212.396 41.696 212.845 41.2386C213.387 40.6742 212.845 39.195 212.15 37.7158L204.53 22.1356L201.21 26.9138V37.7158C201.21 39.7107 201.312 40.898 202.252 41.297C202.794 41.5792 203.141 41.7544 203.141 42.202C203.141 42.6594 202.895 42.8832 202.201 42.8248C201.312 42.7664 199.576 42.6497 197.205 42.6497C194.784 42.6497 193.099 42.7664 192.209 42.8248C191.515 42.8832 191.27 42.6497 191.27 42.202C191.27 41.7446 191.617 41.5792 192.108 41.297C193.099 40.898 193.2 39.701 193.2 37.7158V6.72086C193.2 4.73563 193.099 3.53865 192.108 3.13966C191.617 2.85745 191.27 2.68229 191.27 2.23464C191.27 1.78699 191.515 1.55342 192.209 1.61181C193.099 1.67019 194.784 1.77725 197.205 1.77725C199.576 1.77725 201.312 1.66046 202.201 1.61181C202.895 1.55342 203.141 1.77726 203.141 2.23464C203.141 2.69202 202.794 2.85745 202.252 3.13966C201.312 3.53865 201.21 4.73563 201.21 6.72086V23.498L213.04 5.5239C214.919 2.50712 217.79 0.40511 220.313 1.26148C224.174 2.85745 223.184 8.31683 219.272 8.7061C216.647 9.10509 215.063 5.92289 211.846 11.4893L209.221 15.2457L220.5 37.706C221.592 39.8664 222.43 40.8883 223.565 41.2873C224.124 41.5208 224.471 41.7446 224.471 42.202Z" fill="white"/>
</g>
</g>
</svg>
