<svg width="136" height="146" viewBox="0 0 136 146" fill="none" xmlns="http://www.w3.org/2000/svg">
<g clip-path="url(#clip0_122_67)">
<mask id="mask0_122_67" style="mask-type:luminance" maskUnits="userSpaceOnUse" x="-38" y="-34" width="209" height="216">
<path d="M170.481 -33.9868H-37.5332V181.093H170.481V-33.9868Z" fill="white"/>
</mask>
<g mask="url(#mask0_122_67)">
<mask id="mask1_122_67" style="mask-type:luminance" maskUnits="userSpaceOnUse" x="-38" y="-34" width="209" height="216">
<path d="M170.48 -33.9868H-37.5332V181.094H170.48V-33.9868Z" fill="white"/>
</mask>
<g mask="url(#mask1_122_67)">
<path d="M23.4813 84.9448H13.4278C13.1265 84.9448 12.9893 85.1178 12.9893 85.4038V107.564C12.9893 107.854 13.1265 108.027 13.4278 108.027H16.2701C16.5446 108.027 16.7087 107.854 16.7087 107.564V98.3598H21.8442C22.1188 98.3598 22.2828 98.2148 22.2828 97.8968V95.0108C22.2828 94.7208 22.1188 94.5478 21.8442 94.5478H16.7087V88.7488H23.4847C23.7592 88.7488 23.9232 88.5758 23.9232 88.2858V85.4008C23.9199 85.1138 23.7559 84.9448 23.4813 84.9448Z" fill="#00833E"/>
</g>
<mask id="mask2_122_67" style="mask-type:luminance" maskUnits="userSpaceOnUse" x="-38" y="-34" width="209" height="216">
<path d="M170.48 -33.9868H-37.5332V181.094H170.48V-33.9868Z" fill="white"/>
</mask>
<g mask="url(#mask2_122_67)">
<path d="M42.4164 107.507L40.5316 99.9478C41.8439 99.3428 42.5269 98.0738 42.5269 96.1388V89.0988C42.5269 86.3868 41.161 84.9448 38.5932 84.9448H31.7335C31.459 84.9448 31.2949 85.1178 31.2949 85.4038V107.564C31.2949 107.854 31.459 108.027 31.7335 108.027H34.5758C34.8503 108.027 35.0144 107.854 35.0144 107.564V100.291H36.8992L38.7304 107.621C38.784 107.879 38.9213 108.024 39.1958 108.024H42.0381C42.336 108.027 42.4967 107.854 42.4164 107.507ZM38.8108 95.3298C38.8108 96.0788 38.4291 96.4818 37.7194 96.4818H35.0144V88.7488H37.7194C38.4291 88.7488 38.8108 89.1518 38.8108 89.9018V95.3298Z" fill="#00833E"/>
</g>
<mask id="mask3_122_67" style="mask-type:luminance" maskUnits="userSpaceOnUse" x="-38" y="-34" width="209" height="216">
<path d="M170.48 -33.9868H-37.5332V181.094H170.48V-33.9868Z" fill="white"/>
</mask>
<g mask="url(#mask3_122_67)">
<path d="M49.7378 108.027H52.6605C52.9049 108.027 53.0421 107.882 53.0991 107.624L53.8356 103.413H58.7L59.4666 107.624C59.5202 107.886 59.6574 108.027 59.9052 108.027H62.801C63.129 108.027 63.24 107.854 63.183 107.536L58.6464 85.3478C58.5928 85.0578 58.4288 84.9448 58.181 84.9448H54.3846C54.1402 84.9448 53.9762 85.0608 53.9193 85.3478L49.383 107.536C49.3026 107.854 49.4399 108.027 49.7378 108.027ZM56.2694 89.9938L58.017 100.064H54.5185L56.2694 89.9938Z" fill="#00833E"/>
</g>
<mask id="mask4_122_67" style="mask-type:luminance" maskUnits="userSpaceOnUse" x="-38" y="-34" width="209" height="216">
<path d="M170.48 -33.9868H-37.5332V181.094H170.48V-33.9868Z" fill="white"/>
</mask>
<g mask="url(#mask4_122_67)">
<path d="M73.839 108.027C74.14 108.027 74.274 107.854 74.274 107.564V95.3299H74.412L78.593 107.652C78.673 107.91 78.837 108.027 79.085 108.027H81.79C82.065 108.027 82.225 107.854 82.225 107.564V85.4039C82.225 85.1139 82.061 84.9409 81.79 84.9409H78.948C78.647 84.9409 78.513 85.1139 78.513 85.4039V97.5819H78.349L74.197 85.3189C74.117 85.0579 73.953 84.9449 73.705 84.9449H71C70.726 84.9449 70.562 85.1179 70.562 85.4079V107.567C70.562 107.857 70.726 108.031 71 108.031H73.839V108.027Z" fill="#00833E"/>
</g>
<mask id="mask5_122_67" style="mask-type:luminance" maskUnits="userSpaceOnUse" x="-38" y="-34" width="209" height="216">
<path d="M170.48 -33.9868H-37.5332V181.094H170.48V-33.9868Z" fill="white"/>
</mask>
<g mask="url(#mask5_122_67)">
<path d="M97.17 84.9448H94.11C91.542 84.9448 90.149 86.3868 90.149 89.0988V103.872C90.149 106.585 91.542 108.027 94.11 108.027H97.17C99.711 108.027 101.103 106.585 101.103 103.872V100.757C101.103 100.467 100.939 100.294 100.665 100.294H97.933C97.632 100.294 97.498 100.467 97.498 100.757V103.066C97.498 103.844 97.116 104.219 96.406 104.219H94.987C94.277 104.219 93.896 103.844 93.896 103.066V89.9088C93.896 89.1588 94.25 88.7558 94.987 88.7558H96.406C97.116 88.7558 97.498 89.1588 97.498 89.9088V92.2178C97.498 92.5078 97.635 92.6808 97.933 92.6808H100.665C100.939 92.6808 101.103 92.5078 101.103 92.2178V89.1028C101.103 86.3868 99.711 84.9448 97.17 84.9448Z" fill="#00833E"/>
</g>
<mask id="mask6_122_67" style="mask-type:luminance" maskUnits="userSpaceOnUse" x="-38" y="-34" width="209" height="216">
<path d="M170.48 -33.9868H-37.5332V181.094H170.48V-33.9868Z" fill="white"/>
</mask>
<g mask="url(#mask6_122_67)">
<path d="M116.021 84.9448H112.961C110.393 84.9448 109.027 86.3868 109.027 89.0988V103.872C109.027 106.585 110.393 108.027 112.961 108.027H116.021C118.589 108.027 119.955 106.585 119.955 103.872V89.0988C119.955 86.3868 118.589 84.9448 116.021 84.9448ZM116.433 103.151C116.433 103.929 116.051 104.304 115.341 104.304H113.758C113.048 104.304 112.666 103.929 112.666 103.151V89.8208C112.666 89.0708 113.048 88.6678 113.758 88.6678H115.341C116.051 88.6678 116.433 89.0708 116.433 89.8208V103.151Z" fill="#00833E"/>
</g>
<mask id="mask7_122_67" style="mask-type:luminance" maskUnits="userSpaceOnUse" x="-38" y="-34" width="209" height="216">
<path d="M170.48 -33.9868H-37.5332V181.094H170.48V-33.9868Z" fill="white"/>
</mask>
<g mask="url(#mask7_122_67)">
<path d="M41.4385 124.519C40.6752 124.519 40.2031 125.686 40.2031 126.34C40.2031 126.768 40.933 127.284 41.3883 127.284C42.1516 127.284 42.6236 126.117 42.6236 125.463C42.6236 125.035 41.8904 124.519 41.4385 124.519Z" fill="#00833E"/>
</g>
<mask id="mask8_122_67" style="mask-type:luminance" maskUnits="userSpaceOnUse" x="-38" y="-34" width="209" height="216">
<path d="M170.48 -33.9868H-37.5332V181.094H170.48V-33.9868Z" fill="white"/>
</mask>
<g mask="url(#mask8_122_67)">
<path d="M52.4564 122.118C52.4564 122.341 53.1226 122.839 53.3837 122.839C53.4641 122.839 53.5143 122.804 53.6281 122.666C54.0667 122.083 54.5722 121.138 54.5722 120.76C54.5722 119.989 53.0121 118.872 51.8437 118.872C50.7055 118.872 48.3486 120.93 48.3486 122.22C48.3486 123.147 49.517 124.024 49.892 124.264C48.6399 125.141 46.9492 126.616 46.9492 128.108C46.9492 129.257 48.8508 131.06 50.5883 131.06C51.0771 131.06 51.9375 130.905 52.2455 130.597C52.7644 130.084 53.1059 129.413 53.4473 128.811C53.5444 128.638 53.6114 128.486 53.6114 128.348C53.6114 128.143 52.9786 127.627 52.7811 127.627C52.6171 127.627 52.5367 127.729 52.4229 127.867C51.6596 128.879 50.8963 129.84 50.1799 129.84C49.4969 129.84 48.8474 129.084 48.8474 128.536C48.8474 127.436 50.441 126.029 51.8705 125.017C52.0982 124.862 52.2455 124.71 52.2455 124.519C52.2455 124.158 51.6261 123.677 51.1072 123.677C51.0436 123.677 50.9934 123.677 50.9298 123.695C50.8159 123.695 50.2636 123.076 50.2636 122.546C50.2636 121.481 51.8873 120.021 52.376 120.021C52.6539 120.021 53.0255 120.329 53.0255 120.569C53.0255 120.827 52.7811 121.291 52.52 121.856C52.4731 121.962 52.4564 122.03 52.4564 122.118Z" fill="#00833E"/>
</g>
<mask id="mask9_122_67" style="mask-type:luminance" maskUnits="userSpaceOnUse" x="-38" y="-34" width="209" height="216">
<path d="M170.48 -33.9868H-37.5332V181.094H170.48V-33.9868Z" fill="white"/>
</mask>
<g mask="url(#mask9_122_67)">
<path d="M84.897 122.991C84.75 122.991 84.606 123.076 84.539 123.317C84.345 124.02 83.906 126.389 83.401 127.641C83.19 128.171 82.215 129.702 81.563 129.702C81.415 129.702 81.124 129.444 81.124 129.222C81.124 128.5 82.179 124.742 82.279 124.314C82.313 124.211 82.343 124.024 82.343 123.9C82.343 123.592 81.271 122.991 80.96 122.991C80.813 122.991 80.682 123.076 80.602 123.317C80.374 123.964 79.895 125.771 79.554 127.27C78.794 128.698 77.987 129.876 77.529 129.876C77.381 129.876 77.237 129.756 77.237 129.568C77.237 128.589 78.181 125.449 78.181 124.883C78.181 124.162 76.116 123.988 76.116 123.561C76.116 123.115 76.36 122.684 76.36 122.323C76.36 121.927 75.53 121.379 75.061 121.379C74.656 121.379 73.973 122.719 73.973 123.302C73.973 123.886 74.656 124.331 74.656 124.331C74.656 124.331 74.08 125.862 73.521 126.941C73.498 126.98 73.484 127.012 73.484 127.012C73.484 127.015 73.481 127.019 73.481 127.019C73.474 127.033 73.451 127.075 73.421 127.139C72.376 129.229 71.128 129.844 70.267 129.844C69.567 129.844 68.871 129.207 68.871 128.797C68.871 128.249 69.002 127.956 69.002 127.956C69.002 127.956 69.798 128.196 70.528 128.196C71.586 128.196 72.624 125.449 72.624 124.59C72.624 123.851 71.128 122.995 70.301 122.995C69.109 122.995 67.713 125.283 67.177 127.203C66.407 128.663 65.567 129.879 65.115 129.879C64.66 129.879 64.204 129.469 64.204 128.918C64.204 128.521 64.807 126.17 65.342 124.232H66.641C66.903 124.232 67.211 123.546 67.211 123.324C67.211 123.221 67.113 123.168 67.016 123.168H65.62L66.076 121.588C66.109 121.467 66.139 121.28 66.139 121.174C66.139 120.866 65.068 120.212 64.743 120.212C64.613 120.212 64.465 120.35 64.402 120.59C64.288 120.969 64.027 121.962 63.719 123.165H63.263C63.002 123.165 62.711 123.851 62.711 124.056C62.711 124.158 62.808 124.225 62.889 124.225H63.441C63.186 125.251 62.925 126.326 62.718 127.238C61.9545 128.681 61.141 129.876 60.6756 129.876C60.5283 129.876 60.237 129.618 60.237 129.395C60.237 128.023 61.3418 125.173 61.3418 124.572C61.3418 124.144 60.3676 124.024 59.9424 124.024C59.9424 124.024 59.1122 122.995 57.8132 122.995C56.3335 122.995 54.3984 126.789 54.3984 129.055C54.3984 129.982 55.7476 131.064 56.4942 131.064C57.3244 131.064 58.2986 129.932 58.2986 129.932C58.4292 130.413 59.7784 131.064 60.5082 131.064C61.1945 131.064 61.8072 130.526 62.376 129.738C62.701 130.459 63.973 131.064 64.931 131.064C65.751 131.064 66.461 130.318 67.117 129.289C67.622 130.304 69.162 131.064 70.341 131.064C71.656 131.064 73.066 130.003 74.171 127.793C74.174 127.79 74.174 127.786 74.174 127.786C74.971 126.241 75.54 124.834 75.54 124.834C75.54 124.834 76.189 124.971 76.189 125.159C76.189 125.947 75.329 128.401 75.329 129.741C75.329 130.41 76.628 131.064 77.361 131.064C78.051 131.064 78.667 130.519 79.243 129.72C79.524 130.371 80.555 131.064 81.278 131.064C81.897 131.064 82.611 130.307 83.23 129.554C83.23 129.554 82.952 130.618 82.644 131.736C81.084 132.199 79.49 133.33 79.49 134.55C79.49 135.134 80.709 136.216 81.569 136.216C82.202 136.216 83.129 135.908 83.404 135.339C83.551 135.013 83.876 133.864 84.234 132.439C85.014 132.577 85.275 133.005 85.533 133.005C85.778 133.005 86.153 132.524 86.153 132.234C86.153 132.011 85.436 131.615 84.462 131.531C84.673 130.707 84.867 129.847 85.064 129.041C85.68 126.347 86.089 124.749 86.203 124.321C86.236 124.218 86.266 124.031 86.266 123.907C86.276 123.592 85.205 122.991 84.897 122.991ZM70.853 124.331C71.081 124.331 71.342 124.519 71.342 124.759C71.342 125.222 70.676 127.181 69.115 127.181C69.263 126.372 70.22 124.331 70.853 124.331ZM58.4694 128.14C58.0141 129.137 57.2006 129.734 56.8758 129.734C56.598 129.734 56.3067 129.441 56.3067 129.048C56.3067 127.538 57.6056 124.363 58.4192 124.363C58.6803 124.363 59.2963 124.586 59.2963 124.862C59.2997 125.343 58.7941 127.418 58.4694 128.14ZM81.857 134.285C81.697 134.646 81.191 134.868 80.947 134.868C80.736 134.868 80.525 134.61 80.525 134.405C80.525 133.822 81.338 133.065 82.376 132.655C82.165 133.376 81.971 134.013 81.857 134.285Z" fill="#00833E"/>
</g>
<mask id="mask10_122_67" style="mask-type:luminance" maskUnits="userSpaceOnUse" x="-38" y="-34" width="209" height="216">
<path d="M170.48 -33.9868H-37.5332V181.094H170.48V-33.9868Z" fill="white"/>
</mask>
<g mask="url(#mask10_122_67)">
<path d="M91.559 124.519C90.795 124.519 90.323 125.686 90.323 126.34C90.323 126.768 91.053 127.284 91.508 127.284C92.272 127.284 92.744 126.117 92.744 125.463C92.744 125.035 92.014 124.519 91.559 124.519Z" fill="#00833E"/>
</g>
<mask id="mask11_122_67" style="mask-type:luminance" maskUnits="userSpaceOnUse" x="-38" y="-34" width="209" height="216">
<path d="M170.48 -33.9868H-37.5332V181.094H170.48V-33.9868Z" fill="white"/>
</mask>
<g mask="url(#mask11_122_67)">
<path d="M107.454 57.0881C107.454 56.5365 107.029 56.0874 106.507 56.0874C107.019 56.0874 107.437 55.656 107.454 55.1185C107.461 54.9099 107.384 54.7084 107.26 54.5457C106.932 54.1214 106.657 54.0613 106.406 54.0896L99.252 55.0301C97.943 55.2034 96.617 55.1256 95.335 54.8109C94.926 50.6774 92.871 34.3838 85.924 34.3838C78 34.3838 71.83 42.7569 69.362 48.174C66.979 47.6789 64.391 46.894 61.7863 45.6776H63.48C66.239 45.6776 68.472 43.3156 68.472 40.4055V22.6374C68.472 21.8843 67.571 21.5554 67.133 22.1495L66.768 22.6374L66.43 21.81C66.195 21.2337 65.449 21.163 65.117 21.6827L64.515 22.6374L63.504 20.088C63.346 19.692 62.787 19.8087 62.787 20.2401V26.1486C62.787 27.3296 63.293 28.447 64.163 29.1895L62.653 39.5675C62.653 39.5675 54.6756 41.0278 50.3067 35.3067L57.2266 33.7261L58.2678 28.1641H52.7974V20.4734L49.0412 25.0171L47.8494 20.4734C47.8494 20.4734 47.6753 20.5689 47.374 20.7563C35.3118 28.0899 34.9536 42.2371 34.9536 42.2371L37.7858 39.122L35.834 47.7567L39.3124 45.8756L36.4266 50.0197C32.2619 55.9424 25.4893 58.7818 25.4893 58.7818L27.9198 61.0837L25.4893 62.9542L49.3023 67.0205C49.3023 67.0205 51.8098 67.2605 52.553 70.2135C52.553 70.2135 55.4255 70.3015 54.9032 67.4625C54.9032 67.4625 55.7435 68.1165 56.1319 67.7105C56.5169 67.3035 56.0616 65.3374 56.0616 65.3374L56.9119 66.0905C57.2634 62.0136 49.3827 60.9988 49.3827 60.9988L38.4018 58.4635L44.8229 55.2812C47.9398 58.3504 52.0643 60.0936 56.3896 60.0936L73.875 60.1042H73.879C79.322 60.1431 83.497 61.2781 83.557 62.8446C83.621 64.6019 78.482 66.1865 72.081 66.5075C67.324 66.7485 59.617 66.4755 59.617 66.4755C61.2808 70.5915 66.393 73.4525 72.329 73.2085C79.459 72.9145 85.08 68.2515 84.876 62.7915C84.843 61.8686 84.649 60.9599 84.321 60.0936H106.47C106.989 60.0936 107.441 59.6728 107.457 59.1248C107.474 58.559 107.042 58.0923 106.51 58.0923C107.029 58.0887 107.454 57.6397 107.454 57.0881ZM46.7078 29.3699C46.075 29.3699 45.5661 28.8289 45.5661 28.1641H47.8527C47.8527 28.8289 47.3405 29.3699 46.7078 29.3699ZM48.7901 28.1606H51.0767C51.0767 28.8289 50.5644 29.3663 49.935 29.3663C49.3023 29.3699 48.7901 28.8289 48.7901 28.1606ZM81.81 51.4659L86.246 44.4931L90.019 53.4991L81.81 51.4659Z" fill="#00833E"/>
</g>
<mask id="mask12_122_67" style="mask-type:luminance" maskUnits="userSpaceOnUse" x="-38" y="-34" width="209" height="216">
<path d="M170.48 -33.9868H-37.5332V181.094H170.48V-33.9868Z" fill="white"/>
</mask>
<g mask="url(#mask12_122_67)">
<path d="M56.3399 18.5148C59.7815 18.5148 63.849 16.9519 65.202 16.3897C66.809 17.065 72.286 19.2219 76.886 19.2219C80.628 19.2219 83.451 17.4328 83.451 15.0602C83.451 12.6875 80.628 10.8984 76.886 10.8984C74.16 10.8984 71.131 11.655 68.777 12.4117C64.639 13.7342 76.551 17.4469 76.551 17.4469C71.586 17.4469 68.499 15.0319 65.131 13.7024C63.655 13.0977 59.671 11.6055 56.3399 11.6055C53.3403 11.6055 51.0771 13.0906 51.0771 15.0602C51.0771 17.0297 53.3403 18.5148 56.3399 18.5148Z" fill="#00833E"/>
</g>
</g>
</g>
<defs>
<clipPath id="clip0_122_67">
<rect width="136" height="146" fill="white"/>
</clipPath>
</defs>
</svg>
