<svg width="209" height="216" viewBox="0 0 209 216" fill="none" xmlns="http://www.w3.org/2000/svg">
<g clip-path="url(#clip0_337_30)">
<mask id="mask0_337_30" style="mask-type:luminance" maskUnits="userSpaceOnUse" x="0" y="0" width="209" height="216">
<path d="M208.48 0.0134277H0.466797V215.094H208.48V0.0134277Z" fill="white"/>
</mask>
<g mask="url(#mask0_337_30)">
<path d="M61.4813 118.945H51.4278C51.1265 118.945 50.9893 119.118 50.9893 119.404V141.564C50.9893 141.854 51.1265 142.027 51.4278 142.027H54.2701C54.5446 142.027 54.7087 141.854 54.7087 141.564V132.36H59.8442C60.1188 132.36 60.2828 132.215 60.2828 131.897V129.011C60.2828 128.721 60.1188 128.548 59.8442 128.548H54.7087V122.749H61.4847C61.7592 122.749 61.9232 122.576 61.9232 122.286V119.401C61.9199 119.114 61.7559 118.945 61.4813 118.945Z" fill="white"/>
</g>
<mask id="mask1_337_30" style="mask-type:luminance" maskUnits="userSpaceOnUse" x="0" y="0" width="209" height="216">
<path d="M208.48 0.0134277H0.466797V215.094H208.48V0.0134277Z" fill="white"/>
</mask>
<g mask="url(#mask1_337_30)">
<path d="M80.4164 141.507L78.5316 133.948C79.8439 133.343 80.5269 132.074 80.5269 130.139V123.099C80.5269 120.387 79.161 118.945 76.5932 118.945H69.7335C69.459 118.945 69.2949 119.118 69.2949 119.404V141.564C69.2949 141.854 69.459 142.027 69.7335 142.027H72.5758C72.8503 142.027 73.0144 141.854 73.0144 141.564V134.291H74.8992L76.7304 141.621C76.784 141.879 76.9213 142.024 77.1958 142.024H80.0381C80.336 142.027 80.4967 141.854 80.4164 141.507ZM76.8108 129.33C76.8108 130.079 76.4291 130.482 75.7194 130.482H73.0144V122.749H75.7194C76.4291 122.749 76.8108 123.152 76.8108 123.902V129.33Z" fill="white"/>
</g>
<mask id="mask2_337_30" style="mask-type:luminance" maskUnits="userSpaceOnUse" x="0" y="0" width="209" height="216">
<path d="M208.48 0.0134277H0.466797V215.094H208.48V0.0134277Z" fill="white"/>
</mask>
<g mask="url(#mask2_337_30)">
<path d="M87.7378 142.027H90.6605C90.9049 142.027 91.0421 141.882 91.0991 141.624L91.8356 137.413H96.7L97.4666 141.624C97.5202 141.886 97.6574 142.027 97.9052 142.027H100.801C101.129 142.027 101.24 141.854 101.183 141.536L96.6464 119.348C96.5928 119.058 96.4288 118.945 96.181 118.945H92.3846C92.1402 118.945 91.9762 119.061 91.9193 119.348L87.383 141.536C87.3026 141.854 87.4399 142.027 87.7378 142.027ZM94.2694 123.994L96.017 134.064H92.5185L94.2694 123.994Z" fill="white"/>
</g>
<mask id="mask3_337_30" style="mask-type:luminance" maskUnits="userSpaceOnUse" x="0" y="0" width="209" height="216">
<path d="M208.48 0.0134277H0.466797V215.094H208.48V0.0134277Z" fill="white"/>
</mask>
<g mask="url(#mask3_337_30)">
<path d="M111.839 142.027C112.14 142.027 112.274 141.854 112.274 141.564V129.33H112.412L116.593 141.652C116.673 141.91 116.837 142.027 117.085 142.027H119.79C120.065 142.027 120.225 141.854 120.225 141.564V119.404C120.225 119.114 120.061 118.941 119.79 118.941H116.948C116.647 118.941 116.513 119.114 116.513 119.404V131.582H116.349L112.197 119.319C112.117 119.058 111.953 118.945 111.705 118.945H109C108.726 118.945 108.562 119.118 108.562 119.408V141.567C108.562 141.857 108.726 142.031 109 142.031H111.839V142.027Z" fill="white"/>
</g>
<mask id="mask4_337_30" style="mask-type:luminance" maskUnits="userSpaceOnUse" x="0" y="0" width="209" height="216">
<path d="M208.48 0.0134277H0.466797V215.094H208.48V0.0134277Z" fill="white"/>
</mask>
<g mask="url(#mask4_337_30)">
<path d="M135.17 118.945H132.11C129.542 118.945 128.149 120.387 128.149 123.099V137.872C128.149 140.585 129.542 142.027 132.11 142.027H135.17C137.711 142.027 139.103 140.585 139.103 137.872V134.757C139.103 134.467 138.939 134.294 138.665 134.294H135.933C135.632 134.294 135.498 134.467 135.498 134.757V137.066C135.498 137.844 135.116 138.219 134.406 138.219H132.987C132.277 138.219 131.896 137.844 131.896 137.066V123.909C131.896 123.159 132.25 122.756 132.987 122.756H134.406C135.116 122.756 135.498 123.159 135.498 123.909V126.218C135.498 126.508 135.635 126.681 135.933 126.681H138.665C138.939 126.681 139.103 126.508 139.103 126.218V123.103C139.103 120.387 137.711 118.945 135.17 118.945Z" fill="white"/>
</g>
<mask id="mask5_337_30" style="mask-type:luminance" maskUnits="userSpaceOnUse" x="0" y="0" width="209" height="216">
<path d="M208.48 0.0134277H0.466797V215.094H208.48V0.0134277Z" fill="white"/>
</mask>
<g mask="url(#mask5_337_30)">
<path d="M154.021 118.945H150.961C148.393 118.945 147.027 120.387 147.027 123.099V137.872C147.027 140.585 148.393 142.027 150.961 142.027H154.021C156.589 142.027 157.955 140.585 157.955 137.872V123.099C157.955 120.387 156.589 118.945 154.021 118.945ZM154.433 137.151C154.433 137.929 154.051 138.304 153.341 138.304H151.758C151.048 138.304 150.666 137.929 150.666 137.151V123.821C150.666 123.071 151.048 122.668 151.758 122.668H153.341C154.051 122.668 154.433 123.071 154.433 123.821V137.151Z" fill="white"/>
</g>
<mask id="mask6_337_30" style="mask-type:luminance" maskUnits="userSpaceOnUse" x="0" y="0" width="209" height="216">
<path d="M208.48 0.0134277H0.466797V215.094H208.48V0.0134277Z" fill="white"/>
</mask>
<g mask="url(#mask6_337_30)">
<path d="M79.4385 158.519C78.6752 158.519 78.2031 159.686 78.2031 160.34C78.2031 160.768 78.933 161.284 79.3883 161.284C80.1516 161.284 80.6236 160.117 80.6236 159.463C80.6236 159.035 79.8904 158.519 79.4385 158.519Z" fill="white"/>
</g>
<mask id="mask7_337_30" style="mask-type:luminance" maskUnits="userSpaceOnUse" x="0" y="0" width="209" height="216">
<path d="M208.48 0.0134277H0.466797V215.094H208.48V0.0134277Z" fill="white"/>
</mask>
<g mask="url(#mask7_337_30)">
<path d="M90.4564 156.118C90.4564 156.341 91.1226 156.839 91.3837 156.839C91.4641 156.839 91.5143 156.804 91.6281 156.666C92.0667 156.083 92.5722 155.138 92.5722 154.76C92.5722 153.989 91.0121 152.872 89.8437 152.872C88.7055 152.872 86.3486 154.93 86.3486 156.22C86.3486 157.147 87.517 158.024 87.892 158.264C86.6399 159.141 84.9492 160.616 84.9492 162.108C84.9492 163.257 86.8508 165.06 88.5883 165.06C89.0771 165.06 89.9375 164.905 90.2455 164.597C90.7644 164.084 91.1059 163.413 91.4473 162.811C91.5444 162.638 91.6114 162.486 91.6114 162.348C91.6114 162.143 90.9786 161.627 90.7811 161.627C90.6171 161.627 90.5367 161.729 90.4229 161.867C89.6596 162.879 88.8963 163.84 88.1799 163.84C87.4969 163.84 86.8474 163.084 86.8474 162.536C86.8474 161.436 88.441 160.029 89.8705 159.017C90.0982 158.862 90.2455 158.71 90.2455 158.519C90.2455 158.158 89.6261 157.677 89.1072 157.677C89.0436 157.677 88.9934 157.677 88.9298 157.695C88.8159 157.695 88.2636 157.076 88.2636 156.546C88.2636 155.481 89.8873 154.021 90.376 154.021C90.6539 154.021 91.0255 154.329 91.0255 154.569C91.0255 154.827 90.7811 155.291 90.52 155.856C90.4731 155.962 90.4564 156.03 90.4564 156.118Z" fill="white"/>
</g>
<mask id="mask8_337_30" style="mask-type:luminance" maskUnits="userSpaceOnUse" x="0" y="0" width="209" height="216">
<path d="M208.48 0.0134277H0.466797V215.094H208.48V0.0134277Z" fill="white"/>
</mask>
<g mask="url(#mask8_337_30)">
<path d="M122.897 156.991C122.75 156.991 122.606 157.076 122.539 157.317C122.345 158.02 121.906 160.389 121.401 161.641C121.19 162.171 120.215 163.702 119.563 163.702C119.415 163.702 119.124 163.444 119.124 163.222C119.124 162.5 120.179 158.742 120.279 158.314C120.313 158.211 120.343 158.024 120.343 157.9C120.343 157.592 119.271 156.991 118.96 156.991C118.813 156.991 118.682 157.076 118.602 157.317C118.374 157.964 117.895 159.771 117.554 161.27C116.794 162.698 115.987 163.876 115.529 163.876C115.381 163.876 115.237 163.756 115.237 163.568C115.237 162.589 116.181 159.449 116.181 158.883C116.181 158.162 114.116 157.988 114.116 157.561C114.116 157.115 114.36 156.684 114.36 156.323C114.36 155.927 113.53 155.379 113.061 155.379C112.656 155.379 111.973 156.719 111.973 157.302C111.973 157.886 112.656 158.331 112.656 158.331C112.656 158.331 112.08 159.862 111.521 160.941C111.498 160.98 111.484 161.012 111.484 161.012C111.484 161.015 111.481 161.019 111.481 161.019C111.474 161.033 111.451 161.075 111.421 161.139C110.376 163.229 109.128 163.844 108.267 163.844C107.567 163.844 106.871 163.207 106.871 162.797C106.871 162.249 107.002 161.956 107.002 161.956C107.002 161.956 107.798 162.196 108.528 162.196C109.586 162.196 110.624 159.449 110.624 158.59C110.624 157.851 109.128 156.995 108.301 156.995C107.109 156.995 105.713 159.283 105.177 161.203C104.407 162.663 103.567 163.879 103.115 163.879C102.66 163.879 102.204 163.469 102.204 162.918C102.204 162.521 102.807 160.17 103.342 158.232H104.641C104.903 158.232 105.211 157.546 105.211 157.324C105.211 157.221 105.113 157.168 105.016 157.168H103.62L104.076 155.588C104.109 155.467 104.139 155.28 104.139 155.174C104.139 154.866 103.068 154.212 102.743 154.212C102.613 154.212 102.465 154.35 102.402 154.59C102.288 154.969 102.027 155.962 101.719 157.165H101.263C101.002 157.165 100.711 157.851 100.711 158.056C100.711 158.158 100.808 158.225 100.889 158.225H101.441C101.186 159.251 100.925 160.326 100.718 161.238C99.9545 162.681 99.141 163.876 98.6756 163.876C98.5283 163.876 98.237 163.618 98.237 163.395C98.237 162.023 99.3418 159.173 99.3418 158.572C99.3418 158.144 98.3676 158.024 97.9424 158.024C97.9424 158.024 97.1122 156.995 95.8132 156.995C94.3335 156.995 92.3984 160.789 92.3984 163.055C92.3984 163.982 93.7476 165.064 94.4942 165.064C95.3244 165.064 96.2986 163.932 96.2986 163.932C96.4292 164.413 97.7784 165.064 98.5082 165.064C99.1945 165.064 99.8072 164.526 100.376 163.738C100.701 164.459 101.973 165.064 102.931 165.064C103.751 165.064 104.461 164.318 105.117 163.289C105.622 164.304 107.162 165.064 108.341 165.064C109.656 165.064 111.066 164.003 112.171 161.793C112.174 161.79 112.174 161.786 112.174 161.786C112.971 160.241 113.54 158.834 113.54 158.834C113.54 158.834 114.189 158.971 114.189 159.159C114.189 159.947 113.329 162.401 113.329 163.741C113.329 164.41 114.628 165.064 115.361 165.064C116.051 165.064 116.667 164.519 117.243 163.72C117.524 164.371 118.555 165.064 119.278 165.064C119.897 165.064 120.611 164.307 121.23 163.554C121.23 163.554 120.952 164.618 120.644 165.736C119.084 166.199 117.49 167.33 117.49 168.55C117.49 169.134 118.709 170.216 119.569 170.216C120.202 170.216 121.129 169.908 121.404 169.339C121.551 169.013 121.876 167.864 122.234 166.439C123.014 166.577 123.275 167.005 123.533 167.005C123.778 167.005 124.153 166.524 124.153 166.234C124.153 166.011 123.436 165.615 122.462 165.531C122.673 164.707 122.867 163.847 123.064 163.041C123.68 160.347 124.089 158.749 124.203 158.321C124.236 158.218 124.266 158.031 124.266 157.907C124.276 157.592 123.205 156.991 122.897 156.991ZM108.853 158.331C109.081 158.331 109.342 158.519 109.342 158.759C109.342 159.222 108.676 161.181 107.115 161.181C107.263 160.372 108.22 158.331 108.853 158.331ZM96.4694 162.14C96.0141 163.137 95.2006 163.734 94.8758 163.734C94.598 163.734 94.3067 163.441 94.3067 163.048C94.3067 161.538 95.6056 158.363 96.4192 158.363C96.6803 158.363 97.2963 158.586 97.2963 158.862C97.2997 159.343 96.7941 161.418 96.4694 162.14ZM119.857 168.285C119.697 168.646 119.191 168.868 118.947 168.868C118.736 168.868 118.525 168.61 118.525 168.405C118.525 167.822 119.338 167.065 120.376 166.655C120.165 167.376 119.971 168.013 119.857 168.285Z" fill="white"/>
</g>
<mask id="mask9_337_30" style="mask-type:luminance" maskUnits="userSpaceOnUse" x="0" y="0" width="209" height="216">
<path d="M208.48 0.0134277H0.466797V215.094H208.48V0.0134277Z" fill="white"/>
</mask>
<g mask="url(#mask9_337_30)">
<path d="M129.559 158.519C128.795 158.519 128.323 159.686 128.323 160.34C128.323 160.768 129.053 161.284 129.508 161.284C130.272 161.284 130.744 160.117 130.744 159.463C130.744 159.035 130.014 158.519 129.559 158.519Z" fill="white"/>
</g>
<mask id="mask10_337_30" style="mask-type:luminance" maskUnits="userSpaceOnUse" x="0" y="0" width="209" height="216">
<path d="M208.48 0.0134277H0.466797V215.094H208.48V0.0134277Z" fill="white"/>
</mask>
<g mask="url(#mask10_337_30)">
<path d="M145.454 91.0886C145.454 90.537 145.029 90.0879 144.507 90.0879C145.019 90.0879 145.437 89.6565 145.454 89.119C145.461 88.9104 145.384 88.7089 145.26 88.5462C144.932 88.1219 144.657 88.0618 144.406 88.0901L137.252 89.0306C135.943 89.2039 134.617 89.1261 133.335 88.8114C132.926 84.6779 130.871 68.3843 123.924 68.3843C116 68.3843 109.83 76.7574 107.362 82.1745C104.979 81.6794 102.391 80.8945 99.7863 79.6781H101.48C104.239 79.6781 106.472 77.3161 106.472 74.406V56.6379C106.472 55.8848 105.571 55.5559 105.133 56.15L104.768 56.6379L104.43 55.8105C104.195 55.2342 103.449 55.1635 103.117 55.6832L102.515 56.6379L101.504 54.0885C101.346 53.6925 100.787 53.8092 100.787 54.2406V60.1491C100.787 61.3301 101.293 62.4475 102.163 63.19L100.653 73.568C100.653 73.568 92.6756 75.0283 88.3067 69.3072L95.2266 67.7266L96.2678 62.1646H90.7974V54.4739L87.0412 59.0176L85.8494 54.4739C85.8494 54.4739 85.6753 54.5694 85.374 54.7568C73.3118 62.0904 72.9536 76.2376 72.9536 76.2376L75.7858 73.1225L73.834 81.7572L77.3124 79.8761L74.4266 84.0202C70.2619 89.9429 63.4893 92.7823 63.4893 92.7823L65.9198 95.0842L63.4893 96.9547L87.3023 101.021C87.3023 101.021 89.8098 101.261 90.553 104.214C90.553 104.214 93.4255 104.302 92.9032 101.463C92.9032 101.463 93.7435 102.117 94.1319 101.711C94.5169 101.304 94.0616 99.3379 94.0616 99.3379L94.9119 100.091C95.2634 96.0141 87.3827 94.9993 87.3827 94.9993L76.4018 92.464L82.8229 89.2817C85.9398 92.3509 90.0643 94.0941 94.3896 94.0941L111.875 94.1047H111.879C117.322 94.1436 121.497 95.2786 121.557 96.8451C121.621 98.6024 116.482 100.187 110.081 100.508C105.324 100.749 97.617 100.476 97.617 100.476C99.2808 104.592 104.393 107.453 110.329 107.209C117.459 106.915 123.08 102.252 122.876 96.792C122.843 95.8691 122.649 94.9604 122.321 94.0941H144.47C144.989 94.0941 145.441 93.6733 145.457 93.1253C145.474 92.5595 145.042 92.0928 144.51 92.0928C145.029 92.0892 145.454 91.6402 145.454 91.0886ZM84.7078 63.3704C84.075 63.3704 83.5661 62.8294 83.5661 62.1646H85.8527C85.8527 62.8294 85.3405 63.3704 84.7078 63.3704ZM86.7901 62.1611H89.0767C89.0767 62.8294 88.5644 63.3668 87.935 63.3668C87.3023 63.3704 86.7901 62.8294 86.7901 62.1611ZM119.81 85.4664L124.246 78.4936L128.019 87.4996L119.81 85.4664Z" fill="white"/>
</g>
<mask id="mask11_337_30" style="mask-type:luminance" maskUnits="userSpaceOnUse" x="0" y="0" width="209" height="216">
<path d="M208.48 0.0134277H0.466797V215.094H208.48V0.0134277Z" fill="white"/>
</mask>
<g mask="url(#mask11_337_30)">
<path d="M94.3399 52.515C97.7815 52.515 101.849 50.9521 103.202 50.3899C104.809 51.0652 110.286 53.2221 114.886 53.2221C118.628 53.2221 121.451 51.433 121.451 49.0604C121.451 46.6877 118.628 44.8986 114.886 44.8986C112.16 44.8986 109.131 45.6552 106.777 46.4119C102.639 47.7344 114.551 51.4471 114.551 51.4471C109.586 51.4471 106.499 49.0321 103.131 47.7026C101.655 47.0979 97.671 45.6057 94.3399 45.6057C91.3403 45.6057 89.0771 47.0908 89.0771 49.0604C89.0771 51.0299 91.3403 52.515 94.3399 52.515Z" fill="white"/>
</g>
</g>
<defs>
<clipPath id="clip0_337_30">
<rect width="208.014" height="215.08" fill="white" transform="translate(0.466797 0.0134277)"/>
</clipPath>
</defs>
</svg>
