<svg width="245" height="114" viewBox="0 0 245 114" fill="none" xmlns="http://www.w3.org/2000/svg">
<path d="M53.9123 114C24.1857 114 0 88.4292 0 57C0 25.5708 24.1857 0 53.9123 0C83.639 0 107.825 25.5708 107.825 57C107.825 88.4292 83.6421 114 53.9123 114ZM53.9123 6.27541C27.4585 6.27541 5.93547 29.0311 5.93547 57C5.93547 84.9689 27.4585 107.725 53.9123 107.725C80.3662 107.725 101.889 84.9689 101.889 57C101.892 29.0311 80.3693 6.27541 53.9123 6.27541Z" fill="white"/>
<path d="M53.9122 96.5716C33.2767 96.5716 16.4873 78.8206 16.4873 57C16.4873 35.1795 33.2767 17.4285 53.9153 17.4285C74.5538 17.4285 91.3402 35.1795 91.3402 57C91.3402 78.8206 74.5508 96.5716 53.9122 96.5716ZM53.9122 23.7039C36.5465 23.7039 22.4197 38.6397 22.4197 57C22.4197 75.3603 36.5465 90.2962 53.9122 90.2962C71.2779 90.2962 85.4047 75.3603 85.4047 57C85.4047 38.6397 71.2779 23.7039 53.9122 23.7039Z" fill="white"/>
<path d="M53.9122 79.1399C42.3649 79.1399 32.9717 69.2087 32.9717 57C32.9717 44.7913 42.3649 34.8601 53.9122 34.8601C65.4596 34.8601 74.8528 44.7913 74.8528 57C74.8528 69.2087 65.4596 79.1399 53.9122 79.1399ZM53.9122 41.1355C45.6377 41.1355 38.9072 48.2516 38.9072 57C38.9072 65.7484 45.6377 72.8645 53.9122 72.8645C62.1868 72.8645 68.9173 65.7484 68.9173 57C68.9173 48.2516 62.1868 41.1355 53.9122 41.1355Z" fill="white"/>
<path d="M117.128 72.8222V41.3931H128.506C130.654 41.3931 132.441 41.7482 133.868 42.4585C135.295 43.1688 136.364 44.1398 137.076 45.3649C137.788 46.5932 138.142 47.9845 138.142 49.5387C138.142 50.8192 137.911 51.9107 137.446 52.8165C136.981 53.7223 136.358 54.4554 135.575 55.0191C134.793 55.5828 133.914 55.9868 132.947 56.2312V56.5375C134.001 56.5994 135.014 56.9382 135.988 57.5573C136.962 58.1764 137.757 59.0496 138.377 60.1737C138.996 61.2978 139.304 62.6597 139.304 64.2563C139.304 65.8821 138.931 67.3418 138.186 68.6386C137.44 69.9322 136.318 70.952 134.817 71.7014C133.316 72.4475 131.43 72.8222 129.156 72.8222H117.128ZM122.512 54.7584H127.84C128.771 54.7584 129.606 54.576 130.352 54.2143C131.098 53.8527 131.686 53.3346 132.115 52.6634C132.546 51.9922 132.762 51.1972 132.762 50.2783C132.762 49.0598 132.358 48.0595 131.551 47.271C130.743 46.4825 129.544 46.0882 127.957 46.0882H122.515V54.7584H122.512ZM122.512 68.0652H128.302C130.256 68.0652 131.668 67.6677 132.534 66.8759C133.4 66.0842 133.831 65.0643 133.831 63.8132C133.831 62.8813 133.612 62.0407 133.178 61.288C132.743 60.5353 132.124 59.9423 131.319 59.509C130.515 59.0756 129.557 58.8573 128.444 58.8573H122.509V68.0652H122.512Z" fill="white"/>
<path d="M150.177 72.8222C148.765 72.8222 147.496 72.555 146.368 72.0174C145.24 71.4798 144.349 70.6848 143.696 69.6324C143.042 68.58 142.716 67.2799 142.716 65.7355C142.716 64.4061 142.947 63.3048 143.412 62.4349C143.878 61.5649 144.509 60.8709 145.314 60.3463C146.118 59.825 147.024 59.4275 148.035 59.1571C149.046 58.8866 150.094 58.6879 151.178 58.5673C152.485 58.424 153.545 58.2936 154.359 58.1763C155.172 58.059 155.764 57.8733 156.137 57.6224C156.51 57.3715 156.695 56.9805 156.695 56.4495V56.3582C156.695 55.2015 156.371 54.3055 155.721 53.6734C155.074 53.0381 154.14 52.722 152.92 52.722C151.631 52.722 150.614 53.0185 149.862 53.6115C149.114 54.2045 148.608 54.905 148.346 55.7131L143.44 54.9767C143.828 53.5431 144.466 52.344 145.357 51.3796C146.248 50.4119 147.335 49.6853 148.624 49.1998C149.912 48.7143 151.332 48.47 152.892 48.47C153.967 48.47 155.034 48.6036 156.1 48.8707C157.166 49.1379 158.137 49.5745 159.018 50.1838C159.9 50.7931 160.609 51.6175 161.145 52.6634C161.681 53.706 161.949 55.0126 161.949 56.5765V72.353H156.898V69.1143H156.726C156.405 69.7692 155.958 70.3818 155.382 70.9487C154.806 71.5156 154.084 71.9718 153.218 72.3139C152.352 72.656 151.339 72.8222 150.177 72.8222ZM151.542 68.7396C152.596 68.7396 153.511 68.518 154.285 68.0717C155.058 67.6253 155.656 67.0355 156.078 66.2992C156.501 65.5628 156.71 64.758 156.71 63.8913V61.112C156.547 61.2554 156.266 61.389 155.875 61.5095C155.484 61.6333 155.046 61.7409 154.562 61.8321C154.078 61.9233 153.601 62.0048 153.126 62.0765C152.651 62.1481 152.242 62.2101 151.893 62.2589C151.111 62.373 150.408 62.5554 149.788 62.8128C149.169 63.0702 148.679 63.4254 148.322 63.8783C147.964 64.3344 147.785 64.9209 147.785 65.6345C147.785 66.6576 148.14 67.4298 148.845 67.9511C149.548 68.4789 150.448 68.7396 151.542 68.7396Z" fill="white"/>
<path d="M169.888 47.2383C169.046 47.2383 168.328 46.9451 167.734 46.3553C167.139 45.7656 166.84 45.0585 166.84 44.2309C166.84 43.3936 167.139 42.68 167.74 42.0903C168.341 41.5005 169.056 41.2073 169.888 41.2073C170.72 41.2073 171.435 41.5005 172.03 42.0903C172.624 42.68 172.923 43.3936 172.923 44.2309C172.923 45.0585 172.624 45.7688 172.03 46.3553C171.435 46.9451 170.72 47.2383 169.888 47.2383ZM167.247 72.8222V49.2519H172.501V72.8222H167.247Z" fill="white"/>
<path d="M177.9 72.8222V49.2519H182.924V53.2563H183.186C183.651 51.9074 184.418 50.8485 185.494 50.086C186.566 49.3236 187.851 48.9424 189.34 48.9424C190.85 48.9424 192.126 49.3301 193.164 50.1023C194.203 50.8745 194.936 51.9269 195.365 53.2563H195.596C196.089 51.9465 196.924 50.9006 198.101 50.1186C199.279 49.3366 200.672 48.9456 202.289 48.9456C204.342 48.9456 206.015 49.6299 207.313 51.0016C208.61 52.3733 209.257 54.3739 209.257 57.0033V72.8254H203.987V57.8635C203.987 56.4005 203.621 55.3286 202.884 54.6476C202.148 53.9666 201.248 53.6278 200.185 53.6278C198.918 53.6278 197.929 54.0448 197.217 54.8789C196.505 55.713 196.151 56.7948 196.151 58.1242V72.8254H190.998V57.6322C190.998 56.4136 190.653 55.4426 189.959 54.716C189.266 53.9894 188.366 53.6278 187.254 53.6278C186.498 53.6278 185.811 53.8298 185.192 54.2338C184.572 54.6378 184.079 55.2048 183.713 55.9379C183.346 56.671 183.161 57.5214 183.161 58.4923V72.8254L177.9 72.8222Z" fill="white"/>
<path d="M232.216 55.019L227.427 55.5729C227.291 55.0613 227.057 54.5824 226.724 54.1295C226.392 53.6798 225.942 53.3149 225.381 53.0412C224.82 52.7643 224.133 52.6274 223.319 52.6274C222.225 52.6274 221.31 52.8783 220.57 53.3801C219.83 53.8818 219.464 54.5302 219.473 55.3285C219.464 56.0127 219.701 56.5732 220.191 57C220.678 57.4301 221.488 57.782 222.623 58.0589L226.425 58.9191C228.533 59.4013 230.105 60.1638 231.134 61.2064C232.164 62.2491 232.684 63.6143 232.694 65.3053C232.684 66.7878 232.275 68.0944 231.467 69.225C230.66 70.3556 229.538 71.2386 228.108 71.8707C226.678 72.5028 225.032 72.8221 223.174 72.8221C220.447 72.8221 218.25 72.2161 216.585 71.004C214.921 69.7919 213.929 68.1009 213.608 65.9309L218.733 65.4096C218.965 66.475 219.458 67.2766 220.213 67.8174C220.968 68.3583 221.951 68.632 223.159 68.632C224.407 68.632 225.412 68.3616 226.17 67.8174C226.928 67.2766 227.31 66.6054 227.31 65.8071C227.31 65.1326 227.066 64.5755 226.576 64.1356C226.086 63.6957 225.331 63.3569 224.305 63.1223L220.502 62.2784C218.364 61.8092 216.783 61.0109 215.756 59.8933C214.73 58.7725 214.222 57.3519 214.231 55.6348C214.222 54.1816 214.598 52.9207 215.356 51.8519C216.114 50.7832 217.174 49.9556 218.536 49.3659C219.895 48.7762 221.467 48.4829 223.245 48.4829C225.858 48.4829 227.917 49.0727 229.421 50.2489C230.925 51.4251 231.856 53.0151 232.216 55.019Z" fill="white"/>
</svg>
