<svg width="387" height="391" viewBox="0 0 387 391" fill="none" xmlns="http://www.w3.org/2000/svg">
<g clip-path="url(#clip0_360_87)">
<mask id="mask0_360_87" style="mask-type:luminance" maskUnits="userSpaceOnUse" x="0" y="0" width="387" height="391">
<path d="M387 0H0V391H387V0Z" fill="white"/>
</mask>
<g mask="url(#mask0_360_87)">
<path d="M235.622 249.45C235.622 247.195 235.444 244.974 235.11 242.809L225.942 170.075C224.085 153.64 210.269 140.874 193.504 140.874C176.738 140.874 162.929 153.64 161.065 170.075L151.898 242.809C151.563 244.974 151.386 247.188 151.386 249.45C151.386 269.016 164.465 285.486 182.261 290.459L191.483 299.749C192.623 300.893 194.459 300.893 195.592 299.742L204.753 290.452C222.549 285.472 235.622 269.01 235.622 249.45Z" fill="#CF382E"/>
</g>
<mask id="mask1_360_87" style="mask-type:luminance" maskUnits="userSpaceOnUse" x="0" y="0" width="387" height="391">
<path d="M387 0H0V391H387V0Z" fill="white"/>
</mask>
<g mask="url(#mask1_360_87)">
<path d="M193.503 126.687C186.459 119.57 175.038 119.57 167.994 126.687L193.503 152.461L219.006 126.687C211.961 119.57 200.548 119.57 193.503 126.687Z" fill="#6F6D2D"/>
</g>
<mask id="mask2_360_87" style="mask-type:luminance" maskUnits="userSpaceOnUse" x="0" y="0" width="387" height="391">
<path d="M387 0H0V391H387V0Z" fill="white"/>
</mask>
<g mask="url(#mask2_360_87)">
<path d="M178.356 365.496H208.644V369.185H178.356V365.496ZM85.3279 120.328L94.1815 120.404L94.1747 123.997L85.4098 123.949C82.2219 123.956 79.5392 126.011 78.7474 128.915L77.7712 132.515L90.5363 136.053L89.5738 139.612L61.0879 131.715C61.0879 129.149 61.2859 126.729 62.303 122.997C63.873 117.225 68.9859 115.232 73.1499 116.39C76.2012 117.239 78.3105 119.873 78.7952 122.997C80.529 121.335 82.8431 120.294 85.3279 120.328ZM72.1737 119.949C69.3818 119.177 66.4192 120.735 65.6274 123.646C64.9311 126.204 64.699 127.404 64.4874 128.839L74.4537 131.605L75.9213 126.218C76.6449 123.57 74.9657 120.728 72.1737 119.949ZM57.9137 228.518H79.1638L57.0263 246.25H88.2086V242.56H66.9994L89.1437 224.829H57.9137V228.518ZM298.252 191.772L307.474 187.903C306.805 186.193 306.45 184.255 306.45 182.186C306.45 180.206 306.805 178.268 307.474 176.468L298.252 172.599L299.679 169.178L330.021 182.186L299.679 195.193L298.252 191.772ZM309.754 182.186C309.754 183.717 310.014 185.248 310.512 186.641L321.065 182.186L310.512 177.772C310.014 179.124 309.754 180.613 309.754 182.186ZM80.5905 349.93C71.102 349.93 71.3682 364.785 65.1768 364.785C62.5965 364.785 60.8626 362.709 60.8626 359.744C60.8626 357.357 61.75 355.199 63.2177 353.571L60.9446 351.502C58.7192 353.571 57.3813 356.502 57.3813 359.744C57.3813 364.516 60.5008 368.475 65.17 368.475C74.44 368.475 73.9076 353.619 80.6314 353.619C83.2117 353.619 85.2664 355.378 85.2664 359.751C85.2664 362.406 84.2903 364.792 82.6861 366.592L85.0412 368.841C87.3143 366.503 88.741 363.309 88.741 359.751C88.741 352.895 84.734 349.93 80.5905 349.93ZM88.741 288.983L79.5187 292.852C80.1877 294.562 80.5427 296.493 80.5427 298.569C80.5427 300.548 80.1877 302.487 79.5187 304.287L88.741 308.156L87.3143 311.57L56.9717 298.569L87.3143 285.562L88.741 288.983ZM77.2456 298.569C77.2456 297.038 76.9862 295.507 76.4947 294.114L65.9414 298.569L76.4947 302.983C76.9862 301.624 77.2456 300.142 77.2456 298.569ZM298.791 369.185H302.225V357.123H313.761V367.93H317.195V357.123H325.659V368.558H329.093V353.44H298.798V369.185H298.791ZM91.335 68.8507L113.916 89.3272L116.36 86.5754L93.7788 66.0988L91.335 68.8507ZM304.252 128.667L296.928 133.694L294.907 130.736L302.15 125.742C304.771 123.908 305.822 120.673 304.832 117.825L303.611 114.301L291.119 118.721L289.91 115.239L317.795 105.362C319.229 107.48 320.437 109.583 321.707 113.232C323.666 118.88 320.574 123.459 316.499 124.901C313.509 125.963 310.293 124.997 308.136 122.708C307.638 125.087 306.314 127.267 304.252 128.667ZM306.853 113.149L308.682 118.418C309.584 121.011 312.567 122.39 315.29 121.425C318.028 120.459 319.584 117.473 318.601 114.625C317.734 112.121 317.249 111.004 316.615 109.7L306.853 113.149ZM298.791 234.684V238.374H320L297.856 256.106H329.086V252.416H307.836L329.974 234.684H298.791ZM325.659 302.9H298.791V306.59H325.659V313.977H329.093V295.521H325.659V302.9ZM279.398 72.2922C274.114 79.2027 264.25 80.4855 257.411 75.1543C250.577 69.8231 249.301 59.8503 254.585 52.9397C259.861 46.0292 269.732 44.7464 276.565 50.0776C283.405 55.4157 284.675 65.3816 279.398 72.2922ZM274.476 52.8225C269.288 48.781 261.752 49.8914 257.615 55.3054C253.479 60.7193 254.332 68.3679 259.506 72.4094C264.694 76.4509 272.23 75.3405 276.367 69.9266C280.504 64.5126 279.657 56.864 274.476 52.8225ZM140.771 40.629C139.801 38.2013 141.057 35.8012 143.781 34.6908C145.979 33.8011 148.293 33.8287 150.341 34.6012L151.392 31.6976C148.655 30.3803 145.467 30.2217 142.484 31.4355C138.102 33.2218 135.63 37.6289 137.378 42.0221C140.846 50.7121 154.3 44.6567 156.812 50.9742C157.775 53.3949 156.928 55.9743 152.914 57.6089C150.478 58.602 147.918 58.5744 145.658 57.7399L144.477 60.8021C147.474 62.0573 150.949 62.2021 154.211 60.8711C160.498 58.3124 161.734 53.4363 160.184 49.5534C156.635 40.6359 143.085 46.4361 140.771 40.629ZM199.121 25.2629L206.391 26.0698L203.456 53.0708L207.088 53.4708L210.03 26.4699L217.3 27.2768L217.675 23.8284L199.504 21.8076L199.121 25.2629Z" fill="white"/>
</g>
</g>
<defs>
<clipPath id="clip0_360_87">
<rect width="387" height="391" fill="white"/>
</clipPath>
</defs>
</svg>
