<svg width="269" height="67" viewBox="0 0 269 67" fill="none" xmlns="http://www.w3.org/2000/svg">
<path fill-rule="evenodd" clip-rule="evenodd" d="M119.26 40.7801C119.26 45.7801 118.97 50.5901 121.39 55.2501C126.71 65.5001 138.95 69.3001 148.98 65.1501C152.99 63.4901 152.87 61.9901 155.41 61.4001C158.28 65.6901 153.03 65.6901 164.78 65.6901C166.49 65.6901 167.46 64.9401 167.46 63.2801V24.4501C167.46 21.4101 163.24 22.3101 158.36 22.3101C156.4 22.3101 155.84 23.9701 155.41 25.7901C152.14 25.7901 152.84 22.8301 145.86 21.6901C139.03 20.5801 130.96 21.9601 126.16 26.7901C123.09 29.8801 123.87 28.8501 121.62 32.7001C120.84 34.0101 119.26 38.8101 119.26 40.7801ZM142.82 56.0401C130.65 56.0401 128.26 41.0001 134.85 34.9501C142.44 27.9801 155.67 32.8001 155.67 43.9901C155.67 47.8401 154.34 50.2701 151.99 52.6301C149.69 54.9501 147.33 56.0401 142.82 56.0401ZM225.3 5.97012V62.7401C225.3 66.6501 227.85 65.6901 234.41 65.6901C237.97 65.6901 237.09 62.8601 237.09 57.1201C237.09 54.8101 237.2 42.1701 237.72 40.6101C239.06 36.5901 241.47 32.4801 246.73 32.4801C250.31 32.4801 253.09 32.8801 255.32 36.7401C256.99 39.6301 256.64 42.0001 256.64 46.4001L256.71 62.4001C257.22 66.5201 257.81 65.6801 265.75 65.6801C268.1 65.6801 268.7 64.5201 268.7 62.2001C268.7 54.0001 269.26 39.6701 267.31 32.5301C263.62 19.0201 246.58 19.7501 240.52 25.1901C239.7 25.9201 239.28 26.4801 237.9 26.5901C237.7 25.7101 237.45 25.4301 237.37 24.4401C236.98 19.7201 238.03 8.12012 237.1 4.09012C235.19 3.17012 230.56 3.55013 227.73 3.55013C226.38 3.56013 225.3 4.64012 225.3 5.97012ZM67.0399 43.9901C67.0399 52.1601 70.0599 58.5601 76.5199 62.9001C82.2899 66.7801 87.2699 66.7501 94.0899 66.7501C98.2399 66.7501 109.08 63.3401 109.08 60.5901C109.08 59.4401 107.52 57.9101 106.47 56.7701C103.3 53.3601 104.23 53.2901 100.4 54.8501C95.1499 57.0001 88.9299 57.3401 83.8199 54.5101C81.8699 53.4301 79.8899 51.5701 79.8899 49.0701C79.8899 47.2901 86.0299 48.0001 87.9199 48.0001H97.2899L110.09 47.6801C112.84 47.2501 112.28 44.3201 112.28 41.5701C112.28 38.4201 111.89 35.3001 110.86 33.0901C106.24 23.2401 98.9299 21.2201 88.7199 21.2201C79.7399 21.2201 72.0899 26.0501 68.6399 34.3401C67.6599 36.7201 67.0399 40.6101 67.0399 43.9901ZM89.5299 31.1401C100.37 31.1401 103.01 39.1701 99.1699 39.1701C96.6999 39.1701 81.8299 39.5201 80.6999 38.9001L79.8899 38.1001C80.1999 34.4501 85.6999 31.1401 89.5299 31.1401ZM176.83 41.8501C176.83 47.5401 176.51 49.3601 179.06 54.8801C184.49 66.6201 199.54 69.0801 210.38 64.9501C211.65 64.4601 216.46 62.0401 216.46 60.3201C216.46 59.0201 214.39 57.3101 213.58 56.5001C209.47 52.3901 210.32 52.9501 206.21 54.6201C203.59 55.6901 202.13 55.5001 199.32 55.5001C196.18 55.5001 193.67 53.7401 192.02 52.0901C188.71 48.7901 188.28 44.0501 189.64 39.6601C190.71 36.2101 195.08 32.2001 199.05 32.2001C203.37 32.2001 203.92 31.7801 207.2 33.1601C209.9 34.3001 210.5 33.4201 212.75 30.6301C213.81 29.3101 216.58 27.1201 213.84 24.9101C209.38 21.3101 203.51 21.4801 198.25 21.4801C193.18 21.4801 186.84 24.1701 183.45 27.5701C179.95 31.1001 176.83 36.3001 176.83 41.8501ZM0.629883 8.64012V39.7001C0.629883 45.4801 4.92988 44.5201 9.19988 44.5201C12.7699 44.5201 13.5099 41.6201 13.4899 38.6401L13.4799 18.0101C13.4799 13.8501 13.1799 11.5801 17.4999 11.5801H32.7599C35.6099 11.5801 38.0499 12.9701 39.5299 14.4501C41.6999 16.6201 42.3999 18.1101 42.3999 21.7501C42.3999 26.1601 39.6999 30.5301 37.0399 32.1901C34.4599 33.8001 33.8399 33.3101 30.5399 33.7201C26.9499 34.1701 26.3299 33.5201 26.3299 39.4201C26.3299 45.3701 27.9799 44.2601 32.2599 44.7401C34.4399 44.9901 38.5799 43.8801 40.2599 48.2501C41.1199 50.4701 40.7899 58.6301 41.0799 61.3501C41.8199 68.0901 43.9399 66.7401 51.2299 66.7401C55.0399 66.7401 54.4399 63.3701 54.4399 60.3101C54.4399 58.2301 53.7699 49.5701 53.2599 47.3001C52.0699 41.9301 48.4699 41.0501 47.2099 39.1601C47.6899 37.3501 50.4299 36.6901 53.0199 31.8401C56.4199 25.4701 56.6499 17.5601 54.2099 10.7401C53.5999 9.03013 51.8499 6.78012 50.6299 5.48012C48.3399 3.03012 42.2899 0.870117 37.5699 0.870117H7.03989C3.60989 0.880117 0.629883 4.12012 0.629883 8.64012Z" fill="#0071BC"/>
</svg>
