<svg width="622" height="313" viewBox="0 0 622 313" fill="none" xmlns="http://www.w3.org/2000/svg">
<mask id="mask0_122_66" style="mask-type:luminance" maskUnits="userSpaceOnUse" x="0" y="0" width="622" height="313">
<path d="M621.34 0H0V313H621.34V0Z" fill="white"/>
</mask>
<g mask="url(#mask0_122_66)">
<mask id="mask1_122_66" style="mask-type:luminance" maskUnits="userSpaceOnUse" x="55" y="-77" width="512" height="501">
<path d="M566.019 -77H55V423.27H566.019V-77Z" fill="white"/>
</mask>
<g mask="url(#mask1_122_66)">
<path d="M204.891 199.63H180.193C179.453 199.63 179.116 200.033 179.116 200.7V252.242C179.116 252.917 179.453 253.32 180.193 253.32H187.175C187.85 253.32 188.253 252.917 188.253 252.242V230.834H200.869C201.544 230.834 201.947 230.497 201.947 229.757V223.045C201.947 222.371 201.544 221.968 200.869 221.968H188.253V208.48H204.899C205.574 208.48 205.977 208.077 205.977 207.402V200.691C205.968 200.025 205.565 199.63 204.891 199.63Z" fill="#00833E"/>
</g>
<mask id="mask2_122_66" style="mask-type:luminance" maskUnits="userSpaceOnUse" x="55" y="-77" width="512" height="501">
<path d="M566.019 -77H55V423.27H566.019V-77Z" fill="white"/>
</mask>
<g mask="url(#mask2_122_66)">
<path d="M251.409 252.111L246.778 234.527C250.002 233.12 251.68 230.168 251.68 225.669V209.294C251.68 202.986 248.324 199.63 242.016 199.63H225.164C224.49 199.63 224.087 200.033 224.087 200.7V252.242C224.087 252.917 224.49 253.32 225.164 253.32H232.147C232.821 253.32 233.224 252.917 233.224 252.242V235.325H237.855L242.353 252.374C242.485 252.974 242.822 253.311 243.497 253.311H250.479C251.211 253.32 251.606 252.917 251.409 252.111ZM242.551 223.786C242.551 225.529 241.613 226.467 239.87 226.467H233.224V208.48H239.87C241.613 208.48 242.551 209.417 242.551 211.161V223.786Z" fill="#00833E"/>
</g>
<mask id="mask3_122_66" style="mask-type:luminance" maskUnits="userSpaceOnUse" x="55" y="-77" width="512" height="501">
<path d="M566.019 -77H55V423.27H566.019V-77Z" fill="white"/>
</mask>
<g mask="url(#mask3_122_66)">
<path d="M269.396 253.32H276.576C277.176 253.32 277.513 252.983 277.653 252.382L279.462 242.587H291.412L293.296 252.382C293.427 252.991 293.765 253.32 294.373 253.32H301.487C302.293 253.32 302.565 252.917 302.425 252.177L291.281 200.568C291.149 199.894 290.746 199.63 290.138 199.63H280.811C280.211 199.63 279.808 199.902 279.668 200.568L268.524 252.177C268.326 252.917 268.664 253.32 269.396 253.32ZM285.442 211.375L289.735 234.798H281.14L285.442 211.375Z" fill="#00833E"/>
</g>
<mask id="mask4_122_66" style="mask-type:luminance" maskUnits="userSpaceOnUse" x="55" y="-77" width="512" height="501">
<path d="M566.019 -77H55V423.27H566.019V-77Z" fill="white"/>
</mask>
<g mask="url(#mask4_122_66)">
<path d="M328.604 253.319C329.344 253.319 329.673 252.916 329.673 252.242V223.785H330.01L340.282 252.447C340.48 253.048 340.883 253.319 341.491 253.319H348.137C348.811 253.319 349.206 252.916 349.206 252.242V200.699C349.206 200.025 348.803 199.622 348.137 199.622H341.154C340.414 199.622 340.085 200.025 340.085 200.699V229.024H339.682L329.484 200.502C329.286 199.893 328.883 199.63 328.275 199.63H321.629C320.955 199.63 320.552 200.033 320.552 200.707V252.25C320.552 252.924 320.955 253.327 321.629 253.327H328.604V253.319Z" fill="#00833E"/>
</g>
<mask id="mask5_122_66" style="mask-type:luminance" maskUnits="userSpaceOnUse" x="55" y="-77" width="512" height="501">
<path d="M566.019 -77H55V423.27H566.019V-77Z" fill="white"/>
</mask>
<g mask="url(#mask5_122_66)">
<path d="M385.92 199.63H378.403C372.095 199.63 368.673 202.986 368.673 209.294V243.656C368.673 249.964 372.095 253.32 378.403 253.32H385.92C392.162 253.32 395.584 249.964 395.584 243.656V236.41C395.584 235.736 395.181 235.333 394.506 235.333H387.795C387.055 235.333 386.726 235.736 386.726 236.41V241.781C386.726 243.59 385.788 244.462 384.045 244.462H380.558C378.814 244.462 377.876 243.59 377.876 241.781V211.178C377.876 209.434 378.748 208.496 380.558 208.496H384.045C385.788 208.496 386.726 209.434 386.726 211.178V216.548C386.726 217.223 387.063 217.626 387.795 217.626H394.506C395.181 217.626 395.584 217.223 395.584 216.548V209.302C395.584 202.986 392.162 199.63 385.92 199.63Z" fill="#00833E"/>
</g>
<mask id="mask6_122_66" style="mask-type:luminance" maskUnits="userSpaceOnUse" x="55" y="-77" width="512" height="501">
<path d="M566.019 -77H55V423.27H566.019V-77Z" fill="white"/>
</mask>
<g mask="url(#mask6_122_66)">
<path d="M432.232 199.63H424.715C418.407 199.63 415.051 202.986 415.051 209.294V243.656C415.051 249.964 418.407 253.32 424.715 253.32H432.232C438.54 253.32 441.896 249.964 441.896 243.656V209.294C441.896 202.986 438.54 199.63 432.232 199.63ZM433.243 241.978C433.243 243.788 432.306 244.659 430.562 244.659H426.672C424.929 244.659 423.991 243.788 423.991 241.978V210.972C423.991 209.228 424.929 208.291 426.672 208.291H430.562C432.306 208.291 433.243 209.228 433.243 210.972V241.978Z" fill="#00833E"/>
</g>
<mask id="mask7_122_66" style="mask-type:luminance" maskUnits="userSpaceOnUse" x="55" y="-77" width="512" height="501">
<path d="M566.019 -77H55V423.27H566.019V-77Z" fill="white"/>
</mask>
<g mask="url(#mask7_122_66)">
<path d="M249.007 291.678C247.132 291.678 245.972 294.392 245.972 295.914C245.972 296.909 247.765 298.11 248.884 298.11C250.759 298.11 251.919 295.396 251.919 293.874C251.919 292.879 250.117 291.678 249.007 291.678Z" fill="#00833E"/>
</g>
<mask id="mask8_122_66" style="mask-type:luminance" maskUnits="userSpaceOnUse" x="55" y="-77" width="512" height="501">
<path d="M566.019 -77H55V423.27H566.019V-77Z" fill="white"/>
</mask>
<g mask="url(#mask8_122_66)">
<path d="M276.074 286.094C276.074 286.612 277.71 287.772 278.352 287.772C278.549 287.772 278.673 287.69 278.952 287.369C280.03 286.012 281.272 283.816 281.272 282.936C281.272 281.143 277.439 278.544 274.569 278.544C271.772 278.544 265.982 283.331 265.982 286.333C265.982 288.487 268.853 290.527 269.774 291.086C266.698 293.126 262.545 296.556 262.545 300.026C262.545 302.699 267.216 306.894 271.485 306.894C272.685 306.894 274.799 306.532 275.556 305.816C276.83 304.624 277.669 303.061 278.508 301.663C278.747 301.26 278.911 300.906 278.911 300.586C278.911 300.109 277.357 298.908 276.872 298.908C276.469 298.908 276.271 299.146 275.992 299.467C274.116 301.819 272.241 304.056 270.481 304.056C268.803 304.056 267.208 302.296 267.208 301.021C267.208 298.464 271.123 295.19 274.635 292.838C275.194 292.476 275.556 292.123 275.556 291.678C275.556 290.84 274.034 289.721 272.759 289.721C272.603 289.721 272.48 289.721 272.323 289.762C272.044 289.762 270.687 288.323 270.687 287.089C270.687 284.614 274.676 281.217 275.876 281.217C276.559 281.217 277.472 281.932 277.472 282.492C277.472 283.092 276.872 284.169 276.23 285.485C276.115 285.732 276.074 285.888 276.074 286.094Z" fill="#00833E"/>
</g>
<mask id="mask9_122_66" style="mask-type:luminance" maskUnits="userSpaceOnUse" x="55" y="-77" width="512" height="501">
<path d="M566.019 -77H55V423.27H566.019V-77Z" fill="white"/>
</mask>
<g mask="url(#mask9_122_66)">
<path d="M355.769 288.126C355.407 288.126 355.053 288.323 354.889 288.882C354.412 290.519 353.335 296.029 352.093 298.941C351.574 300.174 349.181 303.736 347.577 303.736C347.216 303.736 346.5 303.135 346.5 302.617C346.5 300.939 349.091 292.197 349.337 291.202C349.42 290.963 349.494 290.527 349.494 290.239C349.494 289.524 346.862 288.126 346.097 288.126C345.735 288.126 345.414 288.323 345.217 288.882C344.658 290.387 343.482 294.59 342.643 298.077C340.776 301.4 338.794 304.139 337.667 304.139C337.305 304.139 336.951 303.859 336.951 303.423C336.951 301.145 339.271 293.842 339.271 292.526C339.271 290.848 334.196 290.445 334.196 289.45C334.196 288.413 334.797 287.41 334.797 286.571C334.797 285.65 332.757 284.375 331.605 284.375C330.61 284.375 328.933 287.492 328.933 288.849C328.933 290.206 330.61 291.243 330.61 291.243C330.61 291.243 329.196 294.804 327.822 297.312C327.765 297.403 327.732 297.477 327.732 297.477C327.732 297.485 327.724 297.493 327.724 297.493C327.707 297.526 327.65 297.625 327.575 297.773C325.009 302.634 321.942 304.065 319.828 304.065C318.109 304.065 316.398 302.584 316.398 301.63C316.398 300.355 316.719 299.673 316.719 299.673C316.719 299.673 318.677 300.232 320.47 300.232C323.068 300.232 325.618 293.842 325.618 291.843C325.618 290.124 321.942 288.134 319.91 288.134C316.982 288.134 313.553 293.455 312.237 297.921C310.345 301.318 308.281 304.147 307.171 304.147C306.052 304.147 304.934 303.193 304.934 301.91C304.934 300.989 306.414 295.519 307.73 291.012H310.921C311.562 291.012 312.319 289.417 312.319 288.899C312.319 288.66 312.081 288.537 311.842 288.537H308.412L309.531 284.86C309.613 284.581 309.687 284.145 309.687 283.898C309.687 283.183 307.055 281.661 306.258 281.661C305.937 281.661 305.575 281.982 305.419 282.541C305.139 283.421 304.498 285.732 303.741 288.529H302.622C301.981 288.529 301.265 290.124 301.265 290.601C301.265 290.84 301.504 290.996 301.701 290.996H303.058C302.433 293.381 301.792 295.881 301.282 298.003C299.407 301.359 297.408 304.139 296.265 304.139C295.903 304.139 295.188 303.538 295.188 303.02C295.188 299.829 297.902 293.2 297.902 291.802C297.902 290.807 295.508 290.527 294.464 290.527C294.464 290.527 292.424 288.134 289.233 288.134C285.598 288.134 280.844 296.959 280.844 302.231C280.844 304.385 284.158 306.902 285.993 306.902C288.032 306.902 290.426 304.27 290.426 304.27C290.746 305.389 294.061 306.902 295.854 306.902C297.54 306.902 299.045 305.652 300.443 303.818C301.241 305.496 304.366 306.902 306.718 306.902C308.733 306.902 310.477 305.167 312.089 302.773C313.331 305.134 317.114 306.902 320.009 306.902C323.241 306.902 326.704 304.435 329.418 299.294C329.426 299.286 329.426 299.278 329.426 299.278C331.383 295.684 332.782 292.411 332.782 292.411C332.782 292.411 334.377 292.731 334.377 293.167C334.377 295.001 332.263 300.709 332.263 303.826C332.263 305.381 335.455 306.902 337.256 306.902C338.95 306.902 340.463 305.635 341.878 303.777C342.569 305.29 345.102 306.902 346.878 306.902C348.4 306.902 350.152 305.142 351.673 303.39C351.673 303.39 350.991 305.866 350.234 308.465C346.401 309.542 342.486 312.174 342.486 315.011C342.486 316.368 345.48 318.885 347.594 318.885C349.148 318.885 351.426 318.17 352.101 316.845C352.463 316.089 353.261 313.416 354.141 310.101C356.057 310.422 356.698 311.417 357.332 311.417C357.932 311.417 358.853 310.299 358.853 309.624C358.853 309.106 357.093 308.185 354.7 307.988C355.218 306.071 355.695 304.073 356.18 302.198C357.693 295.931 358.697 292.213 358.977 291.218C359.059 290.979 359.133 290.544 359.133 290.256C359.157 289.524 356.526 288.126 355.769 288.126ZM321.267 291.243C321.827 291.243 322.468 291.679 322.468 292.238C322.468 293.315 320.831 297.872 316.999 297.872C317.361 295.988 319.713 291.243 321.267 291.243ZM290.845 300.1C289.726 302.42 287.728 303.81 286.93 303.81C286.247 303.81 285.532 303.127 285.532 302.214C285.532 298.702 288.723 291.317 290.722 291.317C291.363 291.317 292.876 291.835 292.876 292.476C292.885 293.595 291.643 298.423 290.845 300.1ZM348.301 314.395C347.906 315.233 346.664 315.752 346.064 315.752C345.546 315.752 345.028 315.151 345.028 314.674C345.028 313.317 347.026 311.557 349.576 310.603C349.058 312.281 348.581 313.761 348.301 314.395Z" fill="#00833E"/>
</g>
<mask id="mask10_122_66" style="mask-type:luminance" maskUnits="userSpaceOnUse" x="55" y="-77" width="512" height="501">
<path d="M566.019 -77H55V423.27H566.019V-77Z" fill="white"/>
</mask>
<g mask="url(#mask10_122_66)">
<path d="M372.136 291.678C370.26 291.678 369.101 294.392 369.101 295.914C369.101 296.909 370.894 298.11 372.012 298.11C373.887 298.11 375.047 295.396 375.047 293.874C375.047 292.879 373.254 291.678 372.136 291.678Z" fill="#00833E"/>
</g>
<mask id="mask11_122_66" style="mask-type:luminance" maskUnits="userSpaceOnUse" x="55" y="-77" width="512" height="501">
<path d="M566.019 -77H55V423.27H566.019V-77Z" fill="white"/>
</mask>
<g mask="url(#mask11_122_66)">
<path d="M411.185 134.838C411.185 133.555 410.141 132.51 408.858 132.51C410.116 132.51 411.144 131.507 411.185 130.257C411.202 129.772 411.013 129.303 410.708 128.925C409.902 127.938 409.228 127.798 408.611 127.864L391.035 130.051C387.82 130.454 384.563 130.273 381.413 129.541C380.409 119.927 375.36 82.0286 358.294 82.0286C338.827 82.0286 323.669 101.504 317.607 114.104C311.752 112.953 305.394 111.127 298.995 108.298H303.157C309.934 108.298 315.42 102.804 315.42 96.0349V54.7069C315.42 52.9551 313.207 52.1902 312.13 53.5719L311.233 54.7069L310.403 52.7824C309.827 51.4418 307.993 51.2773 307.179 52.4863L305.698 54.7069L303.215 48.777C302.828 47.8559 301.455 48.1273 301.455 49.1307V62.8738C301.455 65.6208 302.696 68.2197 304.835 69.9468L301.126 94.0857C301.126 94.0857 281.527 97.4824 270.794 84.1752L287.794 80.4988L290.352 67.5617H276.913V49.6735L267.685 60.242L264.757 49.6735C264.757 49.6735 264.329 49.8956 263.589 50.3315C233.956 67.389 233.076 100.295 233.076 100.295L240.034 93.0494L235.239 113.134L243.785 108.758L236.695 118.397C226.464 132.173 209.826 138.777 209.826 138.777L215.797 144.132L209.826 148.482L268.326 157.94C268.326 157.94 274.486 158.5 276.312 165.367C276.312 165.367 283.369 165.573 282.086 158.969C282.086 158.969 284.15 160.49 285.104 159.544C286.05 158.598 284.932 154.026 284.932 154.026L287.021 155.777C287.884 146.295 268.524 143.934 268.524 143.934L241.547 138.037L257.322 130.635C264.979 137.774 275.112 141.829 285.738 141.829L328.694 141.853H328.702C342.075 141.944 352.331 144.584 352.479 148.227C352.635 152.315 340.011 155.999 324.286 156.748C312.599 157.307 293.666 156.674 293.666 156.674C297.754 166.247 310.312 172.901 324.894 172.333C342.412 171.651 356.221 160.803 355.72 148.104C355.637 145.957 355.16 143.844 354.354 141.829H408.767C410.042 141.829 411.153 140.85 411.194 139.575C411.235 138.259 410.174 137.174 408.866 137.174C410.141 137.165 411.185 136.121 411.185 134.838ZM261.952 70.3663C260.398 70.3663 259.148 69.1079 259.148 67.5617H264.765C264.765 69.1079 263.507 70.3663 261.952 70.3663ZM267.068 67.5535H272.685C272.685 69.1079 271.427 70.3581 269.881 70.3581C268.326 70.3663 267.068 69.1079 267.068 67.5535ZM348.186 121.761L359.083 105.542L368.352 126.49L348.186 121.761Z" fill="#00833E"/>
</g>
<mask id="mask12_122_66" style="mask-type:luminance" maskUnits="userSpaceOnUse" x="55" y="-77" width="512" height="501">
<path d="M566.019 -77H55V423.27H566.019V-77Z" fill="white"/>
</mask>
<g mask="url(#mask12_122_66)">
<path d="M285.614 45.1169C294.069 45.1169 304.062 41.4817 307.384 40.174C311.332 41.7448 324.787 46.7618 336.088 46.7618C345.283 46.7618 352.216 42.6002 352.216 37.0816C352.216 31.563 345.283 27.4014 336.088 27.4014C329.393 27.4014 321.95 29.1614 316.168 30.9214C306.003 33.9974 335.265 42.6331 335.265 42.6331C323.068 42.6331 315.486 37.0158 307.212 33.9234C303.585 32.517 293.798 29.0463 285.614 29.0463C278.245 29.0463 272.685 32.5005 272.685 37.0816C272.685 41.6626 278.245 45.1169 285.614 45.1169Z" fill="#00833E"/>
</g>
</g>
</svg>
