<svg width="492" height="200" viewBox="0 0 492 200" fill="none" xmlns="http://www.w3.org/2000/svg">
<g clip-path="url(#clip0_360_199)">
<path d="M108.265 200C48.5688 200 0 155.139 0 100C0 44.8611 48.5688 0 108.265 0C167.961 0 216.53 44.8611 216.53 100C216.53 155.139 167.967 200 108.265 200ZM108.265 11.0095C55.1411 11.0095 11.9194 50.9318 11.9194 100C11.9194 149.068 55.1411 188.991 108.265 188.991C161.388 188.991 204.61 149.068 204.61 100C204.616 50.9318 161.395 11.0095 108.265 11.0095Z" fill="#45AAF2"/>
<path d="M108.265 169.424C66.8253 169.424 33.1094 138.282 33.1094 100C33.1094 61.7183 66.8253 30.5762 108.271 30.5762C149.716 30.5762 183.426 61.7183 183.426 100C183.426 138.282 149.71 169.424 108.265 169.424ZM108.265 41.5857C73.3915 41.5857 45.0226 67.7889 45.0226 100C45.0226 132.211 73.3915 158.414 108.265 158.414C143.138 158.414 171.507 132.211 171.507 100C171.507 67.7889 143.138 41.5857 108.265 41.5857Z" fill="#45AAF2"/>
<path d="M108.265 138.842C85.076 138.842 66.2129 121.419 66.2129 100C66.2129 78.5813 85.076 61.1582 108.265 61.1582C131.454 61.1582 150.317 78.5813 150.317 100C150.317 121.419 131.454 138.842 108.265 138.842ZM108.265 72.1677C91.6484 72.1677 78.1323 84.652 78.1323 100C78.1323 115.348 91.6484 127.832 108.265 127.832C124.882 127.832 138.398 115.348 138.398 100C138.398 84.652 124.882 72.1677 108.265 72.1677Z" fill="#45AAF2"/>
<path d="M259.924 127.758V72.6194H282.773C287.086 72.6194 290.676 73.2425 293.541 74.4886C296.407 75.7347 298.554 77.4382 299.984 79.5875C301.413 81.7425 302.125 84.1833 302.125 86.91C302.125 89.1565 301.661 91.0714 300.726 92.6605C299.792 94.2497 298.542 95.5358 296.97 96.5247C295.398 97.5136 293.634 98.2225 291.691 98.6512V99.1885C293.807 99.2971 295.843 99.8916 297.799 100.978C299.755 102.064 301.351 103.596 302.595 105.568C303.839 107.54 304.458 109.929 304.458 112.73C304.458 115.583 303.709 118.144 302.212 120.419C300.714 122.688 298.461 124.477 295.447 125.792C292.433 127.101 288.646 127.758 284.079 127.758H259.924ZM270.736 96.0674H281.436C283.305 96.0674 284.982 95.7473 286.48 95.1128C287.978 94.4783 289.16 93.5694 290.02 92.3919C290.886 91.2143 291.319 89.8196 291.319 88.2076C291.319 86.0697 290.509 84.3148 288.887 82.9315C287.266 81.5482 284.859 80.8565 281.671 80.8565H270.742V96.0674H270.736ZM270.736 119.413H282.364C286.288 119.413 289.122 118.715 290.862 117.326C292.601 115.937 293.467 114.148 293.467 111.953C293.467 110.318 293.028 108.843 292.155 107.523C291.282 106.202 290.038 105.162 288.423 104.402C286.808 103.641 284.883 103.258 282.649 103.258H270.73V119.413H270.736Z" fill="#45AAF2"/>
<path d="M326.292 127.758C323.457 127.758 320.908 127.289 318.643 126.346C316.378 125.403 314.589 124.008 313.277 122.162C311.965 120.316 311.309 118.035 311.309 115.325C311.309 112.993 311.773 111.061 312.708 109.535C313.642 108.009 314.911 106.791 316.526 105.871C318.141 104.956 319.961 104.259 321.991 103.784C324.021 103.31 326.125 102.961 328.303 102.75C330.927 102.498 333.056 102.269 334.69 102.064C336.324 101.858 337.512 101.532 338.261 101.092C339.01 100.652 339.381 99.9657 339.381 99.034V98.8739C339.381 96.8447 338.731 95.2727 337.425 94.1638C336.126 93.0491 334.251 92.4946 331.8 92.4946C329.213 92.4946 327.171 93.0148 325.661 94.0551C324.157 95.0955 323.142 96.3245 322.616 97.7421L312.763 96.4503C313.543 93.9351 314.824 91.8315 316.613 90.1395C318.401 88.4418 320.586 87.1671 323.173 86.3154C325.76 85.4636 328.613 85.0349 331.744 85.0349C333.904 85.0349 336.045 85.2693 338.187 85.738C340.328 86.2067 342.277 86.9727 344.047 88.0417C345.817 89.1106 347.241 90.5568 348.317 92.3917C349.394 94.2209 349.933 96.5131 349.933 99.2569V126.935H339.789V121.253H339.443C338.799 122.402 337.902 123.477 336.745 124.471C335.587 125.466 334.139 126.266 332.4 126.866C330.661 127.467 328.625 127.758 326.292 127.758ZM329.033 120.596C331.15 120.596 332.988 120.207 334.541 119.424C336.095 118.641 337.295 117.606 338.143 116.314C338.991 115.022 339.412 113.61 339.412 112.09V107.214C339.084 107.465 338.521 107.7 337.735 107.911C336.949 108.129 336.07 108.317 335.098 108.477C334.127 108.637 333.167 108.78 332.214 108.906C331.261 109.032 330.438 109.14 329.739 109.226C328.167 109.426 326.756 109.746 325.512 110.198C324.268 110.649 323.284 111.272 322.566 112.067C321.848 112.867 321.489 113.896 321.489 115.148C321.489 116.943 322.201 118.298 323.618 119.212C325.029 120.138 326.836 120.596 329.033 120.596Z" fill="#45AAF2"/>
<path d="M365.875 82.8742C364.185 82.8742 362.743 82.3598 361.549 81.3251C360.354 80.2905 359.754 79.0501 359.754 77.5981C359.754 76.1291 360.354 74.8772 361.561 73.8426C362.768 72.8079 364.204 72.2935 365.875 72.2935C367.545 72.2935 368.981 72.8079 370.176 73.8426C371.37 74.8772 371.97 76.1291 371.97 77.5981C371.97 79.0501 371.37 80.2962 370.176 81.3251C368.981 82.3598 367.545 82.8742 365.875 82.8742ZM360.571 127.758V86.4069H371.123V127.758H360.571Z" fill="#45AAF2"/>
<path d="M381.965 127.758V86.4068H392.052V93.4321H392.578C393.513 91.0655 395.054 89.2078 397.214 87.8702C399.367 86.5326 401.948 85.8638 404.937 85.8638C407.97 85.8638 410.532 86.544 412.617 87.8988C414.703 89.2535 416.176 91.0998 417.036 93.4321H417.5C418.49 91.1341 420.168 89.2992 422.532 87.9273C424.896 86.5554 427.693 85.8695 430.942 85.8695C435.064 85.8695 438.424 87.0699 441.03 89.4764C443.635 91.883 444.935 95.3927 444.935 100.006V127.764H434.352V101.515C434.352 98.9483 433.616 97.0676 432.136 95.8729C430.657 94.6782 428.85 94.0837 426.715 94.0837C424.172 94.0837 422.185 94.8154 420.755 96.2788C419.326 97.7421 418.614 99.6399 418.614 101.972V127.764H408.267V101.109C408.267 98.9711 407.574 97.2677 406.181 95.9929C404.789 94.7182 402.982 94.0837 400.747 94.0837C399.231 94.0837 397.851 94.4381 396.607 95.1469C395.363 95.8558 394.373 96.8504 393.637 98.1365C392.9 99.4227 392.529 100.915 392.529 102.618V127.764L381.965 127.758Z" fill="#45AAF2"/>
<path d="M491.041 96.5246L481.423 97.4964C481.151 96.599 480.681 95.7587 480.012 94.9641C479.344 94.1753 478.44 93.535 477.314 93.0549C476.188 92.569 474.808 92.3289 473.174 92.3289C470.977 92.3289 469.139 92.7691 467.654 93.6494C466.168 94.5297 465.432 95.6672 465.45 97.0677C465.432 98.2681 465.908 99.2513 466.892 100C467.87 100.755 469.498 101.372 471.775 101.858L479.412 103.367C483.645 104.213 486.801 105.551 488.868 107.38C490.935 109.209 491.981 111.604 492 114.571C491.981 117.172 491.158 119.464 489.537 121.447C487.915 123.431 485.663 124.98 482.791 126.089C479.92 127.198 476.615 127.758 472.883 127.758C467.406 127.758 462.993 126.695 459.652 124.569C456.31 122.442 454.317 119.475 453.673 115.668L463.965 114.754C464.429 116.623 465.419 118.029 466.936 118.978C468.452 119.927 470.426 120.407 472.852 120.407C475.358 120.407 477.376 119.933 478.898 118.978C480.421 118.029 481.188 116.852 481.188 115.451C481.188 114.268 480.699 113.29 479.715 112.519C478.731 111.747 477.215 111.153 475.154 110.741L467.517 109.26C463.222 108.437 460.048 107.037 457.987 105.076C455.926 103.11 454.905 100.617 454.923 97.605C454.905 95.0556 455.66 92.8434 457.182 90.9685C458.705 89.0935 460.834 87.6416 463.569 86.607C466.298 85.5723 469.454 85.0579 473.025 85.0579C478.273 85.0579 482.407 86.0925 485.427 88.1561C488.448 90.2196 490.317 93.0092 491.041 96.5246Z" fill="#45AAF2"/>
</g>
<defs>
<clipPath id="clip0_360_199">
<rect width="492" height="200" fill="white"/>
</clipPath>
</defs>
</svg>
