<svg width="325" height="434" viewBox="0 0 325 434" fill="none" xmlns="http://www.w3.org/2000/svg">
<g clip-path="url(#clip0_360_173)">
<path d="M162.487 0C72.8965 0 0 62.9442 0 140.304V293.696C0 371.056 72.8965 434 162.487 434C252.078 434 324.975 371.056 324.975 293.696V140.304C325 62.9442 252.103 0 162.487 0ZM320.468 219.685C309.892 219.729 301.985 222.338 297 227.491C296.572 227.947 296.169 228.404 295.791 228.86V215.598C297.126 216.815 298.737 217.794 300.55 218.446C302.212 219.033 303.975 219.337 305.762 219.337C308.381 219.337 311.05 218.707 313.619 217.467C316.288 216.185 318.629 214.315 320.468 212.032V219.685ZM313.593 239.036C309.716 242.689 303.723 244.45 295.791 244.298C295.791 241.362 295.69 234.861 300.475 229.969C304.327 225.99 310.521 223.86 318.906 223.577C319.083 226.86 318.831 234.1 313.593 239.036ZM318.906 206.422C317.32 209.771 314.651 212.467 311.403 214.054C308.306 215.554 305.082 215.815 302.262 214.837C299.467 213.836 297.377 211.684 296.37 208.749C296.018 207.683 295.816 206.575 295.791 205.422V204.574C295.841 202.661 296.32 200.682 297.226 198.769C299.82 193.29 305.234 189.768 310.37 189.768C311.554 189.768 312.737 189.963 313.87 190.355C316.665 191.355 318.755 193.507 319.762 196.443C320.77 199.53 320.468 203.074 318.906 206.422ZM288.665 198.138C282.899 200.639 275.118 197.356 271.341 190.833C267.564 184.31 269.201 176.983 274.967 174.483C276.251 173.917 277.661 173.657 279.122 173.657C280.758 173.657 282.446 174.004 284.133 174.678C287.507 176.026 290.402 178.57 292.291 181.788C296.068 188.311 294.431 195.66 288.665 198.138ZM284.535 202.878C286.651 202.878 288.741 202.487 290.679 201.639C291.032 201.487 291.359 201.313 291.687 201.139C291.435 202.248 291.284 203.378 291.259 204.487V204.705C291.259 204.966 291.259 205.227 291.259 205.487V211.814C290.881 211.336 290.478 210.88 290.025 210.423C285.014 205.27 277.082 202.639 266.481 202.617V191.072C266.733 191.594 266.985 192.116 267.287 192.616C270.989 198.986 277.913 202.878 284.535 202.878ZM291.259 227.23C283.327 227.404 277.309 225.599 273.431 221.968C268.194 217.033 267.942 209.771 268.143 206.531C276.503 206.792 282.697 208.923 286.55 212.902C291.309 217.772 291.259 224.338 291.259 227.23ZM266.481 219.99C267.388 221.599 268.546 223.164 270.057 224.599C274.665 228.969 281.464 231.165 290.251 231.165C290.579 231.165 290.931 231.143 291.259 231.143V241.754C291.233 242.363 291.233 242.95 291.259 243.471V245.885C290.881 245.406 290.478 244.95 290.025 244.493C285.014 239.34 277.107 236.731 266.481 236.688V219.99ZM268.143 240.623C276.503 240.884 282.697 243.015 286.55 246.994C291.309 251.864 291.259 258.43 291.259 261.344C283.327 261.518 277.309 259.713 273.431 256.082C268.194 251.125 267.942 243.863 268.143 240.623ZM297 262.866C296.572 263.322 296.169 263.779 295.791 264.257V248.211C296.118 248.211 296.446 248.233 296.773 248.233C305.561 248.233 312.334 246.037 316.967 241.667C318.453 240.275 319.586 238.753 320.468 237.188V255.06C309.892 255.104 301.985 257.713 297 262.866ZM313.619 274.433C309.741 278.085 303.748 279.846 295.791 279.694C295.791 276.781 295.715 270.258 300.475 265.366C304.327 261.387 310.521 259.256 318.906 258.974C319.083 262.235 318.831 269.497 313.619 274.433ZM162.487 3.91363C249.585 3.91363 320.468 65.0967 320.468 140.325V189.724C319.083 188.441 317.446 187.419 315.557 186.745C309.993 184.789 303.597 186.289 298.762 190.116C299.014 186.876 298.259 183.375 296.32 180.071C294.003 176.048 290.327 172.896 286.021 171.156C281.539 169.352 276.881 169.308 272.927 171.026C270.007 172.287 267.841 174.374 266.481 176.918V138.477C266.481 88.9699 219.823 48.6812 162.487 48.6812C105.152 48.6812 58.4934 88.9699 58.4934 138.477V176.874C57.1337 174.331 54.9431 172.243 52.0473 170.982C48.0689 169.265 43.4357 169.308 38.9537 171.113C34.6479 172.852 30.9967 176.005 28.655 180.027C26.7413 183.332 25.9859 186.832 26.2125 190.072C21.3528 186.245 14.9822 184.745 9.41737 186.702C7.55404 187.398 5.89215 188.42 4.53242 189.702V140.304C4.53242 65.0967 75.3893 3.91363 162.487 3.91363ZM202.02 206.009C201.97 205.683 201.945 205.422 201.945 205.292C202.02 204.183 202.146 203.27 202.297 202.552C203.43 197.03 206.099 193.594 210.506 192.072C213.351 191.529 215.592 191.377 217.204 191.637C224.431 192.79 231.682 196.899 238.758 203.835C243.064 207.988 243.719 209.358 243.794 209.662C243.97 210.553 243.794 211.423 243.265 212.336L242.485 213.684C240.873 216.446 238.909 219.794 237.071 221.946C236.391 221.925 235.686 221.881 234.956 221.859C232.941 221.772 230.675 221.664 228.208 221.707C223.549 221.794 220.528 221.946 218.689 222.207L216.272 222.555L216.876 224.621C217.733 227.534 218.035 229.969 217.758 231.861C216.675 229.382 215.265 226.556 213.502 224.077L212.747 223.034L211.337 223.164C210.053 223.273 208.794 223.403 207.384 223.577C203.657 224.229 200.056 225.056 194.97 226.425C187.743 228.382 181.952 230.361 176.739 232.665C150.602 244.167 130.937 258.039 116.836 274.846C118.271 270.541 119.807 266.475 121.142 263.735C121.167 263.648 124.793 255.865 131.34 248.559C131.793 248.037 132.271 247.515 132.75 247.015C143.074 236.122 154.379 226.991 164.603 221.316C177.293 214.25 191.042 210.271 200.358 208.183L202.322 207.749L202.02 206.009ZM188.373 194.355C188.02 194.79 186.887 195.638 184.873 196.116C183.865 196.356 183.009 196.421 182.304 196.399C181.624 196.377 181.096 196.269 180.819 196.16C181.171 195.725 182.304 194.877 184.319 194.399C185.326 194.16 186.182 194.094 186.887 194.116C187.592 194.116 188.096 194.225 188.373 194.355ZM137.685 171.7C137.433 171.917 137.156 172.135 136.904 172.352C136.728 172.482 136.552 172.591 136.35 172.722C134.663 173.787 133.178 174.026 132.573 173.983C132.724 173.461 133.455 172.33 135.142 171.287C136.829 170.221 138.314 169.982 138.919 170.026C138.793 170.352 138.415 170.982 137.685 171.7ZM105.303 365.729L105.228 365.49C105.177 365.316 99.9148 348.639 107.695 334.42C108.275 333.354 108.98 332.376 109.76 331.398C116.282 323.288 122.552 317.004 123.66 315.961C133.43 306.655 140.43 297.393 168.782 285.26C183.034 279.172 207.786 273.932 233.395 268.91C234.78 268.649 235.913 267.845 236.517 266.736L245.985 248.929C246.841 247.32 246.337 245.406 244.751 244.276L243.995 243.754C242.938 242.993 241.528 242.71 240.168 242.95C225.085 245.776 203.481 250.733 187.013 255.082L185.88 255.386C183.563 256.017 164.3 261.235 149.973 269.867C127.915 283.151 119.832 296.24 111.296 311.308C109.861 313.852 107.242 319.331 104.9 325.332C104.472 326.44 104.069 327.527 103.667 328.636C105.001 315.352 107.167 305.655 109.156 299.001C112.958 286.413 117.012 281.629 117.062 281.586L117.012 281.564C130.836 263.235 151.056 248.342 178.779 236.101C183.765 233.905 189.355 231.991 196.304 230.1C201.214 228.774 204.689 227.969 208.114 227.36C208.844 227.273 209.599 227.186 210.33 227.121C212.822 230.991 214.51 235.601 215.366 237.927C216.046 239.753 216.524 241.08 218.488 240.862C218.488 240.862 219.369 240.884 219.848 240.384C220.2 240.014 220.402 239.275 220.402 239.275C220.452 239.036 220.578 238.601 220.805 237.971C221.056 237.188 221.459 235.666 222.013 233.318C222.517 231.209 222.441 228.73 221.787 225.773C223.398 225.664 225.538 225.599 228.258 225.556C230.549 225.512 232.74 225.621 234.654 225.708C235.887 225.773 237.046 225.817 238.078 225.838L239.161 225.86L239.841 225.143C242.183 222.751 244.549 218.663 246.488 215.402L247.269 214.076C248.301 212.38 248.603 210.619 248.226 208.836L248.201 208.749C247.924 207.683 246.967 205.857 242.132 201.182C234.377 193.573 226.269 189.05 218.01 187.724C215.743 187.354 212.898 187.528 209.348 188.224L209.02 188.311C203.027 190.311 199.25 194.855 197.84 201.791C197.664 202.574 197.538 203.552 197.437 204.748C187.894 207.009 174.574 211.075 162.135 217.968C151.534 223.86 139.85 233.296 129.224 244.493C128.721 245.037 128.217 245.58 127.739 246.124C120.789 253.886 117.088 261.909 116.937 262.213C113.739 268.801 109.76 281.868 108.023 288.826C105.303 295.197 102.156 305.111 100.091 319.831C101.274 287.326 110.339 245.124 145.415 221.251C155.538 214.358 170.822 203.965 186.509 199.726C190.966 198.53 193.686 195.79 192.855 193.225C192.225 191.246 189.707 190.116 186.509 190.137C185.452 190.137 184.293 190.289 183.135 190.572C178.426 191.703 175.531 194.551 176.387 197.182C176.563 197.725 176.89 198.182 177.293 198.595C163.772 203.791 151.207 212.119 142.52 218.25C108.728 242.058 101.652 267.823 97.2457 308.72C96.8428 312.33 96.591 315.895 96.3895 319.331C93.6953 265.453 110.944 240.645 115.275 235.296C115.879 234.6 116.257 234.166 116.257 234.166C121.771 227.295 127.94 220.772 129.199 219.49C132.901 215.793 145.994 202.074 174.322 189.942C188.574 183.854 207.761 179.918 233.369 174.896C234.754 174.635 235.887 173.83 236.492 172.722L245.96 154.915C246.816 153.306 246.312 151.392 244.726 150.262L243.97 149.74C242.913 148.979 241.503 148.696 240.143 148.935C225.06 151.762 209.02 155.415 192.552 159.763L191.419 160.068C189.455 160.589 187.592 161.089 185.955 161.089C185.653 161.089 185.376 161.068 185.074 161.046C183.437 160.742 177.293 157.154 171.502 152.262C162.261 144.152 160.851 139.782 161.556 135.694C161.933 133.542 170.923 128.954 184.142 128.954C186.534 128.954 189.052 129.106 191.671 129.432C200.358 130.541 207.635 132.89 214.535 136.803C216.297 137.803 218.639 137.608 220.175 136.347L223.323 133.694C224.758 132.476 225.11 130.585 224.154 129.041C215.013 114.3 203.707 106.538 188.574 104.581C186.811 104.364 185.049 104.233 183.286 104.233C171.452 104.233 159.894 109.321 150.93 118.648C144.735 125.28 140.102 133.955 138.818 141.304C136.476 154.893 142.771 163.307 155.512 174.526C132.976 190.855 125.372 200.9 116.836 215.967C115.35 218.576 112.127 225.904 109.156 233.165C107.318 237.688 105.253 242.145 103.138 246.581C96.868 259.778 90.1449 282.369 91.6809 317.222C86.1412 258.408 108.249 200.943 140.153 174.918C140.304 174.787 140.455 174.657 140.606 174.526C140.656 174.483 140.707 174.439 140.757 174.396C143.35 172.113 144.207 169.352 142.671 167.525C141.739 166.416 140.178 165.916 138.365 165.981C136.552 166.068 134.462 166.721 132.473 167.96C128.519 170.417 126.933 173.961 128.796 176.179C129.325 176.831 130.106 177.244 130.987 177.483C94.3248 213.249 72.8209 290.196 95.8608 359.097C75.6915 343.378 63.0007 320.635 63.0007 295.371V138.477C63.0007 128.128 65.141 118.192 69.0439 108.995C72.3929 110.495 75.9936 111.473 79.7203 111.886L79.5944 130.15C79.5944 131.237 80.6016 132.107 81.8354 132.107C83.0944 132.107 84.1016 131.237 84.1016 130.172L84.2275 112.147C88.2564 112.126 92.1089 111.452 95.6845 110.277L111.624 137.282C112.177 138.238 113.562 138.63 114.67 138.129C115.778 137.629 116.231 136.455 115.652 135.499L99.7889 108.647C103.767 106.755 107.217 104.146 109.987 101.037L127.739 111.995C128.746 112.626 130.156 112.408 130.886 111.539C131.617 110.669 131.365 109.451 130.358 108.821L112.48 97.7973C114.242 95.123 115.501 92.1878 116.156 89.0786L149.293 92.0791C150.527 92.1878 151.635 91.405 151.786 90.3397C151.912 89.2743 151.005 88.2959 149.771 88.1872L116.66 85.1867C116.685 84.7519 116.735 84.3388 116.735 83.9039C116.735 81.3166 116.332 78.7727 115.526 76.3376L136.627 70.5758C137.811 70.2497 138.491 69.1626 138.113 68.1189C137.735 67.097 136.476 66.51 135.268 66.8361L113.99 72.6414C112.782 70.2497 111.17 67.9885 109.206 65.9447C124.616 57.4869 142.847 52.5731 162.412 52.5731C217.254 52.5731 261.873 91.1006 261.873 138.456V295.501C261.873 342.856 217.254 381.383 162.412 381.383C141.21 381.405 121.494 375.6 105.303 365.729ZM110.113 323.94C112.203 319.07 114.192 315.069 115.35 313.047C124.163 297.458 131.994 285.478 152.541 273.085C165.836 265.062 183.739 260.061 187.189 259.126L188.322 258.822C205.117 254.364 226.319 249.538 241.1 246.754L241.855 247.276L232.387 265.083C208.567 269.736 181.901 275.259 166.743 281.738C141.261 292.653 132.447 301.35 123.911 309.764C122.678 310.982 121.494 312.134 120.26 313.308C119.757 313.786 118.523 315.178 116.811 316.961C115.073 318.831 113.21 320.657 110.113 323.94ZM158.736 171.895C146.599 161.22 141.21 154.023 143.275 141.978C144.433 135.281 148.714 127.323 154.379 121.236C162.437 112.843 172.685 108.234 183.261 108.234C184.797 108.234 186.358 108.342 187.869 108.538C201.466 110.299 211.74 117.431 220.15 130.976L217.002 133.629C209.524 129.389 201.693 126.867 192.326 125.671C189.581 125.323 186.837 125.149 184.117 125.149C170.621 125.149 157.98 129.846 157.048 135.216C155.966 141.478 159.113 147.066 168.254 155.089L168.279 155.11L168.304 155.132C173.466 159.48 180.768 164.329 184.092 164.938L184.243 164.96L184.394 164.981C184.898 165.047 185.401 165.068 185.93 165.068C188.247 165.068 190.538 164.46 192.729 163.872L193.887 163.59C210.254 159.263 226.143 155.632 241.1 152.849L241.855 153.371L232.387 171.156C205.445 176.418 186.736 180.353 172.333 186.506C144.03 198.617 130.559 212.184 126.127 216.641L125.775 216.989C125.196 217.554 124.239 218.663 122.325 220.903C120.638 222.86 118.523 225.316 116.231 227.882C118.17 223.381 119.908 219.511 120.915 217.772C129.527 202.552 137.005 193.138 158.433 177.592L162.185 174.874L158.736 171.895ZM105.555 68.1407C109.911 72.5326 112.278 78.077 112.278 83.9257C112.278 97.3407 99.6378 108.277 84.0765 108.277C79.4181 108.277 74.8605 107.299 70.7814 105.407L70.7058 105.364C78.0584 90.2744 90.2456 77.4029 105.555 68.1407ZM58.4934 236.688C47.8674 236.71 39.9609 239.34 34.95 244.493C34.4968 244.95 34.0939 245.428 33.7162 245.885V231.122C34.0435 231.122 34.3961 231.143 34.7234 231.143C43.5113 231.143 50.2847 228.947 54.9179 224.577C56.4287 223.142 57.587 221.577 58.4934 219.99V236.688ZM51.5689 256.06C47.6912 259.713 41.6731 261.496 33.7414 261.322C33.7414 258.408 33.691 251.842 38.4501 246.972C42.3026 243.015 48.4969 240.884 56.8567 240.601C57.0582 243.863 56.8064 251.125 51.5689 256.06ZM58.4934 202.596C47.8926 202.617 39.9609 205.248 34.95 210.401C34.4968 210.858 34.0939 211.336 33.7162 211.793V205.357C33.7162 205.227 33.7162 205.096 33.7162 204.944V203.965H33.691C33.6407 203.009 33.4896 202.074 33.263 201.117C33.5903 201.291 33.9176 201.465 34.2702 201.617C36.209 202.465 38.299 202.857 40.4141 202.857C47.0365 202.857 53.961 198.986 57.6625 192.572C57.9647 192.051 58.2165 191.551 58.4683 191.029V202.596H58.4934ZM33.7414 226.295C33.7666 223.077 34.1443 217.294 38.4501 212.88C42.3026 208.923 48.4969 206.792 56.8567 206.509C57.0582 209.771 56.8064 217.011 51.5689 221.946C47.6912 225.599 41.6479 227.382 33.7414 227.208V226.295ZM53.6589 190.855C49.8818 197.377 42.1012 200.639 36.3349 198.16C30.5687 195.66 28.932 188.333 32.709 181.81C34.5723 178.57 37.468 176.048 40.8674 174.7C42.5544 174.026 44.2415 173.678 45.8782 173.678C47.3386 173.678 48.7487 173.961 50.0329 174.505C55.7992 177.005 57.4359 184.332 53.6589 190.855ZM29.209 204.77V205.27C29.1838 206.466 28.9823 207.618 28.6046 208.727C27.6226 211.662 25.5327 213.815 22.7125 214.815C19.9175 215.815 16.6692 215.532 13.5721 214.032C10.3239 212.467 7.65476 209.749 6.06841 206.401C4.48206 203.052 4.1799 199.508 5.23747 196.421C6.21949 193.486 8.30944 191.333 11.1296 190.333C12.2627 189.942 13.421 189.746 14.6297 189.746C19.7664 189.746 25.1801 193.268 27.7737 198.747C28.7054 200.748 29.1838 202.791 29.209 204.77ZM11.3814 217.446C13.9498 218.685 16.6189 219.316 19.2376 219.316C21.0254 219.316 22.7628 219.033 24.4499 218.424C26.2629 217.772 27.8744 216.793 29.209 215.576V228.86C28.8313 228.382 28.4284 227.926 27.9751 227.469C22.9895 222.338 15.0829 219.707 4.53242 219.663V212.01C6.37057 214.293 8.71233 216.163 11.3814 217.446ZM29.209 244.319C21.2772 244.472 15.2592 242.689 11.3814 239.058C6.14395 234.122 5.89215 226.882 6.09359 223.621C14.4786 223.881 20.6729 226.034 24.5254 230.013C29.2845 234.883 29.209 241.428 29.209 244.319ZM4.53242 237.21C5.41373 238.753 6.54683 240.275 8.03246 241.667C12.6404 246.037 19.4391 248.233 28.2269 248.233C28.5543 248.233 28.9068 248.211 29.2341 248.211V264.279C28.8564 263.801 28.4535 263.322 28.0003 262.866C23.0146 257.734 15.1081 255.104 4.5576 255.06V237.21H4.53242ZM6.06841 258.995C14.4534 259.256 20.6477 261.409 24.5003 265.388C29.2593 270.28 29.209 276.802 29.209 279.716C21.2772 279.846 15.234 278.085 11.3562 274.454C6.14395 269.497 5.89215 262.235 6.06841 258.995ZM162.487 430.108C75.3893 430.108 4.50724 368.925 4.50724 293.696V272.606C5.38855 274.15 6.52165 275.672 7.9821 277.042C12.5901 281.412 19.3887 283.608 28.1766 283.608C28.5039 283.608 28.8564 283.586 29.1838 283.586V294.196C29.1838 336.051 55.1949 372.752 93.9723 392.885C95.0298 393.429 96.4147 393.146 97.0946 392.233C97.7745 391.298 97.4219 390.08 96.314 389.515C58.8712 370.056 33.7414 334.616 33.7414 294.196V265.214C34.0687 265.214 34.4212 265.236 34.7486 265.236C43.5364 265.236 50.3099 263.04 54.943 258.669C56.4539 257.234 57.6121 255.669 58.5186 254.082V295.523C58.5186 345.03 105.177 385.319 162.513 385.319C219.848 385.319 266.507 345.03 266.507 295.523V254.06C267.413 255.669 268.571 257.234 270.082 258.669C274.69 263.04 281.489 265.236 290.277 265.236C290.604 265.236 290.956 265.214 291.284 265.214V277.39C291.284 277.759 291.284 278.085 291.284 278.411V294.196C291.284 335.094 265.575 370.904 227.377 390.211C226.243 390.776 225.891 392.037 226.621 392.972C227.276 393.842 228.636 394.124 229.668 393.603C269.201 373.621 295.841 336.551 295.841 294.196V283.586C296.169 283.586 296.496 283.608 296.823 283.608C305.611 283.608 312.385 281.412 317.018 277.042C318.478 275.65 319.611 274.128 320.518 272.584V293.696C320.468 368.903 249.611 430.108 162.487 430.108Z" fill="#0F7269"/>
<path d="M44.9212 136.781H41.2197V143.413H18.7842V146.826H44.9212V136.781Z" fill="#0F7269"/>
<path d="M32.6586 133.433C36.8385 133.433 40.2378 132.15 42.8314 129.606C45.1731 127.28 46.3314 124.671 46.3314 121.757C46.3314 118.453 45.022 115.648 42.3781 113.321C39.7594 110.995 36.5615 109.843 32.8097 109.843C29.083 109.843 25.86 110.995 23.216 113.3C20.5469 115.604 19.2124 118.366 19.2124 121.583C19.2124 124.845 20.5218 127.628 23.1657 129.954C25.8096 132.281 28.9571 133.433 32.6586 133.433ZM25.7592 115.691C27.6477 114.082 29.9895 113.278 32.7845 113.278C35.5291 113.278 37.8709 114.082 39.8098 115.713C41.6983 117.344 42.6551 119.344 42.6551 121.714C42.6551 123.888 41.7234 125.823 39.8601 127.497C37.9968 129.172 35.6298 130.019 32.7341 130.019C29.9895 130.019 27.6729 129.215 25.7844 127.584C23.8959 125.975 22.9391 123.975 22.9391 121.627C22.9139 119.257 23.8455 117.278 25.7592 115.691Z" fill="#0F7269"/>
<path d="M48.4971 107.081L50.0834 103.972L33.3135 97.6234L59.1735 89.4265L33.7415 79.8381L32.1804 82.9473L48.8244 89.2308L22.9141 97.4277L48.4971 107.081Z" fill="#0F7269"/>
<path d="M50.2849 77.7944C53.2058 79.7729 56.5044 80.5991 60.2058 80.2513C63.9073 79.9034 66.8786 78.4684 69.1448 75.9898C71.4614 73.4459 72.3175 70.6194 71.6628 67.5102C71.3606 66.1404 70.8067 64.9229 70.0009 63.8575C69.0944 62.7269 67.8858 61.6398 66.3246 60.5961L65.6447 60.1395L58.9468 67.4667L61.8677 69.4453L65.8965 65.0316C67.2311 66.1405 67.9361 67.5754 68.0117 69.3366C68.0872 71.076 67.5081 72.6197 66.3246 73.946C64.9145 75.4897 62.9253 76.4681 60.3317 76.8594C57.5619 77.2726 55.0187 76.6855 52.7273 75.1418C50.5115 73.6416 49.2525 71.75 48.9251 69.467C48.5978 67.1841 49.2777 65.0968 50.9899 63.227C52.9036 61.1397 55.6482 60.1178 59.1986 60.2048L58.8209 56.8564C56.3281 56.9652 54.2381 57.3783 52.5259 58.074C50.7633 58.835 49.2525 59.9004 47.9935 61.2919C45.6265 63.8792 44.6697 66.771 45.1229 69.9889C45.6014 73.1415 47.3136 75.7506 50.2849 77.7944Z" fill="#0F7269"/>
<path d="M104.522 51.4209C106.084 50.6816 107.292 49.9206 108.174 49.1814C108.954 48.4639 109.508 47.6159 109.861 46.594C110.44 44.9199 110.238 43.3109 109.231 41.7672C108.476 40.5931 107.469 39.7234 106.184 39.1799C104.9 38.6146 103.54 38.4624 102.105 38.6798C102.735 37.0926 102.584 35.5924 101.677 34.1791C101.174 33.3964 100.494 32.7224 99.6124 32.1571C98.7562 31.5918 97.8498 31.2004 96.8929 31.0047C95.9361 30.8308 94.954 30.8525 93.8965 31.0917C92.8641 31.3309 91.5799 31.8092 90.0439 32.5267L86.5942 34.1791L99.285 53.9212L104.522 51.4209ZM95.508 41.0062L91.8317 35.2663L93.0404 34.6792C94.1986 34.1139 95.2562 33.94 96.1627 34.1356C97.0944 34.3313 97.8498 34.8749 98.4289 35.8098C99.0332 36.7665 99.2095 37.6362 98.9325 38.3972C98.6555 39.1799 97.8749 39.8756 96.5908 40.4844L95.508 41.0062ZM98.857 42.6587C100.72 41.7672 102.181 41.4411 103.263 41.6585C104.371 41.8759 105.202 42.4195 105.756 43.2675C106.31 44.1372 106.411 45.0503 106.008 45.9853C105.63 46.855 104.648 47.6812 103.087 48.4204L100.947 49.4423L97.1195 43.4631L98.857 42.6587Z" fill="#0F7269"/>
<path d="M131.541 41.8759L130.383 38.832L123.081 40.8975L116.08 22.4817L112.329 23.5471L120.487 45.0068L131.541 41.8759Z" fill="#0F7269"/>
<path d="M156.218 38.2448L155.764 35.0704L145.365 36.1358L144.307 28.6564L154.405 27.591L153.977 24.4166L143.854 25.482L143.124 20.0899L153.523 19.0028L153.07 15.8284L138.743 17.3069L141.89 39.7233L156.218 38.2448Z" fill="#0F7269"/>
<path d="M177.721 34.8966C176.84 35.5489 175.782 35.8315 174.574 35.7446C173.012 35.6359 171.879 35.0706 171.174 34.0269C170.771 33.4834 170.545 32.5484 170.494 31.2221L166.44 31.7005C166.592 33.8312 167.347 35.5271 168.681 36.7882C170.041 38.0493 171.854 38.7668 174.12 38.919C176.512 39.0929 178.577 38.5493 180.315 37.31C182.052 36.0707 183.009 34.4183 183.21 32.3528C183.361 30.809 183.009 29.461 182.128 28.3304C181.246 27.1998 179.786 26.1779 177.746 25.2865L175.228 24.1776C173.39 23.3731 172.534 22.4165 172.66 21.3294C172.735 20.5249 173.164 19.8944 173.944 19.416C174.725 18.9377 175.656 18.742 176.739 18.8072C177.62 18.8725 178.351 19.0899 178.879 19.4378C179.383 19.7422 179.912 20.3727 180.415 21.3076L183.764 19.8944C182.329 17.2418 180.088 15.8068 177.092 15.5894C174.876 15.4372 172.937 15.872 171.325 16.9156C169.714 17.9375 168.833 19.3073 168.681 21.0032C168.43 23.5036 170.041 25.5474 173.491 27.1128L175.908 28.2C176.538 28.4826 177.066 28.787 177.52 29.0914C177.973 29.3958 178.325 29.7002 178.602 30.0263C178.879 30.3525 179.056 30.7003 179.156 31.0699C179.257 31.4396 179.282 31.8527 179.257 32.2875C179.106 33.3746 178.602 34.2443 177.721 34.8966Z" fill="#0F7269"/>
<path d="M197.236 43.0063C199.502 43.6369 201.667 43.5064 203.682 42.6367C205.696 41.767 207.056 40.3538 207.786 38.3752C208.34 36.8967 208.34 35.527 207.761 34.2442C207.207 32.9614 206.049 31.7003 204.286 30.4392L202.121 28.8738C200.56 27.7214 199.955 26.6343 200.358 25.5907C200.635 24.8297 201.214 24.2861 202.096 23.9817C202.977 23.6556 203.934 23.6556 204.966 23.9383C205.822 24.1774 206.452 24.5036 206.88 24.9602C207.308 25.3515 207.635 26.069 207.887 27.0909L211.513 26.3734C210.808 23.5034 208.995 21.677 206.124 20.8943C203.984 20.3073 202.02 20.3508 200.182 21.0465C198.344 21.7423 197.135 22.8946 196.531 24.5036C195.649 26.8952 196.657 29.1999 199.603 31.3742L201.693 32.8961C202.221 33.3092 202.675 33.7006 203.027 34.0702C203.38 34.4398 203.657 34.8312 203.833 35.2008C204.009 35.5704 204.11 35.9401 204.11 36.3314C204.11 36.7228 204.034 37.1142 203.883 37.5273C203.506 38.5709 202.801 39.3101 201.768 39.7885C200.736 40.2451 199.653 40.332 198.47 40.0059C196.984 39.5928 196.027 38.8101 195.599 37.6795C195.347 37.0707 195.372 36.114 195.675 34.8095L191.595 34.4833C191.193 36.5923 191.47 38.3752 192.452 39.8754C193.484 41.3757 195.07 42.4193 197.236 43.0063Z" fill="#0F7269"/>
<path d="M227.326 50.8989L218.035 46.7026L222.089 40.0277L231.103 44.0936L232.815 41.267L223.801 37.1795L226.722 32.3744L236.013 36.5707L237.725 33.7442L224.934 27.9607L212.822 47.9637L225.614 53.7472L227.326 50.8989Z" fill="#0F7269"/>
<path d="M237.902 61.1832C240.017 62.5747 241.805 63.4661 243.24 63.901C244.776 64.3793 246.463 64.5533 248.352 64.4445C252.104 64.2054 255.176 62.7052 257.618 59.9439C260.035 57.1826 260.917 54.2474 260.262 51.1599C259.935 49.6162 259.28 48.2465 258.273 47.0506C257.366 45.8983 255.881 44.6372 253.791 43.2675L249.409 40.3975L233.596 58.3784L237.902 61.1832ZM250.316 44.9851L251.726 45.92C254.395 47.6812 255.956 49.551 256.359 51.5513C256.812 53.769 256.158 55.878 254.42 57.8566C252.708 59.8134 250.517 60.9005 247.899 61.0962C246.614 61.1832 245.406 61.0745 244.222 60.7266C243.064 60.3787 241.78 59.7264 240.37 58.8133L238.96 57.8783L250.316 44.9851Z" fill="#0F7269"/>
<path d="M274.791 94.2968L271.064 88.4915L290.68 79.0988L288.766 76.1201L265.902 87.0783L271.543 95.8622L274.791 94.2968Z" fill="#0F7269"/>
<path d="M299.929 96.4505L275.088 103.539L276.328 106.78L301.169 99.6916L299.929 96.4505Z" fill="#0F7269"/>
<path d="M279.525 119.931L291.863 118.518L293.021 126.041L296.698 125.628L295.539 118.105L301.784 117.387L302.968 125.171L306.644 124.758L304.932 113.582L278.996 116.561L279.525 119.931Z" fill="#0F7269"/>
<path d="M280.053 146.826H283.78V137.76H292.517V146.565H296.219V137.76H302.514V146.826H306.215V134.368H280.053V146.826Z" fill="#0F7269"/>
<path d="M226.118 203.987C225.413 202.443 222.592 200.965 221.409 200.53C220.099 200.052 217.959 199.682 216.448 199.834C215.869 199.878 214.938 200.073 214.535 200.443C214.132 200.791 213.855 201.334 213.88 201.835C213.93 202.9 214.358 203.791 214.358 203.791C221.283 203.53 226.118 203.987 226.118 203.987Z" fill="#0F7269"/>
<path d="M122.728 389.602C119.278 388.254 115.804 388.145 112.253 389.276C108.703 390.406 106.185 392.407 104.649 395.298C102.937 398.603 102.886 401.778 104.523 404.865C106.009 407.67 108.3 409.648 111.372 410.866C114.847 412.214 118.372 412.344 121.897 411.236C125.422 410.127 127.966 408.105 129.502 405.126C131.038 402.191 131.138 399.19 129.804 396.146C128.469 393.124 126.127 390.928 122.728 389.602ZM125.901 403.713C124.768 405.887 122.955 407.387 120.437 408.235C117.944 409.061 115.426 408.974 112.933 408.018C110.616 407.126 108.98 405.583 107.973 403.452C106.965 401.299 107.066 399.082 108.25 396.799C109.383 394.624 111.196 393.146 113.663 392.341C116.156 391.515 118.649 391.58 121.117 392.559C123.609 393.537 125.296 395.103 126.203 397.233C127.16 399.342 127.059 401.517 125.901 403.713Z" fill="#0F7269"/>
<path d="M149.62 412.605L142.922 394.32L134.386 417.932L138.44 418.324L142.973 405.017L148.588 420.324L158.131 406.474L158.912 420.259L162.941 420.65L161.102 396.038L149.62 412.605Z" fill="#0F7269"/>
<path d="M191.671 397.734C188.524 395.929 185.125 395.364 181.473 395.994C177.772 396.647 174.876 398.321 172.761 401.017C170.646 403.713 169.941 406.626 170.671 409.736C171.502 413.28 173.617 415.889 177.042 417.585C180.139 419.107 183.337 419.563 186.661 418.998C190.412 418.346 193.333 416.671 195.448 413.975C197.564 411.301 198.243 408.366 197.513 405.191C196.783 402.017 194.844 399.538 191.671 397.734ZM192.225 412.258C190.74 414.193 188.675 415.389 185.981 415.845C183.488 416.28 181.121 415.867 178.855 414.628C176.588 413.388 175.153 411.54 174.574 409.083C174.02 406.757 174.499 404.626 175.959 402.713C177.419 400.778 179.484 399.582 182.153 399.125C184.822 398.647 187.265 399.06 189.456 400.365C191.646 401.647 193.031 403.452 193.585 405.822C194.164 408.17 193.711 410.301 192.225 412.258Z" fill="#0F7269"/>
<path d="M215.794 396.234C216.121 394.799 215.844 393.364 214.988 391.95C213.88 390.146 212.244 389.015 210.078 388.602C208.114 388.232 205.596 388.732 202.549 390.124L198.445 391.972L210.607 411.975L214.107 410.388L209.121 402.213L209.751 401.93L221.334 407.105L225.614 405.17L213.251 399.908C214.636 398.886 215.467 397.669 215.794 396.234ZM208.643 399.06L207.535 399.56L203.682 393.211L204.916 392.646C208.139 391.189 210.355 391.472 211.614 393.516C212.923 395.712 211.941 397.56 208.643 399.06Z" fill="#0F7269"/>
<path d="M305.938 193.051C304.831 193.899 304.503 195.138 305.208 195.812C305.913 196.486 307.374 196.356 308.482 195.508C309.59 194.66 309.917 193.42 309.212 192.746C308.507 192.072 307.046 192.203 305.938 193.051Z" fill="#0F7269"/>
<path d="M278.543 176.222C277.762 176.853 277.938 178.114 278.946 179.049C279.953 179.984 281.388 180.245 282.169 179.614C282.949 179.005 282.773 177.722 281.766 176.788C280.759 175.853 279.323 175.592 278.543 176.222Z" fill="#0F7269"/>
<path d="M15.7878 192.768C15.0828 193.442 15.4101 194.681 16.5181 195.529C17.626 196.377 19.0864 196.508 19.7915 195.834C20.4965 195.16 20.1692 193.921 19.0613 193.073C17.9533 192.203 16.4929 192.072 15.7878 192.768Z" fill="#0F7269"/>
<path d="M43.2092 176.788C42.202 177.722 42.0257 178.984 42.8063 179.614C43.5869 180.245 45.0222 179.984 46.0294 179.049C47.0366 178.114 47.2129 176.853 46.4323 176.222C45.6517 175.592 44.2164 175.853 43.2092 176.788Z" fill="#0F7269"/>
</g>
<defs>
<clipPath id="clip0_360_173">
<rect width="325" height="434" fill="white"/>
</clipPath>
</defs>
</svg>
