<svg width="214" height="93" viewBox="0 0 214 93" fill="none" xmlns="http://www.w3.org/2000/svg">
<path d="M59.7518 0.849075C60.0494 0.704889 60.1486 0.608765 60.2336 0.608765C61.5797 0.640806 62.9258 0.656827 64.2719 0.752951C64.8386 0.784992 65.4054 0.913157 65.9439 1.08938C67.4175 1.60205 68.3527 2.62737 68.8202 4.06923C69.217 5.30282 69.2878 6.56845 69.2878 7.85011C69.2878 14.3064 69.2453 20.7788 69.2453 27.2351C69.2453 28.1483 69.3162 29.0775 69.472 29.9747C69.8263 31.9132 71.229 33.2909 73.1844 33.5633C74.7714 33.7876 76.3725 33.9318 77.9737 33.9638C80.6658 34.0279 83.3722 33.9638 86.0644 34.0279C87.1838 34.0439 88.2039 33.7075 89.2525 33.4191C89.7909 33.2749 90.131 32.8904 90.4002 32.4418C90.7969 31.769 91.0095 31.032 91.0378 30.263C91.0662 29.1896 91.0803 28.1323 91.0803 27.0589C91.0945 24.3674 91.0945 21.6599 91.1087 18.9685C91.1087 18.8243 91.1795 18.6801 91.2362 18.4718C91.9021 17.9912 92.6956 18.1194 93.4466 18.1194C94.0559 18.1194 94.6793 18.1674 95.2886 18.1995C96.3938 18.2796 97.4424 18.5039 98.3775 19.1126C99.2277 19.6734 99.8795 20.3783 100.106 21.3716C100.319 22.3168 100.489 23.278 100.545 24.2232C100.63 25.4408 100.574 26.6584 100.588 27.892C100.588 28.7571 100.715 29.6062 100.999 30.4393C101.466 31.8651 102.458 32.7623 103.847 33.2589C104.187 33.3871 104.541 33.4992 104.895 33.5312C106.808 33.6434 108.693 34.0759 110.62 34.0119C112.844 33.9478 115.083 33.9798 117.308 33.9638C117.676 33.9638 118.03 33.9638 118.399 33.9318C118.994 33.8837 119.207 33.6594 119.235 33.0506C119.306 31.785 119.391 30.5033 119.405 29.2377C119.433 26.338 119.433 23.4382 119.447 20.5385C119.447 20.0418 119.362 19.5132 119.674 18.9685C119.915 18.9044 120.213 18.7762 120.51 18.7922C121.913 18.8243 123.301 18.9044 124.704 18.9685C126.164 19.0486 127.127 19.7535 127.581 21.1152C127.637 21.3075 127.736 21.4837 127.807 21.6279C128.275 21.8842 128.572 21.6599 128.771 21.3555C129.834 19.7695 131.208 18.4558 132.625 17.2062C134.722 15.3478 137.088 13.97 139.823 13.1209C142.288 12.3519 144.74 12.6082 147.219 12.6884C150.209 13.4413 152.788 14.8672 154.772 17.2222C157.846 20.8589 159.49 25.0563 159.873 29.7504C159.986 31.1121 160.028 32.4899 160.028 33.8677C160.043 35.8222 159.632 37.7126 158.881 39.523C158.597 40.2119 158.073 40.8207 157.606 41.4294C157.209 41.9421 156.6 42.1343 155.962 42.1984C155.452 42.2465 154.928 42.2465 154.403 42.2465C139.568 42.2465 124.733 42.2465 109.897 42.2465C108.452 42.2465 106.993 42.2305 105.547 42.2305C102.742 42.2305 100.106 41.6217 97.6691 40.2119C97.3574 40.0356 97.0315 39.8914 96.6914 39.7312C96.238 39.9235 95.7987 40.0677 95.402 40.308C93.2341 41.6377 90.8678 42.2145 88.3315 42.2145C83.5139 42.2145 78.6821 42.2625 73.8645 42.2145C71.5266 42.1824 69.2312 41.7979 67.1483 40.6124C66.5248 40.2599 65.8305 40.0517 65.122 39.7473C64.5694 40.0036 63.9743 40.2119 63.4642 40.5323C61.608 41.6697 59.5535 42.1183 57.3997 42.2145C55.8411 42.2785 54.2825 42.2465 52.738 42.2465C40.7507 42.2465 28.7776 42.2465 16.7903 42.2465C15.7559 42.2465 14.7216 42.2465 13.6731 42.2305C11.0801 42.1824 8.62876 41.5416 6.46084 40.1478C5.56817 39.571 4.74635 38.8181 4.08039 37.985C2.80514 36.3669 1.86997 34.5245 1.37404 32.538C1.07648 31.3685 0.920618 30.1188 0.89228 28.9173C0.835602 26.7385 0.750586 24.5436 1.18984 22.3809C1.48739 20.907 1.92664 19.5292 2.76264 18.2796C4.06622 16.309 5.89407 15.2196 8.31703 15.1716C9.66312 15.1395 11.0092 15.1555 12.3695 15.1555C12.6103 15.1555 12.8512 15.2196 13.0496 15.2517C13.2338 15.7163 12.9362 15.8925 12.7379 16.1008C10.57 18.4558 9.11051 21.1633 8.55791 24.3033C8.147 26.6103 8.43038 28.9013 9.37973 31.032C10.0457 32.5219 11.2076 33.6274 13.0354 33.7075C13.6022 33.7395 14.169 33.7876 14.7499 33.7876C27.9841 33.7876 41.2041 33.7876 54.4383 33.7876C55.1185 33.7876 55.7844 33.7876 56.4646 33.7395C58.3632 33.6113 59.4826 32.5219 59.681 30.6475C59.7235 30.247 59.7093 29.8305 59.7093 29.43C59.7093 20.5225 59.7235 11.615 59.7235 2.70747C59.7093 2.05063 59.7377 1.44184 59.7518 0.849075ZM129.706 33.8356C130.018 33.8997 130.301 33.9958 130.599 33.9958C136.819 34.0119 143.025 34.0119 149.246 33.9958C149.897 33.9958 150.592 34.0599 151.173 33.8036C151.258 33.6594 151.357 33.5793 151.357 33.4832C151.569 31.4005 151.541 29.3018 150.932 27.2832C150.606 26.1778 150.039 25.0723 149.175 24.2713C147.503 22.7173 145.42 21.9163 143.139 21.7881C140.503 21.6439 138.137 22.6212 136.111 24.1912C133.418 26.2579 131.406 28.8853 130.074 31.9933C129.848 32.57 129.564 33.1147 129.706 33.8356Z" fill="#9CC187"/>
<path d="M186.27 33.5954C186.171 32.9706 186.128 32.506 186.015 32.0734C185.207 28.9974 185.349 25.9535 186.071 22.8615C186.681 20.2341 188.027 18.0553 189.883 16.1649C191.612 14.4026 193.822 13.4093 196.188 12.7044C197.903 12.6403 199.603 12.6083 201.318 12.5122C202.976 12.4321 204.506 12.9928 205.951 13.6016C207.467 14.2424 208.771 15.2838 209.862 16.5494C211.661 18.6641 212.795 21.0832 213.418 23.7427C213.843 25.537 213.943 27.3633 213.957 29.2057C213.985 32.9706 213.999 36.7354 214.013 40.5003C214.013 40.9969 214.013 41.5096 213.801 41.9422C213.291 42.3267 212.752 42.2145 212.242 42.2305C205.654 42.2305 199.065 42.2305 192.49 42.2465C187.304 42.2465 182.118 42.2465 176.932 42.2465C175.119 42.2465 175.076 42.2786 175.062 44.0088C175.048 46.3478 175.062 48.6869 175.062 51.0259C175.062 52.7561 174.977 54.4863 175.048 56.2166C175.147 58.4915 173.22 60.7184 170.995 61.4393C170.046 61.7437 169.082 61.8719 168.091 61.8559C166.957 61.8398 165.809 61.8398 164.662 61.8559C164.265 61.8559 163.868 61.952 163.542 61.984C163.174 62.5608 163.287 63.0894 163.287 63.5861C163.287 71.1639 163.287 78.7577 163.287 86.3354C163.287 88.1137 163.287 89.892 163.259 91.6863C163.259 92.0869 163.188 92.4714 163.131 92.968C161.289 93 159.532 93.0801 157.775 92.9039C156.259 92.7437 154.275 91.2858 153.992 89.3313C153.836 88.2739 153.723 87.2006 153.723 86.1432C153.709 78.6615 153.723 71.1799 153.723 63.6982C153.723 63.2016 153.723 62.6889 153.723 62.3044C153.199 61.7597 152.66 61.8719 152.15 61.8719C149.5 61.8719 146.865 61.8879 144.215 61.8719C143.705 61.8719 143.209 61.8238 142.742 61.8078C142.345 60.2378 142.302 57.5943 142.926 56.4729C143.663 55.1432 144.64 53.9737 146.298 53.5892C147.729 53.2528 149.189 53.2848 150.634 53.2688C153.95 53.2527 157.265 53.2848 160.595 53.2528C161.36 53.2528 162.139 53.1406 162.905 52.9804C163.4 52.8843 163.868 52.6119 164.322 52.3876C165.016 52.0352 165.413 51.4905 165.455 50.6894C165.568 48.767 165.809 46.8285 165.823 44.906C165.894 36.8636 165.908 28.8212 165.951 20.7949C165.951 20.1861 165.951 19.5773 166.008 18.9685C166.05 18.4879 166.334 18.1995 166.815 18.1995C168.572 18.1835 170.329 18.0553 172.086 18.4398C173.56 18.7763 174.934 19.7375 175.189 21.644C175.289 22.3969 175.331 23.1659 175.345 23.9189C175.388 26.6104 175.402 29.3179 175.43 32.0093C175.444 33.7556 175.444 33.7716 177.272 33.7876C179.865 33.8037 182.458 33.7876 185.051 33.7716C185.377 33.7396 185.731 33.6595 186.27 33.5954ZM205.186 33.7235C205.228 33.3551 205.299 33.0667 205.299 32.7623C205.299 30.984 205.285 29.2057 205.271 27.4274C205.271 25.9856 204.973 24.6078 204.492 23.246C203.741 21.1473 202.253 20.0259 199.972 19.9618C199.447 19.9458 198.937 19.9618 198.413 19.9618C197.18 19.9778 196.259 20.5546 195.48 21.4517C194.63 22.429 194.318 23.5985 194.191 24.8321C194.091 25.8894 194.091 26.9628 194.106 28.0362C194.12 30.0869 195.083 31.6088 196.869 32.6822C197.875 33.275 198.951 33.5313 200.113 33.6114C200.935 33.6755 201.757 33.8197 202.565 33.9158C203.401 33.9959 204.222 34.06 205.186 33.7235Z" fill="#9CC187"/>
<path d="M108.934 54.1659C109.232 54.0057 109.359 53.9096 109.501 53.8775C112.817 53.0284 116.175 52.4197 119.618 52.4197C121.176 52.4197 122.735 52.3556 124.28 52.4357C126.079 52.5318 127.85 52.8202 129.607 53.3328C131.789 53.9737 133.716 55.015 135.488 56.3287C136.593 57.1458 137.556 58.1711 138.435 59.2284C140.716 61.984 141.892 65.2041 142.331 68.7127C142.756 72.093 142.445 75.4093 141.609 78.6936C140.985 81.1607 139.738 83.3235 138.251 85.3421C137.471 86.3995 136.593 87.4408 135.629 88.322C134.765 89.107 133.745 89.7478 132.724 90.3406C130.316 91.7504 127.666 92.4393 124.889 92.5675C121.998 92.6956 119.094 92.6476 116.217 92.183C114.078 91.8305 112.264 90.9013 110.875 89.3153C109.6 87.8574 108.962 86.0631 108.934 84.1246C108.906 82.4904 108.892 80.8724 108.892 79.2383C108.892 71.7566 108.892 64.291 108.892 56.8093C108.892 55.9282 108.92 55.0791 108.934 54.1659ZM118.966 60.6062C118.839 61.0548 118.697 61.4233 118.64 61.8078C118.583 62.2563 118.612 62.7209 118.612 63.1855C118.598 69.2734 118.569 75.3773 118.555 81.4651C118.555 81.7215 118.541 81.9778 118.555 82.2341C118.612 83.0832 119.051 83.66 119.873 83.9323C120.27 84.0605 120.681 84.1886 121.077 84.1886C122.112 84.1886 123.146 84.1566 124.18 84.0765C125.838 83.9483 127.283 83.2915 128.53 82.2501C129.267 81.6253 130.018 80.9525 130.542 80.1675C131.789 78.277 132.696 76.2264 132.654 73.9034C132.639 73.1344 132.611 72.3814 132.625 71.6124C132.654 69.2093 131.945 66.9985 130.698 64.9638C129.565 63.1054 127.85 61.8879 125.781 61.215C123.642 60.4941 121.417 60.5101 118.966 60.6062Z" fill="#9CC187"/>
<path d="M80.8931 77.1556C80.7797 77.476 80.6664 77.7163 80.638 77.9406C80.5955 78.5494 80.5672 79.1581 80.5672 79.7669C80.5814 83.4837 80.5955 87.2005 80.6097 90.9173C80.6097 91.1256 80.6239 91.3178 80.5955 91.5261C80.553 92.0227 80.3121 92.215 79.7737 92.215C78.6402 92.199 77.4924 92.1829 76.3589 92.1509C73.1708 92.0708 71.4138 90.1643 71.0879 87.2165C71.0454 86.8641 71.0737 86.5116 71.0737 86.1432C71.0737 75.9059 71.0737 65.6848 71.0737 55.4475C71.0737 54.9509 71.1162 54.4382 71.1446 53.8935C71.4846 53.7814 71.768 53.6532 72.0514 53.5892C73.8084 53.1726 75.5796 52.8202 77.3791 52.5638C80.2696 52.1633 83.146 51.907 86.0507 52.2274C87.0426 51.9871 87.9919 52.2915 88.9696 52.3876C90.6983 52.5798 92.3278 53.1085 93.8581 53.8615C95.4875 54.6625 96.8478 55.8961 97.8538 57.4021C100.56 61.4553 100.461 65.6207 98.3497 69.8662C97.698 71.1798 96.7203 72.2052 95.6151 73.1504C95.3175 73.4067 94.9066 73.5669 94.5524 73.7752C94.2548 73.9514 93.9572 74.1437 93.6172 74.3519C93.7305 74.6083 93.773 74.8326 93.9006 74.9447C95.6292 76.5308 96.451 78.6295 97.3721 80.6801C98.3072 82.7788 99.1432 84.9096 100.064 87.0083C100.291 87.5209 100.645 87.9695 100.943 88.4341C101.184 88.8186 101.467 89.1871 101.651 89.6036C102.062 90.5328 101.765 91.2858 100.858 91.7824C100.064 92.215 99.1857 92.3592 98.3072 92.4233C96.5219 92.5514 94.7791 92.4072 93.2488 91.3499C92.4695 90.8212 91.8318 90.1643 91.3784 89.3473C91.1375 88.8987 90.9108 88.4341 90.7125 87.9695C89.834 85.9028 88.9129 83.8522 88.0911 81.7695C87.7511 80.9044 87.2551 80.1354 86.7592 79.3664C86.1783 78.4693 85.3281 77.9085 84.2512 77.7163C83.2169 77.5561 82.14 77.3798 80.8931 77.1556ZM80.8081 69.0171C81.1623 69.1292 81.4457 69.2734 81.7432 69.2894C83.1318 69.3375 84.5346 69.3695 85.9232 69.3695C86.3341 69.3695 86.745 69.2574 87.1418 69.1292C88.6579 68.6326 89.8056 67.7194 90.1173 66.1173C90.6699 63.2977 89.3805 60.6863 85.8524 60.5902C84.4496 60.5581 83.061 60.5902 81.6582 60.6062C81.3607 60.6062 81.0773 60.7184 80.8222 60.7664C80.5247 62.2563 80.5105 67.431 80.8081 69.0171Z" fill="#9CC187"/>
<path d="M53.1914 52.5478C55.3735 52.3395 57.3289 52.3075 59.2276 52.9003C60.2761 53.2207 61.0979 53.8615 61.6222 54.9189C62.444 56.569 62.7416 58.2832 62.7416 60.0935C62.7416 63.5059 62.7699 66.9023 62.7274 70.3147C62.6991 72.862 62.6849 75.4093 62.5149 77.9406C62.3023 81.2568 61.2254 84.3328 59.3126 87.0563C57.6548 89.4274 55.3026 90.9974 52.5254 91.9266C49.0114 93.0961 45.4124 93.2884 41.7851 92.6796C39.3479 92.2791 37.1659 91.2698 35.2388 89.7158C32.7308 87.6811 31.158 85.0698 30.1378 82.0739C29.2877 79.5747 29.1602 76.9953 29.1602 74.4C29.1602 67.6873 29.1743 60.9747 29.1743 54.262C29.1743 53.7654 29.2027 53.2527 29.2168 52.7881C29.4294 52.676 29.5569 52.5478 29.6986 52.5318C31.2997 52.3395 32.915 52.4196 34.4878 52.7561C35.5789 52.9964 36.4574 53.6052 37.1092 54.5183C37.9593 55.7039 38.5403 56.9855 38.6111 58.4594C38.6678 59.5809 38.767 60.6863 38.767 61.8078C38.767 65.9731 38.7387 70.1545 38.7387 74.3199C38.7387 76.1623 38.9654 77.9886 39.5888 79.7189C40.1556 81.2889 41.1191 82.6827 42.7061 83.3395C44.8598 84.2367 47.1694 84.4289 49.3515 83.4517C51.0943 82.6827 52.0862 81.1607 52.568 79.3504C52.9789 77.7643 53.1489 76.1462 53.1347 74.5121C53.1206 67.7995 53.1206 61.0868 53.1206 54.3742C53.1631 53.7974 53.1772 53.2527 53.1914 52.5478Z" fill="#9CC187"/>
<path d="M189.387 92.0067C189.118 92.0868 188.934 92.199 188.736 92.1829C187.333 92.1669 185.93 92.199 184.542 92.0868C182.558 91.9266 181.183 90.8853 180.461 89.0429C180.149 88.2258 179.965 87.3928 179.965 86.5116C179.979 85.5504 179.965 84.5731 179.965 83.6119C179.965 74.0475 179.965 64.4832 179.965 54.9189C179.965 54.1659 180.022 53.4129 180.05 52.5959C180.432 52.5158 180.716 52.4196 181.013 52.4036C182.359 52.3075 183.706 52.4517 185.037 52.708C187.432 53.1726 188.707 54.5504 189.246 56.8574C189.458 57.7385 189.472 58.6677 189.487 59.5809C189.515 61.3592 189.487 63.1375 189.501 64.9158C189.501 65.4124 189.558 65.9251 189.586 66.3576C189.954 66.6139 190.138 66.5018 190.308 66.2615C192.731 63.0253 195.112 59.7731 197.62 56.585C198.626 55.3194 199.717 54.0698 201.205 53.2527C201.715 52.9804 202.225 52.7721 202.806 52.708C205.597 52.3395 208.389 52.3716 211.18 52.4517C211.279 52.4517 211.364 52.5318 211.492 52.5798C211.874 53.4129 211.633 54.1178 211.038 54.7907C209.125 56.9214 207.213 59.0682 205.328 61.231C204.45 62.2403 203.656 63.2977 202.82 64.339C202.211 65.092 201.573 65.8289 200.964 66.5979C199.915 67.9116 198.881 69.2574 197.832 70.5711C197.492 71.0036 197.507 71.4201 197.79 71.8367C198.413 72.7659 199.037 73.7111 199.689 74.6243C200.935 76.3705 202.182 78.1168 203.486 79.831C205.101 81.9457 206.802 83.9964 209.055 85.5183C209.947 86.1271 210.897 86.6398 211.945 86.9442C212.087 86.9762 212.2 87.1044 212.37 87.2165C212.427 87.7773 212.214 88.2899 212.002 88.7866C211.846 89.155 211.591 89.4915 211.435 89.876C210.911 91.2057 209.791 91.8305 208.502 92.1349C205.767 92.7757 203.245 92.3752 201.106 90.4687C200.383 89.8279 199.689 89.123 199.065 88.386C198.017 87.1364 197.025 85.8388 196.019 84.5571C194.063 81.9938 192.108 79.4305 190.365 76.739C190.238 76.5468 190.025 76.4186 189.742 76.1623C189.614 76.4667 189.501 76.6429 189.487 76.8031C189.458 77.8124 189.444 78.8377 189.444 79.847C189.444 83.7561 189.458 87.6811 189.458 91.5902C189.472 91.6703 189.43 91.7664 189.387 92.0067Z" fill="#9CC187"/>
<path d="M25.7455 52.5798C26.0005 54.278 25.9439 55.7839 25.533 57.2739C25.0229 59.0842 23.28 60.4459 21.3105 60.5741C20.3753 60.6382 19.4401 60.6702 18.5191 60.6702C16.1812 60.6702 13.8574 60.6382 11.5194 60.6222C11.0094 60.6222 10.4851 60.6222 9.93248 60.6222C9.83329 60.9105 9.67743 61.1348 9.66326 61.3751C9.64909 63.4578 9.64909 65.5405 9.64909 67.6392C9.64909 67.7354 9.71994 67.8315 9.76245 67.9276C10.23 68.3922 10.8251 68.232 11.3778 68.232C13.9141 68.232 16.4646 68.216 19.0009 68.216C20.0352 68.216 21.0696 68.216 22.1181 68.232C23.28 68.248 23.4359 68.3922 23.4501 69.5777C23.4642 70.2826 23.4359 71.0036 23.4217 71.7085C23.3367 74.2077 21.2396 76.0821 18.7742 76.1462C16.3937 76.2103 13.9991 76.1622 11.6186 76.1782C11.1085 76.1782 10.5984 76.1943 10.1734 76.2103C9.64909 76.7229 9.76245 77.2516 9.76245 77.7483C9.76245 80.5038 9.79079 83.2434 9.79079 85.9989C9.79079 87.5209 9.79079 89.0589 9.77662 90.5808C9.77662 91.0294 9.71994 91.478 9.67743 91.9906C9.33737 92.0868 9.05398 92.2149 8.77059 92.2149C7.36782 92.2149 5.96506 92.231 4.57646 92.1348C3.92467 92.0868 3.25871 91.8625 2.63525 91.6382C1.37418 91.1576 0.637373 90.1803 0.396494 88.8987C0.183953 87.8093 0.02809 86.6878 0.02809 85.5664C-0.000248747 77.1715 -0.000248747 68.7767 0.02809 60.3819C0.02809 59.1162 0.141445 57.8346 0.410663 56.585C0.864083 54.3901 1.81343 53.3648 4.37809 52.8682C5.99339 52.5478 7.67955 52.4837 9.3232 52.4676C13.4181 52.4196 17.5131 52.4676 21.608 52.4676C22.5432 52.4676 23.4784 52.4356 24.4136 52.4516C24.8103 52.4356 25.2212 52.5157 25.7455 52.5798Z" fill="#9CC187"/>
<path d="M40.142 16.8858C40.2695 17.046 40.3262 17.078 40.3404 17.1261C40.6804 20.0258 39.4619 20.2341 37.6057 20.202C35.2819 20.17 32.944 20.202 30.6202 20.186C30.266 20.186 29.8976 20.17 29.5433 20.1219C28.679 19.9938 28.1689 19.4971 27.9847 18.664C27.9422 18.4718 27.8855 18.2635 27.8997 18.0553C27.928 17.7028 27.9847 17.3504 28.0414 16.9498C28.594 16.8537 29.1466 16.7576 29.7559 16.6454C29.7984 16.309 29.8409 16.0206 29.8692 15.7323C29.9542 15.0274 30.0251 14.3224 30.1101 13.6175C30.436 11.0062 33.284 9.11573 36.1179 9.69247C36.9256 9.85268 37.7049 10.077 38.385 10.6217C39.5327 11.5509 39.887 12.8325 39.2493 14.1462C39.0793 14.5147 38.8526 14.8511 38.6259 15.2036C38.5409 15.3317 38.3992 15.4119 38.2433 15.54C37.7049 15.1876 37.5065 14.5788 37.2231 14.0821C36.8406 13.4253 36.2879 13.0088 35.5795 12.7684C34.7293 12.464 33.8366 12.9126 33.7091 13.8098C33.5816 14.7069 33.5249 15.6201 33.8083 16.5333C34.8568 17.0139 35.9621 16.7416 37.0389 16.8057C38.1158 16.8697 39.1927 16.6775 40.142 16.8858Z" fill="#9CC187"/>
<path d="M106.1 9.77258C106.129 12.0155 104.046 14.4346 101.155 14.4186C98.2506 14.4186 96.4653 11.9033 96.3661 9.77258C96.2669 7.48163 98.8174 4.69403 100.985 4.96638C104.06 4.67801 106.143 7.67387 106.1 9.77258Z" fill="#9CC187"/>
<path d="M90.4566 4.90229C92.6245 4.83821 95.26 6.88886 95.1891 9.77258C95.1183 12.9126 92.4261 14.4346 90.4141 14.4186C87.6227 14.4026 85.6248 12.0155 85.554 9.80462C85.4973 7.78601 87.396 4.80617 90.4566 4.90229Z" fill="#9CC187"/>
<path d="M199.944 9.29197C199.604 9.29197 199.391 9.29197 199.193 9.29197C197.762 9.34003 196.756 8.60308 195.976 7.5297C194.191 5.09455 195.183 1.92246 197.691 0.480601C198.725 -0.112163 199.944 -0.112164 201.007 0.176209C202.594 0.608767 203.883 1.55399 204.351 3.23616C204.62 4.18138 204.62 5.14262 204.421 6.10386C204.081 7.81807 202.183 9.30799 200.426 9.32401C200.213 9.32401 200.015 9.30799 199.944 9.29197Z" fill="#9CC187"/>
<path d="M142.912 0.128194C145.547 0.192276 147.616 2.27496 147.573 4.82225C147.517 7.56179 145.49 9.45222 142.685 9.38814C140.007 9.32406 138.137 7.32148 138.222 4.59796C138.278 2.08272 140.404 0.064111 142.912 0.128194Z" fill="#9CC187"/>
</svg>
