<?xml version="1.0" encoding="UTF-8"?>
<svg id="Layer_1" data-name="Layer 1" xmlns="http://www.w3.org/2000/svg" viewBox="0 0 1000 1000">
  <defs>
    <style>
      .cls-1 {
        stroke-width: 0px;
      }
    </style>
  </defs>
  <path class="cls-1" d="M526.77,378.64c23.68-.35,45.26,1.04,66.47,5.71,21.82,4.8,27.88,17.57,18.55,38.22-14.09,31.19-29.3,61.93-37.59,95.43-1.9,7.69-5.44,16.77,2.01,21.68,7.16,4.71,15.85,1.55,22.97-4.09,28.91-22.91,51.89-49.82,66.41-84.63,13.74-32.96,31.31-64.32,46.79-96.57,1.68-3.51,3.7-3.6,6.35-3.61,29.29-.05,58.58-.03,89.82-.03-10.65,23.55-20.4,45.56-30.53,67.41-16.91,36.47-34.39,72.67-47.01,110.97-1.67,5.06-3.9,10.79.13,14.11,4.55,3.74,8.25-2.42,11.75-4.83,19.62-13.51,31.55-33.76,41.03-54.34,12.63-27.43,25.47-54.77,38.53-82,6.73-14.03,13.37-28.1,19.69-42.32,2.73-6.13,6.11-9.32,13.51-9.2,28.46.44,56.94.45,85.4.03,10.21-.15,10.31,3.07,6.74,11.33-34.27,79.23-67.31,159-102.53,237.79-21.26,47.54-40.41,96.39-70.97,139.26-26.79,37.58-58.34,69.84-106.14,77.47-46.79,7.47-92.35,3.3-124.62-37.13-29.63-37.12-25.5-97.26,16.24-127.9,20.04-14.71,57.8-11.4,78.03,3.57,6.82,5.05,3.92,6.53-.51,9.37-1.54.99-3.2,1.8-4.86,2.59-10.18,4.84-15.58,13.68-11.43,23.62,4.05,9.73,13.56,11.75,24.68,9.09,25.7-6.14,43.86-22.99,60.3-41.66,13.56-15.4,25.85-32.08,34.96-50.74.96-1.96,3.17-3.65.99-6.49-10.98,8.38-18.89,20.21-30.97,27.46-17.04,10.22-35.38,16.71-54.99,13.14-22.99-4.19-38.56-25.89-39.2-54.46-13.31,8.53-22.38,20.97-34.22,30.29-25.4,19.97-53.11,23.44-83.06,16.12-17.48-4.27-32.18-24.1-33.38-43.23-1.25-19.98,1.98-39.21,7.42-58.57,9.84-34.97,24.32-67.87,40.2-100.31,1.9-3.88,8.62-9.14,1.15-12.37-5.63-2.43-12.73-3.12-17.5,5.32-17.51,31.04-35.12,62.08-54.11,92.23-21.39,33.97-45.45,66.04-75.19,93.43-30.21,27.82-64.79,37.16-104.01,23.43-17.57-6.15-29.75-18.11-30.63-38.42-.07-1.59-1.62-3.11-2.79-5.22-13.18,13.25-22.48,29.16-38.9,38.68-36.93,21.39-72.98,11.73-97.88-19.24-24.89-30.96-23.27-66.37-14.1-102.09,16.51-64.37,51.99-115.03,110.89-147.39,37.91-20.83,83-14.05,111.23,16.02.92.98,2.28,1.54,4.02,2.68,23.6-55.74,47.41-111.11,70.34-166.83,4.43-10.78,9.26-15.22,21.7-15.27,29.78-.13,59.22,5.65,91.1,2.79-7.8,18.21-14.65,34.85-22.01,51.27-25.43,56.74-51.82,113.05-76.26,170.21-14.69,34.35-32.74,67.34-42.84,103.67-2.03,7.29-4.12,14.87,2.21,18.69,6.88,4.15,14.85.87,21.83-3.97,15.82-10.97,27.91-25.54,39.79-40.25,19-23.51,34.93-49.24,52.13-74.05,6.28-9.06,9.11-16.32-3.42-21.97-30.7-13.84-19.94-60.99,1.82-73.73,13.41-7.85,27.74-12.05,44.07-9.86,29.31,3.93,30.44,29.18,25.14,48.85-.81,3.01-2.49,5.78-4.72,10.83ZM180.34,516.23c0,1.4.03,2.8,0,4.2-.25,8.71,2.88,16.03,9.86,21.19,8.33,6.16,13.62-.99,19.2-5.31,22.15-17.11,34.41-40.89,43.75-66.43,6.61-18.1,12.66-36.43,11.26-56.17-1.36-19.17-11.62-23.91-28.07-14.53-8.59,4.9-13.63,12.31-18.86,19.64-20.8,29.18-33.49,61.6-37.13,97.41Z"/>
</svg>