<svg width="56" height="53" viewBox="0 0 56 53" fill="none" xmlns="http://www.w3.org/2000/svg">
<g clip-path="url(#clip0_149_350)">
<path d="M29.7188 14.9063H28C27.5442 14.9063 27.107 14.7318 26.7847 14.4211C26.4623 14.1105 26.2812 13.6893 26.2812 13.25C26.2812 13.0304 26.1907 12.8197 26.0295 12.6644C25.8684 12.5091 25.6498 12.4219 25.4219 12.4219C25.194 12.4219 24.9754 12.5091 24.8142 12.6644C24.653 12.8197 24.5625 13.0304 24.5625 13.25C24.5625 14.1285 24.9247 14.9711 25.5693 15.5923C26.214 16.2135 27.0883 16.5625 28 16.5625V17.3906C28 17.6103 28.0905 17.8209 28.2517 17.9762C28.4129 18.1315 28.6315 18.2188 28.8594 18.2188C29.0873 18.2188 29.3059 18.1315 29.467 17.9762C29.6282 17.8209 29.7188 17.6103 29.7188 17.3906V16.5625C30.6304 16.5625 31.5048 16.2135 32.1494 15.5923C32.7941 14.9711 33.1562 14.1285 33.1562 13.25C33.1562 12.3715 32.7941 11.5289 32.1494 10.9077C31.5048 10.2865 30.6304 9.9375 29.7188 9.9375H28C27.5442 9.9375 27.107 9.76301 26.7847 9.4524C26.4623 9.14179 26.2812 8.72052 26.2812 8.28125C26.2812 7.84199 26.4623 7.42072 26.7847 7.11011C27.107 6.7995 27.5442 6.625 28 6.625H29.7188C30.1746 6.625 30.6118 6.7995 30.9341 7.11011C31.2564 7.42072 31.4375 7.84199 31.4375 8.28125C31.4375 8.50089 31.528 8.71152 31.6892 8.86683C31.8504 9.02213 32.069 9.10938 32.2969 9.10938C32.5248 9.10938 32.7434 9.02213 32.9045 8.86683C33.0657 8.71152 33.1562 8.50089 33.1562 8.28125C33.1562 7.40272 32.7941 6.56018 32.1494 5.93896C31.5048 5.31775 30.6304 4.96875 29.7188 4.96875V4.14063C29.7188 3.921 29.6282 3.71036 29.467 3.55506C29.3059 3.39975 29.0873 3.3125 28.8594 3.3125C28.6315 3.3125 28.4129 3.39975 28.2517 3.55506C28.0905 3.71036 28 3.921 28 4.14063V4.96875C27.0883 4.96875 26.214 5.31775 25.5693 5.93896C24.9247 6.56018 24.5625 7.40272 24.5625 8.28125C24.5625 9.15978 24.9247 10.0023 25.5693 10.6235C26.214 11.2448 27.0883 11.5938 28 11.5938H29.7188C30.1746 11.5938 30.6118 11.7683 30.9341 12.0789C31.2564 12.3895 31.4375 12.8107 31.4375 13.25C31.4375 13.6893 31.2564 14.1105 30.9341 14.4211C30.6118 14.7318 30.1746 14.9063 29.7188 14.9063ZM28.8594 21.5313C31.069 21.5313 33.2289 20.8999 35.0661 19.7169C36.9033 18.534 38.3353 16.8526 39.1808 14.8855C40.0264 12.9183 40.2477 10.7537 39.8166 8.66536C39.3855 6.57703 38.3215 4.65878 36.7591 3.15318C35.1967 1.64758 33.206 0.622257 31.0389 0.206863C28.8718 -0.208531 26.6255 0.00466458 24.5841 0.819489C22.5427 1.63431 20.7979 3.01417 19.5703 4.78457C18.3427 6.55497 17.6875 8.63639 17.6875 10.7656C17.6911 13.6198 18.8693 16.356 20.9637 18.3742C23.058 20.3924 25.8975 21.5277 28.8594 21.5313ZM28.8594 1.65625C30.729 1.65625 32.5567 2.19051 34.1112 3.19146C35.6658 4.19241 36.8774 5.6151 37.5929 7.27962C38.3084 8.94414 38.4956 10.7757 38.1309 12.5428C37.7661 14.3098 36.8658 15.933 35.5437 17.2069C34.2217 18.4809 32.5373 19.3485 30.7036 19.7C28.8699 20.0515 26.9692 19.8711 25.2418 19.1816C23.5145 18.4921 22.0381 17.3246 20.9994 15.8265C19.9607 14.3285 19.4062 12.5673 19.4062 10.7656C19.409 8.35048 20.4058 6.035 22.178 4.32723C23.9502 2.61946 26.3531 1.65889 28.8594 1.65625ZM54.6406 24.5125H47.7656C47.1841 24.5137 46.6201 24.7043 46.1651 25.0534C45.7102 25.4025 45.3911 25.8895 45.2597 26.4354L35.5952 23.5767C34.3493 23.2106 33.014 23.242 31.7881 23.6662L30.3495 24.163L23.6069 22.737C22.1826 22.4352 20.6988 22.5282 19.3272 23.0053L10.6114 26.0329C10.4145 25.5822 10.0839 25.1975 9.66104 24.927C9.23819 24.6565 8.7419 24.5123 8.23438 24.5125H1.35938C1.13145 24.5125 0.912869 24.5998 0.751705 24.7551C0.590541 24.9104 0.5 25.121 0.5 25.3406L0.5 41.9031C0.5 42.1228 0.590541 42.3334 0.751705 42.4887C0.912869 42.644 1.13145 42.7313 1.35938 42.7313H8.23438C8.65866 42.7308 9.07626 42.6294 9.45013 42.4361C9.82401 42.2428 10.1426 41.9636 10.3777 41.6232C13.5566 45.5073 17.5954 48.6585 22.1992 50.8469L25.9083 52.6058C26.4718 52.8756 27.0992 52.9976 27.7272 52.9595C28.3552 52.9214 28.9618 52.7245 29.4857 52.3887C30.0097 52.0529 30.4326 51.59 30.7119 51.0466C30.9911 50.5032 31.1169 49.8985 31.0766 49.2933C31.3094 49.3513 31.5479 49.3851 31.7881 49.3943C32.0237 49.394 32.2587 49.3707 32.4894 49.3248C33.2419 49.1775 33.9208 48.7897 34.4161 48.2243C34.9114 47.6589 35.1943 46.949 35.2188 46.2094C35.7074 46.4742 36.2566 46.6182 36.8172 46.6284C37.0522 46.6281 37.2866 46.6048 37.5167 46.5588C38.3179 46.4021 39.0341 45.9735 39.5353 45.3511C40.0364 44.7287 40.2893 43.9536 40.2478 43.1668C40.9132 43.3265 41.6141 43.2766 42.2478 43.0244C42.8816 42.7723 43.4149 42.3311 43.7695 41.7657C44.0277 41.3899 44.2032 40.9671 44.2852 40.5235H45.2167C45.2871 41.1285 45.5855 41.6876 46.0554 42.0946C46.5252 42.5016 47.1338 42.7281 47.7656 42.7313H54.6406C54.8685 42.7313 55.0871 42.644 55.2483 42.4887C55.4095 42.3334 55.5 42.1228 55.5 41.9031V25.3406C55.5 25.121 55.4095 24.9104 55.2483 24.7551C55.0871 24.5998 54.8685 24.5125 54.6406 24.5125ZM9.09375 40.2469C9.09375 40.4665 9.00321 40.6771 8.84204 40.8325C8.68088 40.9878 8.4623 41.075 8.23438 41.075H2.21875V26.1688H8.23438C8.4623 26.1688 8.68088 26.256 8.84204 26.4113C9.00321 26.5666 9.09375 26.7772 9.09375 26.9969V40.2469ZM42.3361 40.8613C42.2121 41.0431 42.0521 41.1995 41.8654 41.3216C41.6786 41.4438 41.4687 41.5293 41.2477 41.5733C41.0266 41.6173 40.7987 41.6189 40.5771 41.578C40.3554 41.5371 40.1442 41.4546 39.9556 41.335L31.9755 36.2719L31.6077 36.8102C31.5513 36.8467 31.5031 36.8936 31.4656 36.9482C31.4281 37.0028 31.4022 37.0639 31.3894 37.1282L31.0302 37.6549L31.6884 38.0722C31.697 38.0722 31.7022 38.0871 31.7108 38.0938L37.7694 41.9396C38.1418 42.1846 38.3993 42.5608 38.4866 42.9871C38.5738 43.4134 38.4836 43.8556 38.2356 44.2185C37.9876 44.5814 37.6015 44.8358 37.1606 44.9269C36.7197 45.018 36.2594 44.9385 35.8787 44.7055L33.7097 43.3292L33.6856 43.3109L28.4125 39.9653H28.3988L27.8986 39.6473C27.7083 39.5308 27.4781 39.4911 27.2577 39.5366C27.0372 39.5822 26.8442 39.7094 26.7202 39.8908C26.5961 40.0723 26.5511 40.2934 26.5947 40.5065C26.6383 40.7197 26.7671 40.9078 26.9533 41.0303L32.7506 44.7088C33.0297 44.8911 33.2469 45.1485 33.3753 45.4489C33.5037 45.7493 33.5376 46.0795 33.4728 46.3983C33.4079 46.7171 33.2472 47.0105 33.0106 47.2419C32.774 47.4734 32.472 47.6327 32.1422 47.7C31.6959 47.7879 31.2316 47.7016 30.8514 47.4598L25.0317 43.7664C24.9375 43.7044 24.8315 43.6612 24.7197 43.6391C24.608 43.617 24.4928 43.6166 24.3809 43.6379C24.269 43.6591 24.1626 43.7016 24.068 43.7629C23.9733 43.8242 23.8922 43.903 23.8295 43.9948C23.7667 44.0866 23.7236 44.1895 23.7025 44.2975C23.6815 44.4055 23.683 44.5165 23.7069 44.624C23.7308 44.7314 23.7767 44.8332 23.8418 44.9234C23.907 45.0136 23.9901 45.0905 24.0864 45.1494L24.3889 45.3415C24.3975 45.3415 24.4027 45.3581 24.413 45.3647L28.538 47.9799C28.9595 48.2236 29.2653 48.6167 29.3897 49.0749C29.5142 49.5332 29.4475 50.0202 29.2039 50.4316C28.9603 50.8431 28.5592 51.1462 28.0865 51.2762C27.6138 51.4061 27.107 51.3525 26.6748 51.1268L22.9572 49.3563C18.1221 47.0572 13.9505 43.6438 10.8125 39.4188V27.7223L19.9081 24.5655C20.9754 24.1956 22.1293 24.1232 23.2373 24.3568L27.3159 25.2197L24.3666 26.2449C23.4606 26.5439 22.7149 27.1774 22.2936 28.0061C21.8724 28.8348 21.81 29.7908 22.1202 30.6638C22.4304 31.5369 23.0878 32.2554 23.9477 32.6614C24.8077 33.0673 25.7998 33.1275 26.7058 32.8285L30.7913 31.5516L41.8462 38.5658C42.0508 38.6959 42.2241 38.8667 42.3545 39.0666C42.485 39.2666 42.5695 39.4911 42.6025 39.7252C42.604 39.7657 42.608 39.806 42.6145 39.8461C42.6388 40.2042 42.5411 40.5617 42.3361 40.8613ZM45.1875 38.8722H44.1562C43.9109 38.1784 43.4317 37.5837 42.795 37.1828L31.3962 29.9483C31.2887 29.8801 31.1666 29.836 31.0389 29.8194C30.9113 29.8028 30.7814 29.814 30.6589 29.8523L26.1798 31.2534C25.8321 31.3625 25.459 31.3721 25.1057 31.2809C24.7525 31.1898 24.4342 31.0019 24.1895 30.74C23.9813 30.5181 23.8329 30.2501 23.7576 29.9598C23.6824 29.6695 23.6824 29.3658 23.7579 29.0755C23.8333 28.7852 23.9818 28.5173 24.1901 28.2955C24.3985 28.0736 24.6604 27.9046 24.9527 27.8035L32.3759 25.223C33.2515 24.9198 34.2053 24.8978 35.095 25.1601L45.1875 28.148V38.8722ZM53.7812 41.075H47.7656C47.5377 41.075 47.3191 40.9878 47.158 40.8325C46.9968 40.6771 46.9062 40.4665 46.9062 40.2469V26.9969C46.9062 26.7772 46.9968 26.5666 47.158 26.4113C47.3191 26.256 47.5377 26.1688 47.7656 26.1688H53.7812V41.075Z" fill="white"/>
</g>
<defs>
<clipPath id="clip0_149_350">
<rect width="55" height="53" fill="white" transform="translate(0.5)"/>
</clipPath>
</defs>
</svg>
