<svg width="51" height="51" viewBox="0 0 51 51" fill="none" xmlns="http://www.w3.org/2000/svg">
<path d="M14.3824 28.1988H10.26C9.67861 28.1988 9.20294 28.6885 9.20294 29.2871V46.374C9.20294 46.9726 9.67861 47.4623 10.26 47.4623H14.3824C14.9638 47.4623 15.4395 46.9726 15.4395 46.374V29.2871C15.4395 28.6885 14.9638 28.1988 14.3824 28.1988ZM13.3254 45.2857H11.317V30.3755H13.3254V45.2857ZM6.03183 37.5585H1.90939C1.32802 37.5585 0.852349 38.0482 0.852349 38.6468V46.374C0.852349 46.9726 1.32802 47.4623 1.90939 47.4623H6.03183C6.6132 47.4623 7.08887 46.9726 7.08887 46.374V38.6468C7.08887 38.0482 6.6132 37.5585 6.03183 37.5585ZM4.97479 45.2857H2.96642V39.7352H4.97479V45.2857ZM1.82482 32.2583L21.38 12.1241L25.3756 16.2489C25.7879 16.6733 26.4538 16.6733 26.866 16.2489L39.0537 3.70034L39.0431 8.49991C39.0431 9.09849 39.5082 9.57736 40.0896 9.57736C40.0896 9.57736 40.0896 9.57736 40.1001 9.57736C40.6815 9.57736 41.1572 9.09849 41.1572 8.49991L41.1678 1.05569C41.1678 0.77272 41.0515 0.500635 40.8612 0.304734C40.6604 0.108834 40.3961 0 40.1107 0H32.8806C32.2992 0.0217667 31.8341 0.522402 31.8553 1.12099C31.8764 1.6978 32.3204 2.16579 32.8806 2.17667L37.5633 2.15491L26.1261 13.9416L22.1199 9.81679C21.7077 9.39234 21.0418 9.39234 20.6295 9.81679L0.32383 30.7237C-0.0989845 31.1373 -0.109555 31.8338 0.30269 32.2583C0.714935 32.6827 1.38087 32.7045 1.79311 32.2801C1.80368 32.2801 1.81425 32.2692 1.82482 32.2583ZM40.2798 31.0829V14.8231C40.2904 14.2246 39.8253 13.7348 39.2439 13.7239H35.1532C34.5718 13.7239 34.0433 14.2246 34.0433 14.8231V29.9075C33.3668 29.9619 32.7009 30.0598 32.035 30.2122V20.4934C32.035 19.8839 31.5593 19.3942 30.9779 19.3833H26.8872C26.2952 19.3942 25.809 19.8839 25.7984 20.4934V33.0963C25.1642 33.5861 24.4243 34.1193 23.7901 34.707V26.7404C23.7901 26.1418 23.2933 25.6956 22.7119 25.6956H18.6211C18.0398 25.6956 17.5535 26.131 17.5535 26.7404V46.3849C17.5641 46.9835 18.0398 47.4732 18.6211 47.4623H22.7119C23.3038 47.4623 23.7795 46.9835 23.7901 46.3849V45.9278C26.6441 48.3765 30.5022 50.76 34.8467 50.76C38.4512 50.76 42.3094 49.0513 46.0196 45.8298C47.6897 44.3824 49.2012 42.7498 50.5331 40.965C50.7974 40.5841 50.7974 40.0617 50.5225 39.6807C50.3428 39.4195 46.1992 33.6514 40.2798 31.0829ZM36.1574 15.9006H38.1658V30.3428C37.5104 30.1578 36.8339 30.0272 36.1574 29.9619V15.9006ZM27.9125 21.5599H29.9209V30.8652C29.2867 31.1264 28.6524 31.4312 27.9125 31.7903V21.5599ZM19.6676 27.8723H21.676V36.7205C20.9572 37.417 20.2807 38.1679 19.6676 38.9733V27.8723ZM21.676 45.2857H19.6676V41.6615C20.2807 42.4669 20.9572 43.2178 21.676 43.9144V45.2857ZM34.8361 48.5833C32.3521 48.5833 28.3987 47.6038 23.6738 42.9131C22.8493 42.0968 22.0671 41.2262 21.3377 40.312C22.0142 39.4631 22.7436 38.6468 23.5047 37.885C24.7308 36.6334 26.0838 35.5233 27.5214 34.5547C28.7053 33.7493 29.9949 33.1072 31.3373 32.6501C32.4683 32.2692 33.6417 32.0624 34.8255 32.0515C34.9207 32.0515 35.0052 32.0515 35.0792 32.0515C35.0898 32.0515 35.1004 32.0515 35.1109 32.0515C36.3582 32.095 37.5844 32.3453 38.7577 32.7916C43.3558 34.5003 47.0449 38.7012 48.3239 40.3011C46.6961 42.358 41.1995 48.5833 34.8361 48.5833Z" fill="white"/>
<path d="M34.8369 33.074C30.9576 33.074 27.8076 36.3172 27.8076 40.3114C27.8076 44.3056 30.9576 47.5488 34.8369 47.5488C38.7162 47.5488 41.8662 44.3056 41.8662 40.3114C41.8662 36.3172 38.7162 33.0849 34.8369 33.074ZM34.8369 45.3722C32.1203 45.3722 29.9217 43.1084 29.9217 40.3114C29.9217 37.5144 32.1203 35.2506 34.8369 35.2506C37.5535 35.2506 39.7521 37.5144 39.7521 40.3114C39.7521 43.1084 37.5535 45.3722 34.8369 45.3722Z" fill="white"/>
</svg>
