<svg width="28" height="26" viewBox="0 0 28 26" fill="none" xmlns="http://www.w3.org/2000/svg">
<path d="M26.5222 10.9131H1.47778C0.661624 10.9131 0 11.7753 0 12.8389V13.0417C0 14.1053 0.661624 14.9675 1.47778 14.9675H26.5222C27.3384 14.9675 28 14.1053 28 13.0417V12.8389C28 11.7753 27.3384 10.9131 26.5222 10.9131Z" fill="black"/>
<path d="M26.5222 21.0474H1.47778C0.661624 21.0474 0 21.9096 0 22.9732V23.1759C0 24.2395 0.661624 25.1018 1.47778 25.1018H26.5222C27.3384 25.1018 28 24.2395 28 23.1759V22.9732C28 21.9096 27.3384 21.0474 26.5222 21.0474Z" fill="black"/>
<path d="M26.5222 0.778076H1.47778C0.661624 0.778076 0 1.64031 0 2.70392V2.90664C0 3.97026 0.661624 4.83249 1.47778 4.83249H26.5222C27.3384 4.83249 28 3.97026 28 2.90664V2.70392C28 1.64031 27.3384 0.778076 26.5222 0.778076Z" fill="black"/>
</svg>
