<svg width="55" height="53" viewBox="0 0 55 53" fill="none" xmlns="http://www.w3.org/2000/svg">
<g clip-path="url(#clip0_149_333)">
<path d="M49.7223 31.9406C49.3388 31.9406 49.0278 31.6827 49.0278 31.3645C49.0248 29.6475 47.3476 28.2562 45.2778 28.2536C44.8943 28.2536 44.5834 27.9957 44.5834 27.6775C44.5834 27.3594 44.8943 27.1015 45.2778 27.1015C47.3483 27.1002 49.0263 25.7081 49.0278 23.9906C49.0278 23.6724 49.3388 23.4145 49.7223 23.4145C50.1058 23.4145 50.4167 23.6724 50.4167 23.9906C50.4183 25.7081 52.0963 27.1002 54.1667 27.1015C54.5503 27.1015 54.8612 27.3594 54.8612 27.6775C54.8612 27.9957 54.5503 28.2536 54.1667 28.2536C52.0969 28.2562 50.4198 29.6475 50.4167 31.3645C50.4167 31.6827 50.1058 31.9406 49.7223 31.9406ZM47.8556 27.6775C48.6285 28.0514 49.2716 28.5849 49.7223 29.2261C50.173 28.5849 50.8161 28.0514 51.589 27.6775C50.8161 27.3037 50.173 26.7702 49.7223 26.129C49.2716 26.7702 48.6285 27.3037 47.8556 27.6775ZM9.65842 16.937C9.27489 16.937 8.96397 16.6791 8.96397 16.3609C8.96244 14.6433 7.28441 13.2513 5.21398 13.25C4.83044 13.25 4.51953 12.9921 4.51953 12.6739C4.51953 12.3558 4.83044 12.0978 5.21398 12.0978C7.28441 12.0966 8.96244 10.7045 8.96397 8.98698C8.96397 8.66881 9.27489 8.41089 9.65842 8.41089C10.0419 8.41089 10.3529 8.66881 10.3529 8.98698C10.3559 10.704 12.0331 12.0953 14.1029 12.0978C14.4864 12.0978 14.7973 12.3558 14.7973 12.6739C14.7973 12.9921 14.4864 13.25 14.1029 13.25C12.0331 13.2526 10.3559 14.6439 10.3529 16.3609C10.3529 16.6791 10.0419 16.937 9.65842 16.937ZM7.79175 12.6739C8.56465 13.0478 9.20773 13.5813 9.65842 14.2225C10.1091 13.5813 10.7522 13.0478 11.5251 12.6739C10.7522 12.3001 10.1091 11.7666 9.65842 11.1254C9.20773 11.7666 8.56465 12.3001 7.79175 12.6739ZM35.8334 52.8848H21.3695C20.0049 52.891 18.7915 52.1656 18.3667 51.0897C18.2662 50.8343 18.3918 50.5551 18.6695 50.4168C19.1752 50.169 19.6571 49.8894 20.1112 49.5804C20.8558 49.0781 21.5179 48.497 22.0806 47.8521C22.2118 47.707 22.4176 47.6217 22.6362 47.6217H35.8334C37.5884 47.6217 39.0112 48.8019 39.0112 50.2578C39.0112 51.7138 37.5884 52.894 35.8334 52.894V52.8848ZM19.9251 51.122C20.2592 51.5073 20.7973 51.7348 21.3695 51.7326H35.8334C36.4725 51.7326 37.0631 51.4498 37.3826 50.9906C37.7022 50.5315 37.7022 49.9658 37.3826 49.5066C37.0631 49.0475 36.4725 48.7646 35.8334 48.7646H22.9917C22.4087 49.3959 21.7384 49.9682 20.9945 50.4698C20.6536 50.7043 20.2965 50.922 19.9251 51.122Z" fill="white"/>
<path d="M35.8331 48.7646H22.6414C22.3859 48.7642 22.1513 48.6475 22.0306 48.4607C21.9099 48.2739 21.9226 48.0472 22.0636 47.8705L22.1609 47.7599L22.222 47.7L22.2692 47.6424C22.4747 47.3935 22.6886 47.1354 22.8664 46.875C22.8916 46.8178 22.9272 46.7642 22.972 46.716C23.5215 45.8476 23.9101 44.9153 24.1247 43.9508C24.19 43.6812 24.4766 43.4879 24.8081 43.4899H35.8331C36.9923 43.4615 38.0784 43.9583 38.6681 44.7867C39.2579 45.6151 39.2579 46.644 38.6681 47.4724C38.0784 48.3008 36.9923 48.7976 35.8331 48.7692V48.7646ZM23.9442 47.6124H35.8331C36.4905 47.6339 37.1094 47.3552 37.4458 46.8861C37.7822 46.417 37.7822 45.8329 37.4458 45.3638C37.1094 44.8947 36.4905 44.616 35.8331 44.6375H25.3636C25.0992 45.5782 24.6874 46.4862 24.1386 47.3382L24.097 47.3958C24.047 47.4695 23.997 47.541 23.9442 47.6124Z" fill="white"/>
<path d="M35.8328 44.6375H24.7967C24.5768 44.638 24.3697 44.552 24.2383 44.4057C24.1068 44.2595 24.0667 44.0702 24.13 43.8955C24.1461 43.8589 24.1582 43.8211 24.1661 43.7826C24.1661 43.748 24.18 43.7158 24.1884 43.6812C24.2696 43.2024 24.3151 42.7199 24.3245 42.2364C24.3321 42.1374 24.3321 42.0381 24.3245 41.9391C24.3231 41.9199 24.3231 41.9007 24.3245 41.8815C24.2992 41.2723 24.1977 40.6668 24.0217 40.0749C23.9684 39.9022 24.0145 39.7187 24.1466 39.5781C24.2786 39.4374 24.4818 39.3554 24.6967 39.356H35.8328C37.5909 39.356 39.0161 40.5383 39.0161 41.9967C39.0161 43.4552 37.5909 44.6375 35.8328 44.6375ZM25.605 43.4854H35.8328C36.4739 43.4854 37.0663 43.2016 37.3868 42.741C37.7074 42.2805 37.7074 41.713 37.3868 41.2524C37.0663 40.7919 36.4739 40.5081 35.8328 40.5081H25.5161C25.6023 40.9374 25.6561 41.3707 25.6773 41.8055C25.6973 41.9485 25.7057 42.0925 25.7023 42.2364C25.698 42.6539 25.6655 43.0709 25.605 43.4854Z" fill="white"/>
<path d="M35.8329 40.5081H24.6634C24.3327 40.5083 24.0473 40.3158 23.9801 40.0472C23.9496 39.9205 23.9107 39.7845 23.869 39.6555C23.554 38.7148 23.0638 37.8207 22.4162 37.0055L22.3996 36.9847C22.3589 36.9434 22.3209 36.9003 22.2857 36.8557C22.0995 36.6298 21.8992 36.4121 21.6857 36.2036C21.5112 36.0316 21.4732 35.7912 21.5883 35.5877C21.7035 35.3842 21.9508 35.2549 22.2218 35.2565H35.8468C37.6018 35.2565 39.0246 36.4367 39.0246 37.8927C39.0246 39.3486 37.6018 40.5288 35.8468 40.5288L35.8329 40.5081ZM25.2107 39.3559H35.8329C36.8209 39.3559 37.6218 38.6915 37.6218 37.8719C37.6218 37.0523 36.8209 36.3879 35.8329 36.3879H23.6107C23.6246 36.4087 23.6357 36.4271 23.6468 36.4478C24.3432 37.3456 24.8705 38.3263 25.2107 39.3559Z" fill="white"/>
<path d="M46.7996 52.7396C45.7658 52.7397 44.8366 52.2164 44.4552 51.4192L37.9218 37.7383C37.4098 36.6655 38.0427 35.4514 39.3357 35.0261L40.5663 34.6205C41.8587 34.1987 43.3191 34.723 43.8329 35.7934L50.369 49.4767C50.881 50.5495 50.2481 51.7636 48.9552 52.1889L47.7246 52.5921C47.4306 52.6902 47.1165 52.7403 46.7996 52.7396ZM41.4913 35.6275C41.3497 35.6275 41.2093 35.6494 41.0774 35.6921L39.8468 36.0976C39.5685 36.189 39.3449 36.3679 39.2246 36.5954C39.1081 36.8245 39.1081 37.0829 39.2246 37.312L45.7579 50.9952C45.868 51.2265 46.0846 51.4119 46.3598 51.5105C46.635 51.6091 46.9462 51.6127 47.2246 51.5206L48.4524 51.1174C48.7317 51.0265 48.9558 50.847 49.0752 50.6187C49.1946 50.3903 49.1994 50.1319 49.0885 49.9007L42.5524 36.2197C42.3808 35.859 41.9588 35.6234 41.4913 35.6275ZM12.8441 52.8848C7.47294 52.8663 2.6836 50.0756 0.840526 45.8904C-1.00254 41.7052 0.490422 37.0105 4.58235 34.1242C8.67428 31.2379 14.4998 30.7703 19.183 32.9522C19.8177 33.2616 20.4231 33.6105 20.9941 33.9961C21.3838 34.2583 21.7548 34.5392 22.1052 34.8371C22.3357 35.0376 22.5441 35.2404 22.7496 35.4386C22.999 35.6795 23.2317 35.9318 23.4468 36.1944C23.4571 36.2054 23.4663 36.2169 23.4746 36.229L23.5052 36.2566C23.5701 36.3119 23.6219 36.3767 23.658 36.4479C24.3554 37.343 24.8838 38.3214 25.2246 39.3491C25.2718 39.4942 25.3163 39.6486 25.3524 39.7961C25.5472 40.4515 25.6607 41.1217 25.6913 41.7963C25.7114 41.9393 25.7197 42.0832 25.7163 42.2272C25.7069 42.7669 25.6568 43.3057 25.5663 43.8402V43.8794L25.5496 43.9578C25.5369 44.0353 25.5192 44.1122 25.4968 44.1882C25.2471 45.2877 24.7965 46.3492 24.1607 47.3359L24.1191 47.3935C23.9052 47.7161 23.6607 48.0111 23.4246 48.2968L23.383 48.3475C23.358 48.3775 23.3246 48.4121 23.2913 48.4489L23.2413 48.5065C22.6089 49.2392 21.8616 49.8987 21.0191 50.4675C20.5125 50.8088 19.9747 51.117 19.4107 51.3893H19.3968L19.3357 51.4192C17.3692 52.3814 15.1272 52.8876 12.8441 52.8848ZM12.8441 32.7402C8.02699 32.742 3.72669 35.2453 2.0863 39.0026C0.44591 42.7598 1.81645 46.967 5.51489 49.5274C9.21333 52.0877 14.4482 52.4534 18.6107 50.4422L18.6663 50.4122C19.1682 50.1667 19.6465 49.8894 20.0968 49.5827C20.8415 49.0804 21.5036 48.4993 22.0663 47.8544C22.0802 47.836 22.1135 47.7991 22.1468 47.7622L22.2218 47.7L22.2691 47.6424C22.4746 47.3935 22.6885 47.1354 22.8663 46.8751C22.8915 46.8179 22.9271 46.7643 22.9718 46.7161C23.5214 45.8476 23.91 44.9154 24.1246 43.9508C24.1288 43.9299 24.1344 43.9091 24.1413 43.8886C24.1532 43.8539 24.1615 43.8185 24.1663 43.7826C24.1663 43.7481 24.1802 43.7158 24.1885 43.6812C24.2698 43.2024 24.3152 42.7199 24.3246 42.2364C24.3322 42.1374 24.3322 42.0381 24.3246 41.9391C24.3233 41.92 24.3233 41.9007 24.3246 41.8815C24.2994 41.2723 24.1979 40.6668 24.0218 40.0749V40.045C23.9913 39.9182 23.9524 39.7823 23.9107 39.6532C23.5957 38.7125 23.1056 37.8184 22.458 37.0032L22.4413 36.9825C22.4006 36.9412 22.3626 36.8981 22.3274 36.8534C22.1412 36.6276 21.9409 36.4099 21.7274 36.2013C21.5218 36.0031 21.3302 35.8188 21.133 35.646C20.8267 35.3816 20.5021 35.1323 20.1607 34.8994C19.6472 34.5505 19.101 34.2362 18.5274 33.9592C16.7944 33.1467 14.8345 32.7264 12.8441 32.7402ZM27.5913 23.3799C27.4349 23.3802 27.2831 23.3363 27.1607 23.2555C26.883 23.0688 20.233 18.626 20.233 11.7476C20.233 4.86909 26.8774 0.426307 27.1607 0.230437C27.4128 0.0641381 27.7698 0.0641381 28.0218 0.230437C28.2996 0.41709 34.9496 4.85987 34.9496 11.7384C34.9496 18.6168 28.3052 23.0596 28.0218 23.2463C27.901 23.3304 27.749 23.3776 27.5913 23.3799ZM27.5913 1.45405C26.1552 2.54631 21.6218 6.4107 21.6218 11.7476C21.6218 17.0844 26.1552 20.9488 27.5913 22.0388C29.0302 20.9488 33.5607 17.0844 33.5607 11.7476C33.5607 6.4107 29.0302 2.54631 27.5913 1.45405Z" fill="white"/>
<path d="M28.2854 13.5957H26.8965V35.4755H28.2854V13.5957Z" fill="white"/>
<path d="M30.908 30.5464C30.5917 30.5482 30.2755 30.5358 29.9608 30.5095C29.6412 30.4791 29.3891 30.27 29.3525 30.0049C29.3275 29.8297 28.7969 25.705 32.2358 22.8476C35.6747 19.9902 40.6497 20.4349 40.8469 20.4557C41.1664 20.4879 41.4178 20.6974 41.4552 20.9626C41.4802 21.1354 42.0108 25.2625 38.5719 28.1176C36.0025 30.2607 32.5525 30.5464 30.908 30.5464ZM30.7025 29.3942C32.0136 29.3942 35.2802 29.2352 37.6052 27.3065C39.9302 25.3777 40.1441 22.6701 40.1219 21.5825C38.8025 21.5687 35.5414 21.7392 33.2164 23.6564C30.8914 25.5736 30.683 28.2974 30.7025 29.3896V29.3942ZM22.4191 28.2559C21.1664 28.2559 18.5303 28.0393 16.5691 26.4124C13.9469 24.2371 14.3469 21.0963 14.3719 20.9626C14.4086 20.6975 14.6607 20.4884 14.9803 20.458C15.1414 20.4418 18.9275 20.1054 21.5497 22.2807C24.1719 24.456 23.7719 27.5991 23.7497 27.7305C23.7101 27.9957 23.4583 28.2046 23.1386 28.2374C23.0997 28.2305 22.8358 28.2559 22.4191 28.2559ZM15.7303 21.5733C15.7303 22.4374 15.9608 24.267 17.5525 25.5874C19.1441 26.9078 21.3469 27.0922 22.3914 27.0991C22.3914 26.2327 22.158 24.403 20.5691 23.0849C18.9803 21.7668 16.7719 21.5825 15.7303 21.5756V21.5733Z" fill="white"/>
<path d="M27.8277 32.3507C27.643 32.3504 27.4661 32.289 27.3361 32.1802L18.8277 25.1174L19.8083 24.3016L27.8305 30.9566L32.7972 26.8756L33.775 27.6936L28.3166 32.1779C28.1876 32.2868 28.0118 32.3489 27.8277 32.3507ZM12.8555 49.5089C8.01383 49.5089 4.08887 46.2529 4.08887 42.2364C4.08887 38.2199 8.01383 34.9639 12.8555 34.9639C17.6972 34.9639 21.6222 38.2199 21.6222 42.2364C21.6161 46.2508 17.6947 49.5038 12.8555 49.5089ZM12.8555 36.116C8.7809 36.116 5.47775 38.8562 5.47775 42.2364C5.47775 45.6165 8.7809 48.3567 12.8555 48.3567C16.9302 48.3567 20.2333 45.6165 20.2333 42.2364C20.2272 38.8583 16.9276 36.1211 12.8555 36.116Z" fill="white"/>
<path d="M14.3972 45.6561H11.2444C9.98609 45.6561 8.96387 44.7343 8.96387 43.6029V43.5522H10.3528V43.6098C10.3528 44.1052 10.7528 44.5108 11.2444 44.5108H14.3972C14.8861 44.5108 15.2833 44.1075 15.2833 43.6144C15.2833 43.1213 14.8861 42.7203 14.3972 42.7203H11.2389C9.98331 42.7203 8.96387 41.7986 8.96387 40.6718C8.96387 39.5449 9.98331 38.6255 11.2389 38.6255H14.3916C15.65 38.6255 16.6722 39.5472 16.6722 40.6787H15.2778C15.2778 40.1809 14.8778 39.7777 14.3861 39.7777H11.2389C10.75 39.7777 10.3528 40.1786 10.3528 40.6718C10.3528 41.1649 10.75 41.5681 11.2389 41.5681H14.3972C15.6528 41.5681 16.6722 42.4899 16.6722 43.6144C16.6722 44.7389 15.6528 45.6561 14.3972 45.6561Z" fill="white"/>
<path d="M13.5139 37.9135H12.125V46.564H13.5139V37.9135Z" fill="white"/>
</g>
<defs>
<clipPath id="clip0_149_333">
<rect width="55" height="53" rx="20" fill="white"/>
</clipPath>
</defs>
</svg>
