<svg width="220" height="71" viewBox="0 0 220 71" fill="none" xmlns="http://www.w3.org/2000/svg">
<g clip-path="url(#clip0_226_110)">
<path d="M73.5716 37.0472C73.2415 34.7608 72.0742 32.9014 70.1039 31.5226C69.7993 31.301 65.6136 28.2844 59.0747 24.8969C62.6785 23.1238 65.5013 22.3469 65.5642 22.3306L67.8783 21.7123L66.1717 19.482C58.0742 8.91113 47.5214 4.94269 35.6517 8.00593C26.7681 10.2969 20.3637 15.6325 20.0948 15.8588L15.8462 19.4377L20.8197 18.9477C31.9935 17.8465 43.4344 21.3111 52.3622 25.2445C49.7913 27.0992 47.2696 29.4253 45.2669 32.3088C41.6002 29.2083 37.5676 27.0736 33.2049 25.9304C27.3381 24.393 20.8197 24.6379 13.8299 26.663C10.9186 27.5052 8.64196 27.8388 6.93025 27.9251C6.93025 27.9251 3.20734 28.3077 0 26.8426L1.37142 29.9712C5.31211 38.9579 15.9142 42.9357 24.5239 43.6613C31.9016 44.2818 41.7346 42.8097 45.7161 36.7112C47.188 38.139 48.5934 39.7511 49.9308 41.5406C50.8428 41.1929 51.7514 40.836 52.6838 40.6143C51.0095 38.202 49.2247 36.058 47.3309 34.1939C49.6398 31.035 52.7076 28.597 55.67 26.7773C63.5956 30.6151 68.8601 34.4016 68.9724 34.4832L68.9911 34.4972C70.2638 35.3861 71.0006 36.4593 71.1826 37.6864C71.2507 38.1507 71.2422 38.6196 71.186 39.0676C70.8389 38.5146 70.4561 38.1274 70.1056 37.8614C66.8948 35.4164 61.4568 39.0419 60.6554 39.6018C42.7249 50.0304 15.186 47.4034 14.9103 47.3754L10.791 46.9625L14.0868 50.3733C20.185 56.6888 26.6473 60.8602 33.2934 62.7756C36.1298 63.5945 39.002 64.0027 41.8843 64.0027C44.4179 64.0027 46.9617 63.6878 49.4986 63.0555C58.731 60.7552 64.6199 55.114 64.8649 54.876L67.5822 52.2374L64.266 51.8478C61.0178 51.4675 58.5932 49.5218 57.2558 48.157C56.8372 48.3273 56.4169 48.4859 55.9916 48.6399C55.6257 48.7729 55.2633 48.9338 54.8941 49.0458C54.7256 49.0972 54.5555 49.1391 54.3853 49.1835C54.8635 49.8507 57.1077 52.7693 60.766 54.3044C58.2614 56.0868 54.142 58.5248 48.9575 59.7987C38.5477 62.3556 28.4697 59.3834 18.9463 50.9659C21.9137 51.0779 26.2271 51.1152 31.1495 50.7769C39.72 50.1867 51.9675 48.2969 61.6474 42.6487L61.729 42.5974C63.6535 41.2396 67.3066 39.5482 68.923 40.78C69.2735 41.0483 69.7534 41.6012 69.8521 43.2973L70.0852 47.2984L71.9909 44.2515C72.0759 44.1092 74.1143 40.7963 73.5716 37.0472ZM24.6736 40.3251C17.7876 39.7441 9.5812 37.0448 5.23214 31.2683C7.22801 31.3546 10.2108 31.1213 14.3335 29.9268C25.8153 26.6 35.633 28.2587 43.6403 34.8472C40.6882 38.8039 33.0961 41.0343 24.6736 40.3251ZM55.5747 23.1611C55.2293 22.9978 54.8788 22.8345 54.5232 22.6712C47.2798 19.3467 36.933 15.6652 26.2373 15.4156C28.8185 13.9201 32.2657 12.2683 36.1758 11.2675C46.5414 8.61951 55.4777 11.4914 62.7738 19.8039C60.9923 20.4478 58.3771 21.5327 55.5747 23.1611Z" fill="white"/>
<path d="M79.1709 46.4418L86.0586 25.2511H89.5909L96.5008 46.4418H92.7489L87.0965 27.7334H88.5105L82.836 46.4418H79.1709ZM82.6148 41.9018L83.5642 38.1783H91.5119L92.4835 41.9018H82.6148Z" fill="white"/>
<path d="M98.1143 25.2534H101.669V46.4441H98.1143V25.2534ZM101.316 41.5985L101.117 35.9386L108.514 25.2534H112.487L105.819 35.0917L103.833 37.9986L101.316 41.5985ZM108.689 46.4418L103.192 37.2101L105.531 33.7292L112.861 46.4441H108.689V46.4418Z" fill="white"/>
<path d="M116.769 46.4418H115.136V25.2534H116.769V46.4418ZM126.594 36.6641H116.592V34.6974H126.594V36.6641ZM126.439 25.2534H128.05V46.4441H126.439V25.2534Z" fill="white"/>
<path d="M139.84 46.6237C138.676 46.6237 137.599 46.3554 136.605 45.8212C135.613 45.2869 134.751 44.531 134.022 43.5512C133.294 42.5713 132.727 41.4328 132.323 40.131C131.918 38.8291 131.717 37.4013 131.717 35.8476C131.717 34.2938 131.918 32.866 132.323 31.5642C132.727 30.2624 133.294 29.1238 134.022 28.144C134.751 27.1641 135.608 26.4082 136.595 25.874C137.58 25.3397 138.662 25.0714 139.84 25.0714C141.002 25.0714 142.076 25.3397 143.062 25.874C144.049 26.4082 144.907 27.1595 145.635 28.13C146.363 29.0982 146.93 30.239 147.335 31.5502C147.74 32.8613 147.942 34.2938 147.942 35.8499C147.942 37.4037 147.74 38.8361 147.335 40.1473C146.93 41.4608 146.363 42.5993 145.635 43.5675C144.907 44.5357 144.049 45.2892 143.062 45.8235C142.076 46.3578 141.002 46.6237 139.84 46.6237ZM139.84 44.6267C140.767 44.6267 141.625 44.4097 142.412 43.9758C143.199 43.5418 143.884 42.9259 144.464 42.1304C145.046 41.3325 145.499 40.4039 145.822 39.3447C146.147 38.2856 146.309 37.1191 146.309 35.8499C146.309 34.5784 146.147 33.4119 145.822 32.3527C145.499 31.2935 145.046 30.365 144.464 29.5671C143.883 28.7692 143.199 28.1556 142.412 27.7194C141.625 27.2854 140.767 27.0685 139.84 27.0685C138.912 27.0685 138.052 27.2854 137.257 27.7194C136.462 28.1533 135.773 28.7692 135.193 29.5671C134.611 30.365 134.155 31.2912 133.825 32.3527C133.495 33.4119 133.328 34.5784 133.328 35.8499C133.328 37.1004 133.495 38.2622 133.825 39.3307C134.155 40.3993 134.613 41.3348 135.193 42.1304C135.775 42.9282 136.462 43.5418 137.257 43.9758C138.05 44.4097 138.912 44.6267 139.84 44.6267Z" fill="white"/>
<path d="M151.606 46.4418V25.2534H153.24V44.5054H161.894V46.4418H151.606Z" fill="white"/>
<path d="M164.609 46.4418V25.2534H170.902C172.55 25.2534 173.997 25.7037 175.24 26.5996C176.484 27.4978 177.452 28.7436 178.143 30.3394C178.836 31.9328 179.181 33.7712 179.181 35.8476C179.181 37.9263 178.836 39.7624 178.143 41.3582C177.451 42.9516 176.484 44.1974 175.24 45.0956C173.997 45.9938 172.55 46.4418 170.902 46.4418H164.609ZM166.245 44.5054H170.815C172.183 44.5054 173.372 44.1368 174.381 43.4019C175.388 42.6646 176.173 41.6451 176.733 40.3456C177.292 39.0438 177.571 37.546 177.571 35.8499C177.571 34.1352 177.292 32.6304 176.733 31.3402C176.173 30.0501 175.388 29.0352 174.381 28.298C173.372 27.5608 172.184 27.1921 170.815 27.1921H166.245V44.5054Z" fill="white"/>
<path d="M184.479 25.2534H182.846V46.4441H184.479V25.2534Z" fill="white"/>
<path d="M189.513 46.4418V25.2534H190.86L201.522 43.6562H200.818V25.2534H202.429V46.4418H201.081L190.44 28.0367H191.146V46.4418H189.513Z" fill="white"/>
<path d="M214.239 46.6238C213.061 46.6238 211.976 46.3555 210.982 45.8213C209.99 45.287 209.128 44.5358 208.399 43.5676C207.671 42.5994 207.104 41.4586 206.699 40.1474C206.295 38.8363 206.094 37.4038 206.094 35.85C206.094 34.2962 206.295 32.8638 206.699 31.5526C207.104 30.2415 207.674 29.1006 208.411 28.1324C209.148 27.1642 210.011 26.413 211.004 25.8764C211.998 25.3398 213.084 25.0739 214.261 25.0739C215.438 25.0739 216.517 25.3258 217.496 25.8297C218.474 26.3337 219.309 27.1012 220.002 28.1301L218.986 29.5532C218.338 28.6643 217.625 28.0298 216.846 27.6448C216.065 27.2622 215.226 27.0686 214.329 27.0686C213.371 27.0686 212.493 27.2855 211.69 27.7195C210.887 28.1534 210.189 28.7693 209.594 29.5672C208.998 30.3651 208.534 31.2913 208.202 32.3528C207.87 33.412 207.705 34.5785 207.705 35.85C207.705 37.1005 207.87 38.2623 208.202 39.3309C208.534 40.3994 208.997 41.3349 209.594 42.1305C210.189 42.9283 210.889 43.5419 211.69 43.9759C212.493 44.4098 213.364 44.6268 214.307 44.6268C215.19 44.6268 216.025 44.4448 216.813 44.0809C217.601 43.7169 218.326 43.101 218.988 42.2354L219.915 43.9292C219.18 44.8181 218.317 45.4877 217.332 45.9426C216.344 46.3975 215.313 46.6238 214.239 46.6238ZM218.346 43.6562V35.8477H219.913V43.9292L218.346 43.6562Z" fill="white"/>
</g>
<defs>
<clipPath id="clip0_226_110">
<rect width="220" height="57" fill="white" transform="translate(0 7)"/>
</clipPath>
</defs>
</svg>
