<svg width="240" height="55" viewBox="0 0 240 55" fill="none" xmlns="http://www.w3.org/2000/svg">
<g clip-path="url(#clip0_226_78)">
<path d="M80.2599 28.9654C79.8998 26.7994 78.6264 25.0379 76.477 23.7316C76.1447 23.5217 71.5785 20.6638 64.4451 17.4546C68.3765 15.7748 71.4559 15.0388 71.5246 15.0234L74.049 14.4377L72.1873 12.3247C63.3537 2.31021 51.8416 -1.44936 38.8928 1.45265C29.2016 3.62308 22.2149 8.67785 21.9216 8.89224L17.2867 12.2827L22.7124 11.8186C34.902 10.7753 47.383 14.0575 57.1224 17.7839C54.3177 19.5411 51.5669 21.7446 49.3821 24.4765C45.382 21.5391 40.9829 19.5167 36.2236 18.4337C29.8234 16.9772 22.7124 17.2093 15.0871 19.1277C11.9112 19.9256 9.4276 20.2417 7.56027 20.3235C7.56027 20.3235 3.49892 20.6859 0 19.2979L1.49609 22.2618C5.79503 30.7756 17.361 34.544 26.7533 35.2314C34.8017 35.8193 45.5287 34.4247 49.8722 28.6471C51.4778 29.9998 53.011 31.5271 54.4699 33.2223C55.4649 32.893 56.4561 32.5548 57.4733 32.3448C55.6468 30.0595 53.6996 28.0283 51.6337 26.2623C54.1525 23.2697 57.4992 20.96 60.7309 19.236C69.377 22.8719 75.1201 26.459 75.2426 26.5364L75.263 26.5497C76.6514 27.3917 77.4552 28.4084 77.6538 29.571C77.728 30.0109 77.7187 30.4551 77.6575 30.8795C77.2788 30.3556 76.8612 29.9887 76.4788 29.7368C72.9762 27.4205 67.0438 30.8552 66.1695 31.3856C46.609 41.2653 16.5665 38.7766 16.2658 38.75L11.772 38.3588L15.3674 41.5902C22.02 47.5732 29.0698 51.5251 36.3201 53.3397C39.4144 54.1155 42.5476 54.5023 45.692 54.5023C48.4559 54.5023 51.2309 54.2039 53.9985 53.6049C64.0702 51.4256 70.4944 46.0813 70.7617 45.8559L73.7261 43.3561L70.1084 42.987C66.5649 42.6268 63.9198 40.7834 62.4608 39.4905C62.0042 39.6518 61.5457 39.8021 61.0817 39.948C60.6826 40.074 60.2872 40.2265 59.8845 40.3326C59.7007 40.3812 59.5151 40.421 59.3295 40.463C59.851 41.0951 62.2994 43.8601 66.2902 45.3144C63.5579 47.003 59.064 49.3127 53.4082 50.5194C42.052 52.9418 31.0578 50.126 20.6687 42.1516C23.9059 42.2577 28.6113 42.293 33.9813 41.9725C43.3309 41.4134 56.6918 39.6231 67.2517 34.2721L67.3408 34.2235C69.4401 32.9372 73.4254 31.3348 75.1888 32.5018C75.5711 32.7559 76.0946 33.2798 76.2022 34.8866L76.4565 38.6771L78.5355 35.7906C78.6283 35.6557 80.852 32.5172 80.2599 28.9654ZM26.9166 32.0708C19.4046 31.5204 10.4522 28.9632 5.70779 23.4907C7.8851 23.5725 11.139 23.3515 15.6366 22.2198C28.1621 19.0681 38.8724 20.6395 47.6076 26.8812C44.3871 30.6297 36.1048 32.7427 26.9166 32.0708ZM60.6269 15.8102C60.2501 15.6555 59.8677 15.5008 59.4798 15.3461C51.578 12.1965 40.2905 8.70879 28.6225 8.4723C31.4383 7.05555 35.199 5.49072 39.4645 4.54253C50.7724 2.03394 60.5211 4.75471 68.4805 12.6297C66.537 13.2397 63.6841 14.2675 60.6269 15.8102Z" fill="#474747"/>
<path d="M86.3682 37.8659L93.882 17.7905H97.7355L105.273 37.8659H101.181L95.0143 20.1422H96.5568L90.3664 37.8659H86.3682ZM90.1251 33.5648L91.1609 30.0373H99.8311L100.891 33.5648H90.1251Z" fill="#474747"/>
<path d="M107.033 17.7927H110.911V37.8681H107.033V17.7927ZM110.527 33.2775L110.309 27.9155L118.378 17.7927H122.712L115.438 27.1132L113.272 29.8671L110.527 33.2775ZM118.569 37.8659L112.572 29.1201L115.124 25.8224L123.121 37.8681H118.569V37.8659Z" fill="#474747"/>
<path d="M127.384 37.8659H125.603V17.7927H127.384V37.8659ZM138.102 28.6029H127.191V26.7397H138.102V28.6029ZM137.933 17.7927H139.691V37.8681H137.933V17.7927Z" fill="#474747"/>
<path d="M152.553 38.0383C151.283 38.0383 150.108 37.7842 149.024 37.278C147.942 36.7719 147.001 36.0558 146.207 35.1275C145.412 34.1992 144.794 33.1206 144.352 31.8873C143.91 30.654 143.691 29.3014 143.691 27.8294C143.691 26.3573 143.91 25.0047 144.352 23.7714C144.794 22.5381 145.412 21.4595 146.207 20.5312C147.001 19.6029 147.937 18.8868 149.013 18.3807C150.088 17.8745 151.268 17.6204 152.553 17.6204C153.821 17.6204 154.992 17.8745 156.068 18.3807C157.145 18.8868 158.081 19.5985 158.875 20.518C159.67 21.4352 160.288 22.516 160.729 23.7581C161.171 25.0003 161.392 26.3573 161.392 27.8316C161.392 29.3036 161.171 30.6606 160.729 31.9028C160.288 33.1471 159.67 34.2257 158.875 35.143C158.081 36.0602 157.145 36.7741 156.068 37.2802C154.992 37.7864 153.821 38.0383 152.553 38.0383ZM152.553 36.1464C153.564 36.1464 154.5 35.9408 155.359 35.5297C156.217 35.1186 156.965 34.5351 157.598 33.7815C158.233 33.0256 158.727 32.1459 159.079 31.1425C159.434 30.139 159.61 29.0339 159.61 27.8316C159.61 26.627 159.434 25.5219 159.079 24.5184C158.727 23.515 158.233 22.6353 157.598 21.8794C156.963 21.1236 156.217 20.5423 155.359 20.129C154.5 19.7179 153.564 19.5123 152.553 19.5123C151.541 19.5123 150.602 19.7179 149.735 20.129C148.868 20.5401 148.117 21.1236 147.484 21.8794C146.849 22.6353 146.351 23.5128 145.991 24.5184C145.631 25.5219 145.449 26.627 145.449 27.8316C145.449 29.0162 145.631 30.1169 145.991 31.1292C146.351 32.1415 146.851 33.0278 147.484 33.7815C148.118 34.5374 148.868 35.1186 149.735 35.5297C150.6 35.9408 151.541 36.1464 152.553 36.1464Z" fill="#474747"/>
<path d="M165.389 37.8659V17.7927H167.171V36.0314H176.611V37.8659H165.389Z" fill="#474747"/>
<path d="M179.573 37.8659V17.7927H186.437C188.236 17.7927 189.814 18.2193 191.171 19.068C192.528 19.919 193.584 21.0992 194.337 22.611C195.093 24.1206 195.47 25.8622 195.47 27.8293C195.47 29.7986 195.093 31.5381 194.337 33.0498C193.582 34.5594 192.528 35.7397 191.171 36.5906C189.814 37.4415 188.236 37.8659 186.437 37.8659H179.573ZM181.357 36.0314H186.343C187.835 36.0314 189.133 35.6822 190.233 34.986C191.332 34.2876 192.188 33.3217 192.799 32.0906C193.409 30.8573 193.714 29.4384 193.714 27.8315C193.714 26.207 193.409 24.7814 192.799 23.5592C192.188 22.3369 191.332 21.3755 190.233 20.6771C189.133 19.9786 187.837 19.6294 186.343 19.6294H181.357V36.0314Z" fill="#474747"/>
<path d="M201.25 17.7927H199.468V37.8681H201.25V17.7927Z" fill="#474747"/>
<path d="M206.741 37.8659V17.7927H208.211L219.842 35.2269H219.074V17.7927H220.832V37.8659H219.361L207.753 20.4295H208.523V37.8659H206.741Z" fill="#474747"/>
<path d="M233.715 38.0383C232.43 38.0383 231.246 37.7841 230.162 37.278C229.08 36.7719 228.139 36.0602 227.344 35.1429C226.55 34.2257 225.932 33.1449 225.49 31.9028C225.048 30.6606 224.829 29.3036 224.829 27.8315C224.829 26.3595 225.048 25.0025 225.49 23.7603C225.932 22.5182 226.554 21.4374 227.357 20.5202C228.161 19.6029 229.102 18.8912 230.186 18.3829C231.27 17.8745 232.454 17.6226 233.739 17.6226C235.023 17.6226 236.2 17.8613 237.267 18.3387C238.335 18.8161 239.246 19.5432 240.002 20.5179L238.893 21.8662C238.186 21.0241 237.409 20.4229 236.558 20.0582C235.706 19.6957 234.791 19.5123 233.813 19.5123C232.768 19.5123 231.81 19.7178 230.934 20.1289C230.058 20.54 229.297 21.1235 228.647 21.8794C227.998 22.6353 227.491 23.5128 227.129 24.5184C226.767 25.5219 226.587 26.627 226.587 27.8315C226.587 29.0162 226.767 30.1169 227.129 31.1292C227.491 32.1415 227.996 33.0278 228.647 33.7815C229.297 34.5373 230.06 35.1186 230.934 35.5297C231.81 35.9408 232.761 36.1464 233.789 36.1464C234.752 36.1464 235.664 35.974 236.523 35.6292C237.383 35.2844 238.173 34.7009 238.895 33.8809L239.907 35.4855C239.105 36.3276 238.164 36.962 237.089 37.3929C236.011 37.8239 234.886 38.0383 233.715 38.0383ZM238.196 35.2269V27.8293H239.905V35.4855L238.196 35.2269Z" fill="#474747"/>
</g>
<defs>
<clipPath id="clip0_226_78">
<rect width="240" height="54" fill="white" transform="translate(0 0.5)"/>
</clipPath>
</defs>
</svg>
